<svg xmlns="http://www.w3.org/2000/svg" width="600" height="180" viewBox="0 0 666.6666666666666 200"><rect stroke-width="0.3" fill="#999999" stroke="#999999" stroke-dasharray="none" font-family="Arial" font-size="10pt" font-weight="normal" font-style="normal" x="10" y="59" width="599.5" height="1.5"/><rect stroke-width="0.3" fill="#999999" stroke="#999999" stroke-dasharray="none" font-family="Arial" font-size="10pt" font-weight="normal" font-style="normal" x="10" y="69" width="599.5" height="1.5"/><rect stroke-width="0.3" fill="#999999" stroke="#999999" stroke-dasharray="none" font-family="Arial" font-size="10pt" font-weight="normal" font-style="normal" x="10" y="79" width="599.5" height="1.5"/><rect stroke-width="0.3" fill="#999999" stroke="#999999" stroke-dasharray="none" font-family="Arial" font-size="10pt" font-weight="normal" font-style="normal" x="10" y="89" width="599.5" height="1.5"/><rect stroke-width="0.3" fill="#999999" stroke="#999999" stroke-dasharray="none" font-family="Arial" font-size="10pt" font-weight="normal" font-style="normal" x="10" y="99" width="599.5" height="1.5"/><rect stroke-width="0.3" fill="black" stroke="black" stroke-dasharray="none" font-family="Arial" font-size="10pt" font-weight="normal" font-style="normal" x="10" y="59" width="0.5" height="41.5"/><rect stroke-width="0.3" fill="black" stroke="black" stroke-dasharray="none" font-family="Arial" font-size="10pt" font-weight="normal" font-style="normal" x="610" y="59" width="0.5" height="41.5"/><rect stroke-width="0.3" fill="black" stroke="black" stroke-dasharray="none" font-family="Arial" font-size="10pt" font-weight="normal" font-style="normal" x="67.11111259460449" y="110" width="15.5" height="0.5"/><g class="vf-stavenote"><g class="vf-note" pointer-events="bounding-box"><g class="vf-stem" pointer-events="bounding-box"><path stroke-width="1.5" fill="none" stroke="black" stroke-dasharray="none" font-family="Arial" font-size="10pt" font-weight="normal" font-style="normal" x="67.11111259460449" y="110" width="15.5" height="0.5" d="M70.86111259460449 87L70.86111259460449 144"/></g><g class="vf-notehead" pointer-events="bounding-box"><rect stroke-width="0.3" fill="black" stroke="black" stroke-dasharray="none" font-family="Arial" font-size="10pt" font-weight="normal" font-style="normal" x="67.11111259460449" y="110" width="15.5" height="0.5"/><path stroke-width="0.3" fill="black" stroke="none" stroke-dasharray="none" font-family="Arial" font-size="10pt" font-weight="normal" font-style="normal" x="67.11111259460449" y="110" width="15.5" height="0.5" d="M70.11111259460449 110M76.7135125946045 105.3128C76.81431259460449 105.3128,76.96551259460449 105.3128,76.99071259460449 105.3128C76.99071259460449 105.3128,77.01591259460449 105.3128,77.01591259460449 105.3128C77.01591259460449 105.3128,77.16711259460449 105.3128,77.2931125946045 105.3128C79.5611125946045 105.4388,80.8967125946045 106.9256,80.8967125946045 108.7904C80.8967125946045 109.6976,80.59431259460449 110.7308,79.83831259460449 111.7136C78.4019125946045 113.654,76.05831259460449 114.7124,74.0171125946045 114.7124C72.42951259460449 114.7124,71.06871259460449 114.0824,70.4135125946045 112.7972C70.2119125946045 112.2932,70.11111259460449 111.8144,70.11111259460449 111.2852C70.11111259460449 108.5384,73.18551259460449 105.4892,76.7135125946045 105.3128M79.3343125946045 106.6988C79.23351259460449 106.6484,79.10751259460449 106.6232,78.9815125946045 106.6232C78.2003125946045 106.6232,76.8899125946045 107.102,75.62991259460449 107.9588C73.2863125946045 109.4204,71.3711125946045 111.5624,71.29551259460449 112.7972C71.29551259460449 112.7972,71.29551259460449 112.8224,71.29551259460449 112.8224C71.29551259460449 113.2508,71.5727125946045 113.4272,72.05151259460449 113.4272C73.0847125946045 113.4272,74.9999125946045 112.5452,76.76391259460449 111.134C78.5783125946045 109.6976,79.7375125946045 108.0848,79.7375125946045 107.2532C79.7375125946045 106.976,79.61151259460449 106.7492,79.3343125946045 106.6988"/></g><g class="vf-notehead" pointer-events="bounding-box"><path stroke-width="0.3" fill="black" stroke="none" stroke-dasharray="none" font-family="Arial" font-size="10pt" font-weight="normal" font-style="normal" x="67.11111259460449" y="110" width="15.5" height="0.5" d="M70.11111259460449 100M76.7135125946045 95.3128C76.81431259460449 95.3128,76.96551259460449 95.3128,76.99071259460449 95.3128C76.99071259460449 95.3128,77.01591259460449 95.3128,77.01591259460449 95.3128C77.01591259460449 95.3128,77.16711259460449 95.3128,77.2931125946045 95.3128C79.5611125946045 95.4388,80.8967125946045 96.9256,80.8967125946045 98.7904C80.8967125946045 99.6976,80.59431259460449 100.7308,79.83831259460449 101.7136C78.4019125946045 103.654,76.05831259460449 104.7124,74.0171125946045 104.7124C72.42951259460449 104.7124,71.06871259460449 104.0824,70.4135125946045 102.7972C70.2119125946045 102.2932,70.11111259460449 101.8144,70.11111259460449 101.2852C70.11111259460449 98.5384,73.18551259460449 95.4892,76.7135125946045 95.3128M79.3343125946045 96.6988C79.23351259460449 96.6484,79.10751259460449 96.6232,78.9815125946045 96.6232C78.2003125946045 96.6232,76.8899125946045 97.102,75.62991259460449 97.9588C73.2863125946045 99.4204,71.3711125946045 101.5624,71.29551259460449 102.7972C71.29551259460449 102.7972,71.29551259460449 102.8224,71.29551259460449 102.8224C71.29551259460449 103.2508,71.5727125946045 103.4272,72.05151259460449 103.4272C73.0847125946045 103.4272,74.9999125946045 102.5452,76.76391259460449 101.134C78.5783125946045 99.6976,79.7375125946045 98.0848,79.7375125946045 97.2532C79.7375125946045 96.976,79.61151259460449 96.7492,79.3343125946045 96.6988"/></g><g class="vf-notehead" pointer-events="bounding-box"><path stroke-width="0.3" fill="black" stroke="none" stroke-dasharray="none" font-family="Arial" font-size="10pt" font-weight="normal" font-style="normal" x="67.11111259460449" y="110" width="15.5" height="0.5" d="M70.11111259460449 85M76.7135125946045 80.3128C76.81431259460449 80.3128,76.96551259460449 80.3128,76.99071259460449 80.3128C76.99071259460449 80.3128,77.01591259460449 80.3128,77.01591259460449 80.3128C77.01591259460449 80.3128,77.16711259460449 80.3128,77.2931125946045 80.3128C79.5611125946045 80.4388,80.8967125946045 81.9256,80.8967125946045 83.7904C80.8967125946045 84.6976,80.59431259460449 85.7308,79.83831259460449 86.7136C78.4019125946045 88.654,76.05831259460449 89.7124,74.0171125946045 89.7124C72.42951259460449 89.7124,71.06871259460449 89.0824,70.4135125946045 87.7972C70.2119125946045 87.2932,70.11111259460449 86.8144,70.11111259460449 86.2852C70.11111259460449 83.5384,73.18551259460449 80.4892,76.7135125946045 80.3128M79.3343125946045 81.6988C79.23351259460449 81.6484,79.10751259460449 81.6232,78.9815125946045 81.6232C78.2003125946045 81.6232,76.8899125946045 82.102,75.62991259460449 82.9588C73.2863125946045 84.4204,71.3711125946045 86.5624,71.29551259460449 87.7972C71.29551259460449 87.7972,71.29551259460449 87.8224,71.29551259460449 87.8224C71.29551259460449 88.2508,71.5727125946045 88.4272,72.05151259460449 88.4272C73.0847125946045 88.4272,74.9999125946045 87.5452,76.76391259460449 86.134C78.5783125946045 84.6976,79.7375125946045 83.0848,79.7375125946045 82.2532C79.7375125946045 81.976,79.61151259460449 81.7492,79.3343125946045 81.6988"/></g></g><g class="vf-modifiers"><path stroke-width="0.3" fill="black" stroke="none" stroke-dasharray="none" font-family="Arial" font-size="10pt" font-weight="normal" font-style="normal" x="67.11111259460449" y="110" width="15.5" height="0.5" d="M48.11111259460449 110M47.892232594604494 92.73584C47.94695259460449 92.70848000000001,48.00167259460449 92.70848000000001,48.08375259460449 92.70848000000001C48.32999259460449 92.70848000000001,48.54887259460449 92.81792,48.630952594604494 93.0368C48.65831259460449 93.14624,48.65831259460449 93.14624,48.65831259460449 99.52112L48.65831259460449 105.95072L48.68567259460449 105.86864C49.725352594604495 104.99312,50.819752594604495 104.55536000000001,51.85943259460449 104.55536000000001C52.269832594604495 104.55536000000001,52.68023259460449 104.61008,53.09063259460449 104.77424C54.321832594604494 105.18464,54.97847259460449 106.33376,54.97847259460449 107.70176000000001C54.97847259460449 108.41312,54.75959259460449 109.20656,54.34919259460449 110C53.74727259460449 111.0944,52.981192594604494 111.96992,50.84711259460449 113.88512L48.740392594604494 115.8824C48.35735259460449 116.26544,48.275272594604495 116.26544,48.11111259460449 116.26544C47.86487259460449 116.26544,47.64599259460449 116.12864,47.563912594604496 115.90976L47.536552594604494 115.80032L47.536552594604494 104.50064L47.536552594604494 93.14624L47.563912594604496 93.0368C47.64599259460449 92.92736,47.75543259460449 92.7632,47.892232594604494 92.73584M51.12071259460449 106.41584C51.01127259460449 106.36112,50.84711259460449 106.36112,50.73767259460449 106.36112C50.65559259460449 106.36112,50.60087259460449 106.36112,50.54615259460449 106.36112C49.834792594604494 106.47056,49.20551259460449 106.90832,48.767752594604495 107.61968L48.65831259460449 107.8112L48.65831259460449 111.01232L48.65831259460449 114.26816L48.740392594604494 114.15872C50.73767259460449 111.96992,52.05095259460449 109.4528,52.05095259460449 107.78384L52.05095259460449 107.72912C52.05095259460449 106.90832,51.777352594604494 106.55264,51.12071259460449 106.41584"/><path stroke-width="0.3" fill="black" stroke="none" stroke-dasharray="none" font-family="Arial" font-size="10pt" font-weight="normal" font-style="normal" x="67.11111259460449" y="110" width="15.5" height="0.5" d="M58.11111259460449 100M64.04823259460449 85.36240000000001C64.13031259460449 85.30768,64.15767259460449 85.30768,64.2671125946045 85.30768C64.54071259460449 85.30768,64.7322325946045 85.41712,64.81431259460449 85.66336L64.84167259460449 85.74544L64.86903259460449 89.3296L64.86903259460449 92.94112L65.58039259460449 92.7496C65.99079259460449 92.64016,66.29175259460449 92.6128,66.48327259460449 92.6128C66.72951259460449 92.6128,66.83895259460449 92.69488,66.9210325946045 92.91376C66.94839259460448 92.99584,66.94839259460448 93.62512,66.94839259460448 94.30912000000001C66.94839259460448 94.96576,66.94839259460448 95.64976,66.9210325946045 95.67712C66.81159259460449 95.95072,66.72951259460449 95.97808,65.99079259460449 96.1696C65.06055259460449 96.41584,64.86903259460449 96.4432,64.86903259460449 96.4432C64.86903259460449 96.4432,64.86903259460449 97.15456,64.86903259460449 98.2216C64.86903259460449 98.60464,64.86903259460449 99.01504,64.86903259460449 99.4528L64.86903259460449 102.40768L65.58039259460449 102.21616C66.01815259460449 102.10672,66.29175259460449 102.07936,66.48327259460449 102.07936C66.6200725946045 102.07936,66.72951259460449 102.10672,66.81159259460449 102.21616C66.94839259460448 102.38032,66.94839259460448 102.35296,66.94839259460448 103.36528L66.94839259460448 103.77568L66.94839259460448 104.21344C66.94839259460448 105.22576,66.94839259460448 105.19839999999999,66.81159259460449 105.3352C66.70215259460448 105.44463999999999,66.72951259460449 105.44463999999999,65.4709525946045 105.7456C65.1973525946045 105.82768,64.9511125946045 105.90976,64.9237525946045 105.90976L64.86903259460449 105.90976L64.86903259460449 109.54864L64.84167259460449 113.21488L64.81431259460449 113.32432C64.7322325946045 113.5432,64.5133525946045 113.65264,64.2671125946045 113.65264C64.10295259460449 113.65264,63.85671259460449 113.5432,63.74727259460449 113.32432L63.719912594604494 113.21488L63.719912594604494 109.7128L63.719912594604494 106.21072L63.69255259460449 106.21072L63.06327259460449 106.37488L61.88679259460449 106.67584C61.58583259460449 106.75792,61.312232594604495 106.81264,61.312232594604495 106.81264C61.25751259460449 106.81264,61.25751259460449 107.00416,61.25751259460449 110.5336L61.25751259460449 114.30928L61.23015259460449 114.39135999999999C61.12071259460449 114.61024,60.90183259460449 114.71968,60.71031259460449 114.71968C60.49143259460449 114.71968,60.24519259460449 114.61024,60.13575259460449 114.39135999999999L60.108392594604496 114.30928L60.108392594604496 110.69776C60.108392594604496 107.35984,60.108392594604496 107.1136,60.081032594604494 107.1136C60.081032594604494 107.1136,60.081032594604494 107.1136,60.081032594604494 107.1136C59.78007259460449 107.19568,58.740392594604494 107.46928,58.630952594604494 107.46928C58.384712594604494 107.46928,58.22055259460449 107.30512,58.11111259460449 107.1136C58.11111259460449 107.00416,58.11111259460449 107.00416,58.11111259460449 105.71824L58.11111259460449 104.43232L58.138472594604494 104.32288C58.24791259460449 104.04928,58.24791259460449 104.04928,59.78007259460449 103.66624L60.108392594604496 103.58416L60.108392594604496 100.60192C60.108392594604496 97.83856,60.108392594604496 97.64704,60.081032594604494 97.64704C60.081032594604494 97.64704,60.081032594604494 97.64704,60.081032594604494 97.64704C59.78007259460449 97.72912,58.740392594604494 97.97536,58.630952594604494 97.97536C58.384712594604494 97.97536,58.22055259460449 97.83856,58.11111259460449 97.64704C58.11111259460449 97.5376,58.11111259460449 97.5376,58.11111259460449 96.25168L58.11111259460449 94.96576L58.138472594604494 94.85632C58.24791259460449 94.58272,58.24791259460449 94.58272,59.78007259460449 94.19968L60.108392594604496 94.1176L60.108392594604496 90.47872L60.108392594604496 86.83984L60.13575259460449 86.7304C60.24519259460449 86.53888,60.49143259460449 86.37472,60.71031259460449 86.37472C60.79239259460449 86.37472,60.84711259460449 86.42944,60.929192594604494 86.4568C61.03863259460449 86.48416,61.14807259460449 86.62096,61.23015259460449 86.7304L61.25751259460449 86.83984L61.25751259460449 90.34192L61.25751259460449 93.81664L61.421672594604495 93.81664C61.47639259460449 93.78928,61.96887259460449 93.67984,62.46135259460449 93.5704L63.52839259460449 93.24208L63.719912594604494 93.21472L63.719912594604494 89.49376L63.719912594604494 85.74544L63.74727259460449 85.66336C63.829352594604494 85.55392,63.91143259460449 85.41712,64.04823259460449 85.36240000000001M63.719912594604494 99.75376C63.719912594604494 98.0848,63.719912594604494 96.74416,63.719912594604494 96.74416L63.719912594604494 96.74416C63.69255259460449 96.74416,63.41895259460449 96.82624,63.09063259460449 96.90832L61.88679259460449 97.20928C61.58583259460449 97.29136,61.312232594604495 97.34608,61.312232594604495 97.34608C61.25751259460449 97.34608,61.25751259460449 97.51024,61.25751259460449 100.32832L61.25751259460449 103.33792L61.421672594604495 103.2832C61.47639259460449 103.25584,61.96887259460449 103.1464,62.46135259460449 103.03696L63.52839259460449 102.76336L63.719912594604494 102.68128L63.719912594604494 99.75376"/></g></g><g class="vf-stavenote"><g class="vf-note" pointer-events="bounding-box"><g class="vf-stem" pointer-events="bounding-box"><path stroke-width="1.5" fill="none" stroke="black" stroke-dasharray="none" font-family="Arial" font-size="10pt" font-weight="normal" font-style="normal" x="67.11111259460449" y="110" width="15.5" height="0.5" d="M329.4104125946045 97L329.4104125946045 139"/></g><g class="vf-notehead" pointer-events="bounding-box"><path stroke-width="0.3" fill="black" stroke="none" stroke-dasharray="none" font-family="Arial" font-size="10pt" font-weight="normal" font-style="normal" x="67.11111259460449" y="110" width="15.5" height="0.5" d="M328.6604125946045 105M335.2628125946045 100.3128C335.3636125946045 100.3128,335.5148125946045 100.3128,335.5400125946045 100.3128C335.5400125946045 100.3128,335.56521259460453 100.3128,335.56521259460453 100.3128C335.56521259460453 100.3128,335.7164125946045 100.3128,335.8424125946045 100.3128C338.1104125946045 100.4388,339.4460125946045 101.9256,339.4460125946045 103.7904C339.4460125946045 104.6976,339.1436125946045 105.7308,338.3876125946045 106.7136C336.9512125946045 108.654,334.6076125946045 109.7124,332.5664125946045 109.7124C330.9788125946045 109.7124,329.6180125946045 109.0824,328.9628125946045 107.7972C328.7612125946045 107.2932,328.6604125946045 106.8144,328.6604125946045 106.2852C328.6604125946045 103.5384,331.73481259460453 100.4892,335.2628125946045 100.3128"/></g><g class="vf-notehead" pointer-events="bounding-box"><path stroke-width="0.3" fill="black" stroke="none" stroke-dasharray="none" font-family="Arial" font-size="10pt" font-weight="normal" font-style="normal" x="67.11111259460449" y="110" width="15.5" height="0.5" d="M318.6604125946045 100M325.2628125946045 95.3128C325.3636125946045 95.3128,325.5148125946045 95.3128,325.5400125946045 95.3128C325.5400125946045 95.3128,325.56521259460453 95.3128,325.56521259460453 95.3128C325.56521259460453 95.3128,325.7164125946045 95.3128,325.8424125946045 95.3128C328.1104125946045 95.4388,329.4460125946045 96.9256,329.4460125946045 98.7904C329.4460125946045 99.6976,329.1436125946045 100.7308,328.3876125946045 101.7136C326.9512125946045 103.654,324.6076125946045 104.7124,322.5664125946045 104.7124C320.9788125946045 104.7124,319.6180125946045 104.0824,318.9628125946045 102.7972C318.7612125946045 102.2932,318.6604125946045 101.8144,318.6604125946045 101.2852C318.6604125946045 98.5384,321.73481259460453 95.4892,325.2628125946045 95.3128"/></g><g class="vf-notehead" pointer-events="bounding-box"><path stroke-width="0.3" fill="black" stroke="none" stroke-dasharray="none" font-family="Arial" font-size="10pt" font-weight="normal" font-style="normal" x="67.11111259460449" y="110" width="15.5" height="0.5" d="M328.6604125946045 95M335.2628125946045 90.3128C335.3636125946045 90.3128,335.5148125946045 90.3128,335.5400125946045 90.3128C335.5400125946045 90.3128,335.56521259460453 90.3128,335.56521259460453 90.3128C335.56521259460453 90.3128,335.7164125946045 90.3128,335.8424125946045 90.3128C338.1104125946045 90.4388,339.4460125946045 91.9256,339.4460125946045 93.7904C339.4460125946045 94.6976,339.1436125946045 95.7308,338.3876125946045 96.7136C336.9512125946045 98.654,334.6076125946045 99.7124,332.5664125946045 99.7124C330.9788125946045 99.7124,329.6180125946045 99.0824,328.9628125946045 97.7972C328.7612125946045 97.2932,328.6604125946045 96.8144,328.6604125946045 96.2852C328.6604125946045 93.5384,331.73481259460453 90.4892,335.2628125946045 90.3128"/></g><g class="vf-flag" pointer-events="bounding-box"><path stroke-width="0.3" fill="black" stroke="none" stroke-dasharray="none" font-family="Arial" font-size="10pt" font-weight="normal" font-style="normal" x="67.11111259460449" y="110" width="15.5" height="0.5" d="M329.6604125946045 139M335.4564125946045 113.0188C335.5068125946045 112.9936,335.58241259460453 112.9936,335.6580125946045 112.9936C335.8344125946045 112.9936,335.9856125946045 113.11959999999999,336.1872125946045 113.4472C337.9764125946045 116.1688,338.9088125946045 119.2936,338.9088125946045 122.3176C338.9088125946045 122.8468,338.9088125946045 123.35079999999999,338.8332125946045 123.8296C338.5308125946045 126.7024,337.3212125946045 129.32319999999999,335.5068125946045 131.0116C333.5664125946045 132.826,332.2560125946045 134.2876,331.0968125946045 135.976C330.4416125946045 136.8832,329.8116125946045 137.992,329.6352125946045 138.5464C329.5596125946045 138.7228,329.35801259460453 138.8992,329.18161259460453 138.8992L329.1312125946045 138.8992L329.1312125946045 134.9932L329.1312125946045 131.062L329.2572125946045 131.062C329.9124125946045 131.062,331.22281259460453 130.8352,332.0796125946045 130.558C335.3808125946045 129.424,337.5984125946045 125.7196,337.5984125946045 121.486C337.5984125946045 121.1332,337.5732125946045 120.7552,337.54801259460453 120.4024C337.3212125946045 118.21000000000001,336.5400125946045 115.9168,335.3052125946045 114.02680000000001C335.1792125946045 113.8252,335.1036125946045 113.6236,335.1036125946045 113.4724C335.1036125946045 113.27080000000001,335.2044125946045 113.09440000000001,335.4564125946045 113.0188"/></g></g><g class="vf-modifiers"/></g><rect stroke-width="0.3" fill="black" stroke="black" stroke-dasharray="none" font-family="Arial" font-size="10pt" font-weight="normal" font-style="normal" x="391.55562194595336" y="110" width="15.5" height="0.5"/><g class="vf-stavenote"><g class="vf-note" pointer-events="bounding-box"><g class="vf-stem" pointer-events="bounding-box"><path stroke-width="1.5" fill="none" stroke="black" stroke-dasharray="none" font-family="Arial" font-size="10pt" font-weight="normal" font-style="normal" x="391.55562194595336" y="110" width="15.5" height="0.5" d="M395.30562194595336 87L395.30562194595336 144"/></g><g class="vf-notehead" pointer-events="bounding-box"><rect stroke-width="0.3" fill="black" stroke="black" stroke-dasharray="none" font-family="Arial" font-size="10pt" font-weight="normal" font-style="normal" x="391.55562194595336" y="110" width="15.5" height="0.5"/><path stroke-width="0.3" fill="black" stroke="none" stroke-dasharray="none" font-family="Arial" font-size="10pt" font-weight="normal" font-style="normal" x="391.55562194595336" y="110" width="15.5" height="0.5" d="M394.55562194595336 110M401.15802194595335 105.3128C401.25882194595334 105.3128,401.41002194595336 105.3128,401.43522194595334 105.3128C401.43522194595334 105.3128,401.4604219459534 105.3128,401.4604219459534 105.3128C401.4604219459534 105.3128,401.61162194595335 105.3128,401.7376219459534 105.3128C404.00562194595335 105.4388,405.34122194595335 106.9256,405.34122194595335 108.7904C405.34122194595335 109.6976,405.0388219459534 110.7308,404.28282194595334 111.7136C402.84642194595335 113.654,400.5028219459534 114.7124,398.46162194595337 114.7124C396.87402194595336 114.7124,395.5132219459534 114.0824,394.85802194595334 112.7972C394.65642194595335 112.2932,394.55562194595336 111.8144,394.55562194595336 111.2852C394.55562194595336 108.5384,397.6300219459534 105.4892,401.15802194595335 105.3128"/></g><g class="vf-notehead" pointer-events="bounding-box"><path stroke-width="0.3" fill="black" stroke="none" stroke-dasharray="none" font-family="Arial" font-size="10pt" font-weight="normal" font-style="normal" x="391.55562194595336" y="110" width="15.5" height="0.5" d="M394.55562194595336 95M401.15802194595335 90.3128C401.25882194595334 90.3128,401.41002194595336 90.3128,401.43522194595334 90.3128C401.43522194595334 90.3128,401.4604219459534 90.3128,401.4604219459534 90.3128C401.4604219459534 90.3128,401.61162194595335 90.3128,401.7376219459534 90.3128C404.00562194595335 90.4388,405.34122194595335 91.9256,405.34122194595335 93.7904C405.34122194595335 94.6976,405.0388219459534 95.7308,404.28282194595334 96.7136C402.84642194595335 98.654,400.5028219459534 99.7124,398.46162194595337 99.7124C396.87402194595336 99.7124,395.5132219459534 99.0824,394.85802194595334 97.7972C394.65642194595335 97.2932,394.55562194595336 96.8144,394.55562194595336 96.2852C394.55562194595336 93.5384,397.6300219459534 90.4892,401.15802194595335 90.3128"/></g><g class="vf-notehead" pointer-events="bounding-box"><path stroke-width="0.3" fill="black" stroke="none" stroke-dasharray="none" font-family="Arial" font-size="10pt" font-weight="normal" font-style="normal" x="391.55562194595336" y="110" width="15.5" height="0.5" d="M394.55562194595336 85M401.15802194595335 80.3128C401.25882194595334 80.3128,401.41002194595336 80.3128,401.43522194595334 80.3128C401.43522194595334 80.3128,401.4604219459534 80.3128,401.4604219459534 80.3128C401.4604219459534 80.3128,401.61162194595335 80.3128,401.7376219459534 80.3128C404.00562194595335 80.4388,405.34122194595335 81.9256,405.34122194595335 83.7904C405.34122194595335 84.6976,405.0388219459534 85.7308,404.28282194595334 86.7136C402.84642194595335 88.654,400.5028219459534 89.7124,398.46162194595337 89.7124C396.87402194595336 89.7124,395.5132219459534 89.0824,394.85802194595334 87.7972C394.65642194595335 87.2932,394.55562194595336 86.8144,394.55562194595336 86.2852C394.55562194595336 83.5384,397.6300219459534 80.4892,401.15802194595335 80.3128"/></g><g class="vf-flag" pointer-events="bounding-box"><path stroke-width="0.3" fill="black" stroke="none" stroke-dasharray="none" font-family="Arial" font-size="10pt" font-weight="normal" font-style="normal" x="391.55562194595336" y="110" width="15.5" height="0.5" d="M395.55562194595336 144M401.35162194595335 118.0188C401.4020219459534 117.9936,401.4776219459534 117.9936,401.55322194595334 117.9936C401.72962194595334 117.9936,401.88082194595336 118.11959999999999,402.08242194595334 118.4472C403.87162194595334 121.1688,404.80402194595337 124.2936,404.80402194595337 127.3176C404.80402194595337 127.8468,404.80402194595337 128.3508,404.72842194595336 128.8296C404.4260219459534 131.7024,403.21642194595336 134.32319999999999,401.4020219459534 136.0116C399.46162194595337 137.826,398.15122194595335 139.2876,396.99202194595335 140.976C396.3368219459534 141.8832,395.7068219459534 142.992,395.5304219459534 143.5464C395.45482194595337 143.7228,395.2532219459534 143.8992,395.0768219459534 143.8992L395.02642194595336 143.8992L395.02642194595336 139.9932L395.02642194595336 136.062L395.15242194595334 136.062C395.8076219459534 136.062,397.1180219459534 135.8352,397.97482194595335 135.558C401.27602194595335 134.424,403.49362194595335 130.7196,403.49362194595335 126.486C403.49362194595335 126.1332,403.46842194595337 125.7552,403.4432219459534 125.4024C403.21642194595336 123.21000000000001,402.43522194595334 120.9168,401.20042194595334 119.02680000000001C401.07442194595336 118.8252,400.99882194595335 118.6236,400.99882194595335 118.4724C400.99882194595335 118.27080000000001,401.09962194595334 118.09440000000001,401.35162194595335 118.0188"/></g></g><g class="vf-modifiers"/></g><rect stroke-width="0.3" fill="black" stroke="black" stroke-dasharray="none" font-family="Arial" font-size="10pt" font-weight="normal" font-style="normal" x="486.61818129730227" y="110" width="15.5" height="0.5"/><g class="vf-stavenote"><g class="vf-note" pointer-events="bounding-box"><g class="vf-stem" pointer-events="bounding-box"><path stroke-width="1.5" fill="none" stroke="black" stroke-dasharray="none" font-family="Arial" font-size="10pt" font-weight="normal" font-style="normal" x="486.61818129730227" y="110" width="15.5" height="0.5" d="M490.36818129730227 87L490.36818129730227 144"/></g><g class="vf-notehead" pointer-events="bounding-box"><rect stroke-width="0.3" fill="black" stroke="black" stroke-dasharray="none" font-family="Arial" font-size="10pt" font-weight="normal" font-style="normal" x="486.61818129730227" y="110" width="15.5" height="0.5"/><path stroke-width="0.3" fill="black" stroke="none" stroke-dasharray="none" font-family="Arial" font-size="10pt" font-weight="normal" font-style="normal" x="486.61818129730227" y="110" width="15.5" height="0.5" d="M489.61818129730227 110M496.22058129730226 105.3128C496.32138129730225 105.3128,496.47258129730227 105.3128,496.49778129730225 105.3128C496.49778129730225 105.3128,496.5229812973023 105.3128,496.5229812973023 105.3128C496.5229812973023 105.3128,496.67418129730225 105.3128,496.8001812973023 105.3128C499.06818129730226 105.4388,500.40378129730226 106.9256,500.40378129730226 108.7904C500.40378129730226 109.6976,500.1013812973023 110.7308,499.34538129730225 111.7136C497.90898129730226 113.654,495.5653812973023 114.7124,493.5241812973023 114.7124C491.93658129730227 114.7124,490.5757812973023 114.0824,489.92058129730225 112.7972C489.71898129730226 112.2932,489.61818129730227 111.8144,489.61818129730227 111.2852C489.61818129730227 108.5384,492.6925812973023 105.4892,496.22058129730226 105.3128"/></g><g class="vf-notehead" pointer-events="bounding-box"><path stroke-width="0.3" fill="black" stroke="none" stroke-dasharray="none" font-family="Arial" font-size="10pt" font-weight="normal" font-style="normal" x="486.61818129730227" y="110" width="15.5" height="0.5" d="M489.61818129730227 95M496.22058129730226 90.3128C496.32138129730225 90.3128,496.47258129730227 90.3128,496.49778129730225 90.3128C496.49778129730225 90.3128,496.5229812973023 90.3128,496.5229812973023 90.3128C496.5229812973023 90.3128,496.67418129730225 90.3128,496.8001812973023 90.3128C499.06818129730226 90.4388,500.40378129730226 91.9256,500.40378129730226 93.7904C500.40378129730226 94.6976,500.1013812973023 95.7308,499.34538129730225 96.7136C497.90898129730226 98.654,495.5653812973023 99.7124,493.5241812973023 99.7124C491.93658129730227 99.7124,490.5757812973023 99.0824,489.92058129730225 97.7972C489.71898129730226 97.2932,489.61818129730227 96.8144,489.61818129730227 96.2852C489.61818129730227 93.5384,492.6925812973023 90.4892,496.22058129730226 90.3128"/></g><g class="vf-notehead" pointer-events="bounding-box"><path stroke-width="0.3" fill="black" stroke="none" stroke-dasharray="none" font-family="Arial" font-size="10pt" font-weight="normal" font-style="normal" x="486.61818129730227" y="110" width="15.5" height="0.5" d="M489.61818129730227 85M496.22058129730226 80.3128C496.32138129730225 80.3128,496.47258129730227 80.3128,496.49778129730225 80.3128C496.49778129730225 80.3128,496.5229812973023 80.3128,496.5229812973023 80.3128C496.5229812973023 80.3128,496.67418129730225 80.3128,496.8001812973023 80.3128C499.06818129730226 80.4388,500.40378129730226 81.9256,500.40378129730226 83.7904C500.40378129730226 84.6976,500.1013812973023 85.7308,499.34538129730225 86.7136C497.90898129730226 88.654,495.5653812973023 89.7124,493.5241812973023 89.7124C491.93658129730227 89.7124,490.5757812973023 89.0824,489.92058129730225 87.7972C489.71898129730226 87.2932,489.61818129730227 86.8144,489.61818129730227 86.2852C489.61818129730227 83.5384,492.6925812973023 80.4892,496.22058129730226 80.3128"/></g><g class="vf-flag" pointer-events="bounding-box"><path stroke-width="0.3" fill="black" stroke="none" stroke-dasharray="none" font-family="Arial" font-size="10pt" font-weight="normal" font-style="normal" x="486.61818129730227" y="110" width="15.5" height="0.5" d="M490.61818129730227 144M496.41418129730226 118.0188C496.4645812973023 117.9936,496.5401812973023 117.9936,496.61578129730225 117.9936C496.79218129730225 117.9936,496.94338129730227 118.11959999999999,497.14498129730225 118.4472C498.93418129730225 121.1688,499.8665812973023 124.2936,499.8665812973023 127.3176C499.8665812973023 127.8468,499.8665812973023 128.3508,499.79098129730227 128.8296C499.4885812973023 131.7024,498.27898129730227 134.32319999999999,496.4645812973023 136.0116C494.5241812973023 137.826,493.21378129730226 139.2876,492.05458129730226 140.976C491.3993812973023 141.8832,490.7693812973023 142.992,490.5929812973023 143.5464C490.5173812973023 143.7228,490.3157812973023 143.8992,490.1393812973023 143.8992L490.08898129730227 143.8992L490.08898129730227 139.9932L490.08898129730227 136.062L490.21498129730224 136.062C490.8701812973023 136.062,492.1805812973023 135.8352,493.03738129730226 135.558C496.33858129730226 134.424,498.55618129730226 130.7196,498.55618129730226 126.486C498.55618129730226 126.1332,498.5309812973023 125.7552,498.5057812973023 125.4024C498.27898129730227 123.21000000000001,497.49778129730225 120.9168,496.26298129730225 119.02680000000001C496.13698129730227 118.8252,496.06138129730226 118.6236,496.06138129730226 118.4724C496.06138129730226 118.27080000000001,496.16218129730225 118.09440000000001,496.41418129730226 118.0188"/></g></g><g class="vf-modifiers"/></g><rect stroke-width="0.3" fill="black" stroke="black" stroke-dasharray="none" font-family="Arial" font-size="10pt" font-weight="normal" font-style="normal" x="548.3580906486511" y="110" width="15.5" height="0.5"/><g class="vf-stavenote"><g class="vf-note" pointer-events="bounding-box"><g class="vf-stem" pointer-events="bounding-box"><path stroke-width="1.5" fill="none" stroke="black" stroke-dasharray="none" font-family="Arial" font-size="10pt" font-weight="normal" font-style="normal" x="548.3580906486511" y="110" width="15.5" height="0.5" d="M552.1080906486511 87L552.1080906486511 144"/></g><g class="vf-notehead" pointer-events="bounding-box"><rect stroke-width="0.3" fill="black" stroke="black" stroke-dasharray="none" font-family="Arial" font-size="10pt" font-weight="normal" font-style="normal" x="548.3580906486511" y="110" width="15.5" height="0.5"/><path stroke-width="0.3" fill="black" stroke="none" stroke-dasharray="none" font-family="Arial" font-size="10pt" font-weight="normal" font-style="normal" x="548.3580906486511" y="110" width="15.5" height="0.5" d="M551.3580906486511 110M557.9604906486511 105.3128C558.0612906486512 105.3128,558.2124906486512 105.3128,558.2376906486511 105.3128C558.2376906486511 105.3128,558.2628906486511 105.3128,558.2628906486511 105.3128C558.2628906486511 105.3128,558.4140906486512 105.3128,558.5400906486511 105.3128C560.8080906486512 105.4388,562.1436906486512 106.9256,562.1436906486512 108.7904C562.1436906486512 109.6976,561.8412906486511 110.7308,561.0852906486512 111.7136C559.6488906486511 113.654,557.3052906486511 114.7124,555.2640906486511 114.7124C553.6764906486511 114.7124,552.3156906486511 114.0824,551.6604906486511 112.7972C551.4588906486512 112.2932,551.3580906486511 111.8144,551.3580906486511 111.2852C551.3580906486511 108.5384,554.4324906486511 105.4892,557.9604906486511 105.3128"/></g><g class="vf-notehead" pointer-events="bounding-box"><path stroke-width="0.3" fill="black" stroke="none" stroke-dasharray="none" font-family="Arial" font-size="10pt" font-weight="normal" font-style="normal" x="548.3580906486511" y="110" width="15.5" height="0.5" d="M551.3580906486511 95M557.9604906486511 90.3128C558.0612906486512 90.3128,558.2124906486512 90.3128,558.2376906486511 90.3128C558.2376906486511 90.3128,558.2628906486511 90.3128,558.2628906486511 90.3128C558.2628906486511 90.3128,558.4140906486512 90.3128,558.5400906486511 90.3128C560.8080906486512 90.4388,562.1436906486512 91.9256,562.1436906486512 93.7904C562.1436906486512 94.6976,561.8412906486511 95.7308,561.0852906486512 96.7136C559.6488906486511 98.654,557.3052906486511 99.7124,555.2640906486511 99.7124C553.6764906486511 99.7124,552.3156906486511 99.0824,551.6604906486511 97.7972C551.4588906486512 97.2932,551.3580906486511 96.8144,551.3580906486511 96.2852C551.3580906486511 93.5384,554.4324906486511 90.4892,557.9604906486511 90.3128"/></g><g class="vf-notehead" pointer-events="bounding-box"><path stroke-width="0.3" fill="black" stroke="none" stroke-dasharray="none" font-family="Arial" font-size="10pt" font-weight="normal" font-style="normal" x="548.3580906486511" y="110" width="15.5" height="0.5" d="M551.3580906486511 85M557.9604906486511 80.3128C558.0612906486512 80.3128,558.2124906486512 80.3128,558.2376906486511 80.3128C558.2376906486511 80.3128,558.2628906486511 80.3128,558.2628906486511 80.3128C558.2628906486511 80.3128,558.4140906486512 80.3128,558.5400906486511 80.3128C560.8080906486512 80.4388,562.1436906486512 81.9256,562.1436906486512 83.7904C562.1436906486512 84.6976,561.8412906486511 85.7308,561.0852906486512 86.7136C559.6488906486511 88.654,557.3052906486511 89.7124,555.2640906486511 89.7124C553.6764906486511 89.7124,552.3156906486511 89.0824,551.6604906486511 87.7972C551.4588906486512 87.2932,551.3580906486511 86.8144,551.3580906486511 86.2852C551.3580906486511 83.5384,554.4324906486511 80.4892,557.9604906486511 80.3128"/></g><g class="vf-flag" pointer-events="bounding-box"><path stroke-width="0.3" fill="black" stroke="none" stroke-dasharray="none" font-family="Arial" font-size="10pt" font-weight="normal" font-style="normal" x="548.3580906486511" y="110" width="15.5" height="0.5" d="M552.3580906486511 144M558.1540906486512 118.0188C558.2044906486511 117.9936,558.2800906486511 117.9936,558.3556906486511 117.9936C558.5320906486511 117.9936,558.6832906486511 118.11959999999999,558.8848906486511 118.4472C560.6740906486511 121.1688,561.6064906486511 124.2936,561.6064906486511 127.3176C561.6064906486511 127.8468,561.6064906486511 128.3508,561.5308906486512 128.8296C561.2284906486511 131.7024,560.0188906486511 134.32319999999999,558.2044906486511 136.0116C556.2640906486511 137.826,554.9536906486511 139.2876,553.7944906486512 140.976C553.1392906486511 141.8832,552.5092906486511 142.992,552.3328906486511 143.5464C552.2572906486511 143.7228,552.0556906486511 143.8992,551.8792906486511 143.8992L551.8288906486512 143.8992L551.8288906486512 139.9932L551.8288906486512 136.062L551.9548906486511 136.062C552.6100906486511 136.062,553.9204906486511 135.8352,554.7772906486512 135.558C558.0784906486512 134.424,560.2960906486511 130.7196,560.2960906486511 126.486C560.2960906486511 126.1332,560.2708906486511 125.7552,560.2456906486511 125.4024C560.0188906486511 123.21000000000001,559.2376906486511 120.9168,558.0028906486511 119.02680000000001C557.8768906486512 118.8252,557.8012906486512 118.6236,557.8012906486512 118.4724C557.8012906486512 118.27080000000001,557.9020906486511 118.09440000000001,558.1540906486512 118.0188"/></g></g><g class="vf-modifiers"/></g><text stroke-width="0.3" fill="black" stroke="none" stroke-dasharray="none" font-family="Arial" font-size="12pt" font-weight="normal" font-style="normal" x="38" y="29" width="15.5" height="0.5">Center</text><path stroke-width="0.3" fill="black" stroke="none" stroke-dasharray="none" font-family="Arial" font-size="10pt" font-weight="normal" font-style="normal" x="548.3580906486511" y="110" width="15.5" height="0.5" d="M133.95008454055787 29M147.19808454055786 12.468800000000002C147.22688454055788 12.468800000000002,147.25568454055787 12.468800000000002,147.31328454055787 12.468800000000002C147.48608454055787 12.468800000000002,147.80288454055787 12.468800000000002,148.00448454055785 12.468800000000002C148.09088454055788 12.468800000000002,148.29248454055787 12.468800000000002,148.35008454055787 12.497600000000002C149.58848454055786 12.584,150.88448454055788 13.505600000000001,151.05728454055787 14.5136C151.11488454055785 14.6576,151.14368454055787 14.7728,151.14368454055787 14.9456C151.14368454055787 16.0688,150.19328454055787 16.9904,149.15648454055787 16.9904C148.89728454055788 16.9904,148.63808454055786 16.9328,148.40768454055785 16.8176C147.68768454055788 16.500799999999998,147.34208454055786 15.8096,147.34208454055786 15.1472C147.34208454055786 14.6288,147.54368454055788 14.1392,148.00448454055785 13.7936C148.06208454055786 13.736,148.06208454055786 13.736,148.06208454055786 13.736C148.06208454055786 13.736,148.06208454055786 13.736,148.06208454055786 13.736C148.00448454055785 13.736,147.63008454055787 13.9376,147.42848454055786 14.1104C146.01728454055785 15.032,144.80768454055786 16.904,144.00128454055786 19.208C143.97248454055787 19.3808,143.94368454055785 19.496000000000002,143.94368454055785 19.496000000000002C143.94368454055785 19.5536,144.40448454055786 19.5536,144.98048454055788 19.5536C146.13248454055787 19.5536,146.16128454055786 19.5536,146.27648454055787 19.6112C146.56448454055786 19.784,146.67968454055787 20.014400000000002,146.67968454055787 20.3024C146.67968454055787 20.5328,146.56448454055786 20.792,146.33408454055785 20.9072C146.16128454055786 21.0224,146.21888454055787 21.0512,145.03808454055786 21.0512L144.80768454055786 21.0512L143.51168454055787 21.0512L143.45408454055786 21.2528C142.67648454055788 25.3712,141.15008454055786 29.2592,139.07648454055786 32.3696C137.66528454055788 34.5872,135.93728454055787 35.8256,133.97888454055786 36.1712C133.77728454055787 36.2288,133.57568454055786 36.2288,133.37408454055787 36.2288C132.07808454055788 36.2288,131.07008454055787 35.5376,130.66688454055787 34.3856C130.58048454055788 34.0976,130.55168454055786 33.7808,130.55168454055786 33.4928C130.55168454055786 32.3408,131.32928454055786 31.4192,132.48128454055788 31.4192C132.62528454055786 31.4192,132.82688454055787 31.4768,133.05728454055787 31.5056C133.95008454055787 31.736,134.41088454055787 32.5712,134.41088454055787 33.3776C134.41088454055787 33.9824,134.18048454055787 34.5872,133.60448454055788 34.903999999999996C133.54688454055787 34.9328,133.48928454055786 34.9904,133.48928454055786 34.9904C133.48928454055786 34.9904,133.54688454055787 34.9904,133.54688454055787 34.9904C133.54688454055787 34.9904,133.60448454055788 34.9904,133.69088454055787 34.9328C134.61248454055786 34.6736,135.50528454055788 33.7808,136.08128454055787 32.5712C136.77248454055785 31.275199999999998,137.55008454055786 28.3664,138.90368454055786 22.5488C139.07648454055786 21.7424,139.22048454055786 21.108800000000002,139.27808454055787 21.0512C139.27808454055787 21.0512,139.27808454055787 21.0512,139.27808454055787 21.0512C139.27808454055787 21.0512,139.16288454055785 21.0512,138.01088454055787 21.0512C136.71488454055788 21.0512,136.71488454055788 21.0512,136.57088454055787 20.936C136.34048454055787 20.792,136.16768454055787 20.5328,136.16768454055787 20.3024C136.16768454055787 20.014400000000002,136.34048454055787 19.784,136.57088454055787 19.6112C136.68608454055786 19.5536,136.71488454055788 19.5536,138.21248454055785 19.5536L139.65248454055788 19.496000000000002L139.76768454055787 19.1792C141.12128454055787 15.377600000000001,144.05888454055787 12.699200000000001,147.19808454055786 12.468800000000002"/><path stroke-width="0.3" fill="black" stroke="none" stroke-dasharray="none" font-family="Arial" font-size="10pt" font-weight="normal" font-style="normal" x="548.3580906486511" y="110" width="15.5" height="0.5" d="M197.29739389190675 29M202.62539389190675 17.9696C202.68299389190676 17.9696,202.79819389190675 17.9408,202.94219389190675 17.9408C203.92139389190675 17.9408,204.75659389190676 18.488,205.27499389190675 19.3808C205.39019389190676 19.6688,205.59179389190675 20.1872,205.59179389190675 20.331200000000003C205.59179389190675 20.4176,205.59179389190675 20.4464,205.59179389190675 20.4464C205.62059389190676 20.4464,205.67819389190674 20.3888,205.76459389190674 20.3024C206.59979389190676 19.2656,207.86699389190676 18.4304,208.64459389190674 18.344C208.75979389190675 18.344,208.84619389190675 18.3152,208.93259389190675 18.3152C210.34379389190676 18.3152,211.63979389190675 19.5536,211.98539389190674 21.1664C212.07179389190674 21.4544,212.07179389190674 21.7712,212.07179389190674 22.1744C212.07179389190674 22.7504,212.01419389190676 23.470399999999998,211.89899389190674 24.0464C211.32299389190675 27.3008,209.16299389190675 29.7488,206.68619389190675 29.9792C206.57099389190674 30.0368,206.45579389190675 30.0368,206.34059389190676 30.0368C205.87979389190676 30.0368,205.44779389190674 29.8928,205.18859389190675 29.6912L204.92939389190676 29.4608C204.38219389190675 29.0288,203.97899389190675 28.424,203.74859389190675 27.7328C203.74859389190675 27.6464,203.71979389190676 27.5888,203.71979389190676 27.5888C203.71979389190676 27.5888,203.71979389190676 27.5888,203.71979389190676 27.5888C203.66219389190675 27.6176,201.58859389190675 34.5872,201.58859389190675 34.6736C201.58859389190675 34.6736,201.58859389190675 34.7024,201.58859389190675 34.7024C201.58859389190675 34.8176,201.76139389190675 34.903999999999996,202.19339389190674 35.048C202.30859389190675 35.048,202.33739389190674 35.1056,202.68299389190676 35.192C203.08619389190676 35.3072,203.17259389190676 35.3936,203.17259389190676 35.6528C203.17259389190676 35.912,203.11499389190675 35.9696,202.97099389190674 36.056L202.88459389190675 36.1424L199.48619389190674 36.1424L196.08779389190676 36.1424L195.97259389190674 36.056C195.82859389190676 35.9696,195.77099389190676 35.912,195.77099389190676 35.6528C195.77099389190676 35.3936,195.88619389190674 35.2496,196.28939389190674 35.192C196.69259389190674 35.1056,196.72139389190676 35.1056,196.92299389190674 35.048C197.00939389190674 35.0192,197.06699389190675 34.9904,197.12459389190676 34.9904C197.12459389190676 34.9904,197.23979389190674 34.9328,197.29739389190675 34.9328C197.67179389190676 34.7888,197.90219389190676 34.616,198.01739389190675 34.4144C198.10379389190675 34.2704,201.99179389190675 21.0512,201.99179389190675 20.936C201.99179389190675 20.849600000000002,202.02059389190674 20.7344,202.07819389190675 20.6192C202.10699389190674 20.503999999999998,202.10699389190674 20.3888,202.10699389190674 20.3024C202.10699389190674 19.928,201.93419389190674 19.6688,201.76139389190675 19.6688C201.76139389190675 19.6688,201.76139389190675 19.6688,201.76139389190675 19.6688C200.89739389190675 19.726399999999998,199.74539389190676 20.936,199.16939389190674 22.376C199.05419389190675 22.7504,198.96779389190675 22.808,198.82379389190675 22.808C198.82379389190675 22.808,198.76619389190674 22.808,198.76619389190674 22.808C198.62219389190676 22.808,198.50699389190675 22.7504,198.50699389190675 22.5488C198.50699389190675 22.3472,198.65099389190675 21.9728,198.93899389190676 21.4256C199.51499389190676 20.216,200.29259389190676 19.2944,201.32939389190676 18.631999999999998C201.44459389190675 18.488,201.58859389190675 18.372799999999998,201.67499389190675 18.344C201.81899389190676 18.1712,202.25099389190675 18.0272,202.62539389190675 17.9696M208.06859389190674 20.1872C207.98219389190675 20.1296,207.89579389190675 20.1296,207.83819389190674 20.1296C207.31979389190676 20.1296,206.54219389190675 20.5328,205.93739389190677 21.1376C205.59179389190675 21.4544,205.56299389190676 21.5408,205.47659389190676 21.6848C205.44779389190674 21.8288,205.39019389190676 21.944,205.36139389190674 22.0304C205.33259389190675 22.088,205.07339389190676 22.8656,204.69899389190675 24.1328L204.09419389190674 26.177599999999998L204.09419389190674 26.3216C204.15179389190675 26.7824,204.29579389190675 27.2432,204.52619389190676 27.6176C204.72779389190674 27.9344,205.13099389190674 28.2224,205.33259389190675 28.2224C205.33259389190675 28.2224,205.36139389190674 28.2224,205.39019389190676 28.2224C205.39019389190676 28.2224,205.56299389190676 28.136,205.67819389190674 28.1072C206.91659389190676 27.5024,208.18379389190676 25.8608,208.70219389190675 24.104C208.87499389190674 23.3264,208.99019389190676 22.5488,208.99019389190676 21.886400000000002C208.99019389190676 21.5408,208.96139389190674 21.224,208.84619389190675 21.0224C208.73099389190676 20.648,208.32779389190677 20.273600000000002,208.06859389190674 20.1872"/><path stroke-width="0.3" fill="black" stroke="none" stroke-dasharray="none" font-family="Arial" font-size="10pt" font-weight="normal" font-style="normal" x="548.3580906486511" y="110" width="15.5" height="0.5" d="M257.9789032432556 29M263.2493032432556 18.1712C263.3069032432556 18.1712,263.3645032432556 18.1712,263.4221032432556 18.1712C263.65250324325564 18.1712,263.96930324325564 18.1712,264.0845032432556 18.2288C264.7181032432556 18.372799999999998,265.26530324325563 18.776,265.6109032432556 19.2944C265.6973032432556 19.4672,265.8413032432556 19.784,265.87010324325564 19.8704C265.87010324325564 19.8704,265.87010324325564 19.8992,265.87010324325564 19.8992C265.9277032432556 19.8992,265.9277032432556 19.812800000000003,266.04290324325564 19.6976C266.2733032432556 19.2944,266.5901032432556 18.977600000000002,266.9357032432556 18.6896C267.0509032432556 18.631999999999998,267.1373032432556 18.488,267.16610324325563 18.459200000000003C267.3677032432556 18.2576,267.7709032432556 18.1712,268.2317032432556 18.1712C268.4621032432556 18.1712,268.75010324325564 18.2288,268.9805032432556 18.3152C269.4989032432556 18.459200000000003,269.9885032432556 18.8624,270.3053032432556 19.2944C270.3917032432556 19.4672,270.5357032432556 19.784,270.5357032432556 19.8704C270.5357032432556 19.8704,270.5357032432556 19.8992,270.5933032432556 19.8992C270.5933032432556 19.8992,270.6221032432556 19.812800000000003,270.7085032432556 19.6976C270.96770324325564 19.2944,271.28450324325564 18.977600000000002,271.6589032432556 18.6896C271.7165032432556 18.631999999999998,271.8317032432556 18.488,271.8893032432556 18.459200000000003C272.0333032432556 18.2576,272.4653032432556 18.1712,272.89730324325564 18.1712C273.1853032432556 18.1712,273.4157032432556 18.1712,273.6461032432556 18.2576C274.65410324325563 18.631999999999998,275.3741032432556 19.6112,275.3741032432556 20.792C275.3741032432556 21.1376,275.28770324325563 21.5696,275.1725032432556 21.8288C275.14370324325563 21.886400000000002,273.6461032432556 26.984,273.6173032432556 27.1856C273.6173032432556 27.2432,273.5597032432556 27.416,273.5597032432556 27.4448C273.53090324325564 27.5312,273.53090324325564 27.6464,273.53090324325564 27.7328C273.53090324325564 28.0496,273.67490324325564 28.3376,273.8765032432556 28.3376C273.8765032432556 28.3376,273.8765032432556 28.3376,273.8765032432556 28.3376C274.8557032432556 28.1648,276.0365032432556 26.9264,276.6125032432556 25.3712C276.72770324325563 25.0832,276.7853032432556 25.0256,276.9293032432556 25.0256C276.9869032432556 25.0256,276.9869032432556 25.0256,276.9869032432556 25.0256C277.1597032432556 25.0544,277.2461032432556 25.0832,277.2461032432556 25.2848C277.2461032432556 25.4864,277.1309032432556 25.8608,276.8141032432556 26.465600000000002C276.1517032432556 27.7616,275.3165032432556 28.7408,274.16450324325564 29.3456L273.7901032432556 29.5472C273.53090324325564 29.6912,273.2429032432556 29.7776,272.9837032432556 29.7776C272.09090324325564 29.7776,271.1693032432556 29.1152,270.8525032432556 28.136C270.7949032432556 27.9056,270.7373032432556 27.6176,270.7373032432556 27.3296C270.7373032432556 26.9264,270.82370324325564 26.5808,270.9389032432556 26.3216C271.0253032432556 26.2064,272.4941032432556 21.1664,272.4941032432556 20.9936C272.5517032432556 20.849600000000002,272.5517032432556 20.7344,272.58050324325563 20.7056C272.58050324325563 20.590400000000002,272.6381032432556 20.503999999999998,272.6381032432556 20.4176C272.6381032432556 20.072000000000003,272.43650324325563 19.784,272.11970324325563 19.6112C272.09090324325564 19.5824,272.0333032432556 19.5824,272.0045032432556 19.5824C271.9181032432556 19.5824,271.8893032432556 19.6112,271.77410324325564 19.6688C271.28450324325564 19.8992,270.7373032432556 20.7056,270.67970324325563 21.224C270.67970324325563 21.368000000000002,270.5357032432556 21.6848,270.50690324325564 21.8288C270.4781032432556 21.8576,270.04610324325563 23.384,269.4413032432556 25.3424C268.89410324325564 27.2432,268.4045032432556 28.856,268.4045032432556 28.8848C268.3181032432556 29.0288,268.4045032432556 29.0288,267.4253032432556 29.0288C267.2813032432556 29.0288,267.16610324325563 29.0288,267.02210324325563 29.0288C266.9069032432556 29.0288,266.7917032432556 29.0288,266.67650324325564 29.0288C265.6397032432556 29.0288,265.72610324325564 29.0288,265.6397032432556 28.8848C265.6109032432556 28.856,265.6109032432556 28.856,265.6109032432556 28.8272C265.6109032432556 28.6256,265.8125032432556 28.0208,266.7053032432556 24.852800000000002C267.33890324325563 22.7792,267.8573032432556 21.0512,267.8573032432556 20.9936C267.8573032432556 20.9072,267.8861032432556 20.792,267.8861032432556 20.7056C267.9149032432556 20.6192,267.9149032432556 20.503999999999998,267.9149032432556 20.4176C267.9149032432556 20.072000000000003,267.7709032432556 19.784,267.48290324325563 19.6112C267.4253032432556 19.5824,267.33890324325563 19.5824,267.2813032432556 19.5824C267.2525032432556 19.5824,267.2237032432556 19.6112,267.1085032432556 19.6688C266.6189032432556 19.8992,266.0717032432556 20.7056,266.0141032432556 21.224C266.0141032432556 21.368000000000002,265.87010324325564 21.6848,265.8413032432556 21.8288C265.8125032432556 21.8576,265.3229032432556 23.384,264.77570324325563 25.3424C264.1997032432556 27.2432,263.7389032432556 28.856,263.7389032432556 28.8848C263.65250324325564 29.0288,263.6813032432556 29.0288,262.70210324325564 29.0288C262.6157032432556 29.0288,262.4717032432556 29.0288,262.3277032432556 29.0288C262.21250324325564 29.0288,262.06850324325563 29.0288,262.0109032432556 29.0288C260.9741032432556 29.0288,261.0317032432556 29.0288,260.94530324325564 28.8848C260.94530324325564 28.856,260.94530324325564 28.856,260.94530324325564 28.8272C260.94530324325564 28.6256,261.08930324325564 28.0208,262.0397032432556 24.852800000000002C262.6157032432556 22.7792,263.1341032432556 21.0512,263.19170324325563 20.9936C263.19170324325563 20.9072,263.19170324325563 20.792,263.2205032432556 20.7056C263.2205032432556 20.6192,263.2493032432556 20.503999999999998,263.2493032432556 20.4176C263.2493032432556 20.072000000000003,263.1053032432556 19.784,262.8173032432556 19.6688C262.7597032432556 19.6112,262.6733032432556 19.5824,262.5869032432556 19.5824C262.4717032432556 19.5824,262.3277032432556 19.6688,262.0397032432556 19.784C261.2045032432556 20.216,260.4269032432556 21.1664,259.9661032432556 22.376C259.85090324325563 22.7504,259.7645032432556 22.808,259.6205032432556 22.808C259.6205032432556 22.808,259.5629032432556 22.808,259.5629032432556 22.808C259.3901032432556 22.808,259.3037032432556 22.7504,259.3037032432556 22.5488C259.3037032432556 22.3472,259.4189032432556 22.0304,259.67810324325563 21.512C260.31170324325564 20.1872,261.2045032432556 19.1792,262.3277032432556 18.5456C262.4429032432556 18.488,262.5869032432556 18.4304,262.6157032432556 18.372799999999998C262.7597032432556 18.3152,262.9901032432556 18.2288,263.2493032432556 18.1712"/><path stroke-width="0.3" fill="black" stroke="none" stroke-dasharray="none" font-family="Arial" font-size="10pt" font-weight="normal" font-style="normal" x="548.3580906486511" y="110" width="15.5" height="0.5" d="M328.6604125946045 29M331.9724125946045 19.064C332.0300125946045 19.064,333.4412125946045 19.0064,335.0252125946045 19.0064C337.4732125946045 19.0064,340.4396125946045 19.064,340.4972125946045 19.064C340.6412125946045 19.150399999999998,340.7564125946045 19.352,340.7564125946045 19.496000000000002C340.7564125946045 19.6112,340.7276125946045 19.755200000000002,340.6124125946045 19.812800000000003C340.0940125946045 20.273600000000002,333.8156125946045 25.6016,333.7868125946045 25.6016C333.7868125946045 25.6016,333.7868125946045 25.6304,333.7868125946045 25.6304C333.7868125946045 25.6304,333.7868125946045 25.6304,333.8732125946045 25.6304C333.9020125946045 25.6304,333.9884125946045 25.6304,334.1036125946045 25.6304C334.1324125946045 25.6304,334.16121259460454 25.6304,334.2188125946045 25.6304C334.8524125946045 25.6304,335.3420125946045 25.8032,335.7740125946045 26.177599999999998C336.3212125946045 26.6096,336.72441259460453 26.8112,337.18521259460454 26.84C337.2716125946045 26.84,337.3004125946045 26.84,337.35801259460453 26.84C337.6172125946045 26.84,337.7324125946045 26.724800000000002,337.9340125946045 26.3792C337.9340125946045 26.3792,337.9340125946045 26.3792,337.9340125946045 26.3792C337.9340125946045 26.3792,337.9340125946045 26.3792,337.9340125946045 26.3792C337.9340125946045 26.3792,337.9052125946045 26.3792,337.8476125946045 26.3792C337.81881259460454 26.408,337.7324125946045 26.408,337.67481259460453 26.408C337.3004125946045 26.408,336.9548125946045 26.2064,336.8108125946045 25.9184C336.6956125946045 25.7168,336.6380125946045 25.5152,336.6380125946045 25.3712C336.6380125946045 24.7088,337.1564125946045 24.1904,337.8476125946045 24.1904C337.8476125946045 24.1904,337.8476125946045 24.1904,337.8476125946045 24.1904C338.6540125946045 24.1904,339.0860125946045 24.7664,339.0860125946045 25.6016C339.0860125946045 25.8896,338.9996125946045 26.2352,338.8844125946045 26.6384C338.7116125946045 27.128,338.4524125946045 27.416,337.6172125946045 28.0496C336.8396125946045 28.6544,335.9468125946045 28.9712,335.1116125946045 28.9712C334.79481259460454 28.9712,334.5356125946045 28.9424,334.2476125946045 28.856C333.9308125946045 28.7696,333.7868125946045 28.6832,333.4988125946045 28.4816C333.0092125946045 28.136,332.40441259460454 27.9632,331.8284125946045 27.9632C331.1948125946045 27.9632,330.6188125946045 28.1648,330.3020125946045 28.568C330.2156125946045 28.6544,330.1292125946045 28.6832,330.0140125946045 28.6832C329.8124125946045 28.6832,329.6396125946045 28.6256,329.55321259460453 28.424C329.55321259460453 28.3664,329.4956125946045 28.28,329.4956125946045 28.2512C329.4956125946045 27.9632,329.7836125946045 27.704,330.6188125946045 27.0992C330.7628125946045 26.9552,336.7532125946045 21.8576,336.86841259460454 21.8C336.86841259460454 21.8,336.86841259460454 21.8,336.86841259460454 21.8C336.86841259460454 21.7424,336.1772125946045 21.7424,335.3132125946045 21.7424C334.1324125946045 21.7424,332.7212125946045 21.8,332.6060125946045 21.8C332.1740125946045 21.8576,331.8284125946045 22.0592,331.3388125946045 22.462400000000002C331.1948125946045 22.6064,331.0508125946045 22.664,330.9068125946045 22.664C330.7916125946045 22.664,330.6764125946045 22.6064,330.5612125946045 22.462400000000002C330.5324125946045 22.4048,330.4748125946045 22.3472,330.4748125946045 22.2608C330.4748125946045 22.0592,330.6476125946045 21.7424,331.1084125946045 20.6192C331.77081259460454 19.150399999999998,331.77081259460454 19.0928,331.9724125946045 19.064"/><path stroke-width="0.3" fill="black" stroke="none" stroke-dasharray="none" font-family="Arial" font-size="10pt" font-weight="normal" font-style="normal" x="548.3580906486511" y="110" width="15.5" height="0.5" d="M394.55562194595336 29M388.24842194595334 24.0176C388.3060219459534 23.9888,388.36362194595335 23.9888,388.42122194595333 23.9888C388.53642194595335 23.9888,388.65162194595337 24.0176,388.73802194595334 24.0176C388.79562194595337 24.0464,389.4004219459534 24.6512,391.27242194595334 26.5232C392.65482194595336 27.9344,393.74922194595337 29,393.74922194595337 29C393.74922194595337 29,394.61322194595334 27.9344,395.70762194595335 26.5808C397.75242194595336 24.0176,397.72362194595337 24.0464,397.92522194595335 23.9888C397.95402194595334 23.9888,397.9828219459534 23.9888,398.06922194595336 23.9888C398.1556219459534 23.9888,398.27082194595334 24.0176,398.35722194595337 24.0176C398.41482194595335 24.0464,399.48042194595337 25.1408,403.05162194595334 28.6832L403.39722194595333 29.0288L404.2324219459534 28.0208C405.09642194595335 26.9264,405.1540219459534 26.8688,405.3268219459534 26.8112C405.3556219459534 26.7824,405.44202194595334 26.7824,405.52842194595337 26.7824C405.84522194595337 26.7824,406.1044219459534 27.0416,406.1044219459534 27.3872C406.1044219459534 27.4448,406.1044219459534 27.5312,406.07562194595334 27.6176C405.9892219459534 27.8192,401.1796219459534 33.7808,400.97802194595334 33.9536C400.8916219459534 34.0112,400.74762194595337 34.068799999999996,400.60362194595336 34.068799999999996C400.48842194595335 34.068799999999996,400.43082194595337 34.068799999999996,400.34442194595334 34.0112C400.2580219459534 33.9824,399.68202194595335 33.3776,397.78122194595335 31.5056C396.4276219459534 30.0944,395.33322194595337 29,395.33322194595337 29C395.33322194595337 29,394.44042194595335 30.0944,393.34602194595334 31.4768C391.3300219459534 34.0112,391.35882194595337 33.9824,391.1572219459534 34.0112C391.12842194595333 34.068799999999996,391.07082194595336 34.068799999999996,391.0132219459534 34.068799999999996C390.92682194595335 34.068799999999996,390.81162194595333 34.0112,390.72522194595336 34.0112C390.63882194595334 33.9824,389.60202194595337 32.9456,386.03082194595333 29.3456L385.68522194595334 29L384.85002194595336 29.9792C383.9860219459534 31.1024,383.89962194595336 31.1888,383.75562194595335 31.2176C383.69802194595337 31.275199999999998,383.64042194595334 31.275199999999998,383.55402194595337 31.275199999999998C383.23722194595337 31.275199999999998,382.97802194595334 30.9872,382.97802194595334 30.6704C382.97802194595334 30.584,382.97802194595334 30.4976,383.00682194595333 30.4112C383.09322194595336 30.2384,387.9892219459534 24.1904,388.1044219459534 24.0464C388.1332219459534 24.0464,388.21962194595335 24.0176,388.24842194595334 24.0176"/><path stroke-width="0.3" fill="black" stroke="none" stroke-dasharray="none" font-family="Arial" font-size="10pt" font-weight="normal" font-style="normal" x="548.3580906486511" y="110" width="15.5" height="0.5" d="M442.0869016216278 29M441.7989016216278 21.1376C441.8277016216278 21.1376,441.9141016216278 21.108800000000002,441.9717016216278 21.108800000000002C442.20210162162783 21.108800000000002,442.4325016216278 21.2528,442.5477016216278 21.4544C442.5765016216278 21.5408,442.5765016216278 21.5408,442.5765016216278 24.4496L442.5765016216278 27.3872L443.8725016216278 25.7744C445.2549016216278 24.0464,445.2549016216278 24.0464,445.4565016216278 23.9888C445.4853016216278 23.9888,445.51410162162784 23.9888,445.6005016216278 23.9888C445.68690162162784 23.9888,445.8021016216278 24.0176,445.8885016216278 24.0176C445.9461016216278 24.0464,447.0117016216278 25.1408,450.5829016216278 28.6832L450.9285016216278 29.0288L451.76370162162783 28.0208C452.6277016216278 26.9264,452.68530162162784 26.8688,452.85810162162784 26.8112C452.8869016216278 26.7824,452.9733016216278 26.7824,453.0597016216278 26.7824C453.3765016216278 26.7824,453.63570162162785 27.0416,453.63570162162785 27.3872C453.63570162162785 27.4448,453.63570162162785 27.5312,453.6069016216278 27.6176C453.52050162162783 27.8192,448.71090162162784 33.7808,448.5093016216278 33.9536C448.42290162162783 34.0112,448.2789016216278 34.068799999999996,448.1349016216278 34.068799999999996C448.0197016216278 34.068799999999996,447.9621016216278 34.068799999999996,447.8757016216278 34.0112C447.7893016216278 33.9824,447.2133016216278 33.3776,445.3125016216278 31.5056C443.95890162162783 30.0944,442.8645016216278 29,442.8645016216278 29C442.8645016216278 29,442.7781016216278 29.0576,442.69170162162783 29.1728L442.5765016216278 29.3456L442.5765016216278 33.2336C442.5765016216278 33.9824,442.5765016216278 34.5872,442.5765016216278 35.048C442.5765016216278 37.5536,442.5477016216278 37.2656,442.3749016216278 37.4096C442.2597016216278 37.5536,442.1445016216278 37.6112,442.02930162162784 37.6112C441.7989016216278 37.6112,441.53970162162784 37.496,441.4821016216278 37.2656C441.4245016216278 37.1792,441.4245016216278 37.1792,441.39570162162784 34.0112L441.39570162162784 30.8144L440.1861016216278 32.3696C438.9189016216278 33.896,438.8037016216278 34.068799999999996,438.6021016216278 34.068799999999996C438.5733016216278 34.068799999999996,438.54450162162783 34.068799999999996,438.4869016216278 34.068799999999996C438.22770162162783 34.0112,438.4869016216278 34.2992,433.5621016216278 29.3456L433.2165016216278 29L432.3813016216278 29.9792C431.51730162162784 31.1024,431.4309016216278 31.1888,431.2869016216278 31.2176C431.2293016216278 31.275199999999998,431.1717016216278 31.275199999999998,431.0853016216278 31.275199999999998C430.7685016216278 31.275199999999998,430.5093016216278 30.9872,430.5093016216278 30.6704C430.5093016216278 30.584,430.5093016216278 30.4976,430.5381016216278 30.4112C430.6245016216278 30.2384,435.4341016216278 24.248,435.63570162162785 24.104C435.7221016216278 24.0176,435.8661016216278 23.9888,435.98130162162784 23.9888C436.0965016216278 23.9888,436.1829016216278 23.9888,436.2693016216278 24.0176C436.3269016216278 24.0464,437.73810162162783 25.4864,440.9637016216278 28.6832L441.2805016216278 29.0288L441.3669016216278 28.9712L441.39570162162784 28.8848L441.39570162162784 25.256C441.39570162162784 21.627200000000002,441.39570162162784 21.5696,441.4245016216278 21.512C441.5109016216278 21.339199999999998,441.6261016216278 21.224,441.7989016216278 21.1376"/><path stroke-width="0.3" fill="black" stroke="none" stroke-dasharray="none" font-family="Arial" font-size="10pt" font-weight="normal" font-style="normal" x="548.3580906486511" y="110" width="15.5" height="0.5" d="M489.61818129730227 19M485.7877812973023 5.089600000000001C485.96058129730227 5.0608,486.1045812973023 5.0608,486.2485812973023 5.0608C488.1493812973023 5.0608,489.8773812973023 6.328000000000001,490.5109812973023 8.2576C490.59738129730226 8.488,490.62618129730225 8.7472,490.62618129730225 8.9776C490.62618129730225 9.9856,489.9061812973023 10.792,488.89818129730224 10.792C488.03418129730227 10.792,487.42938129730226 10.3024,487.11258129730226 9.4672C486.7381812973023 8.1712,485.7877812973023 7.4224,484.8085812973023 7.4224C484.57818129730225 7.4224,484.3477812973023 7.4512,484.11738129730225 7.537600000000001C483.42618129730226 7.8256,483.0805812973023 8.3728,483.0805812973023 9.1792C483.0805812973023 9.3808,483.0805812973023 9.5824,483.13818129730225 9.784C483.59898129730226 12.376000000000001,486.01818129730225 15.169599999999999,489.2437812973023 16.8688C489.50298129730226 16.984,489.7621812973023 17.0992,489.79098129730227 17.128L489.8773812973023 17.1856L489.9061812973023 17.128C489.96378129730226 17.0416,490.77018129730226 15.7744,492.98778129730226 12.3472L495.06138129730226 9.1792L496.5877812973023 6.7888C497.16378129730225 5.8672,497.2213812973023 5.8096,497.33658129730225 5.752000000000001C497.48058129730225 5.6655999999999995,497.59578129730227 5.636800000000001,497.76858129730226 5.636800000000001C498.1429812973023 5.636800000000001,498.4885812973023 5.9536,498.4885812973023 6.3856L498.4885812973023 6.4144000000000005C498.4885812973023 6.616,498.4885812973023 6.6736,497.8837812973023 7.5952L492.35418129730226 16.177599999999998L491.3173812973023 17.7616L491.28858129730224 17.8192L491.4901812973023 17.9344C493.96698129730225 19.2304,495.86778129730226 21.2176,496.9045812973023 23.4928C497.45178129730226 24.7312,497.7109812973023 26.0272,497.7109812973023 27.208C497.7109812973023 29.9728,496.2709812973023 32.3344,493.8805812973023 32.8528C493.5637812973023 32.9392,493.2469812973023 32.968,492.9301812973023 32.968C491.08698129730226 32.968,489.35898129730225 31.729599999999998,488.69658129730226 29.8288C488.6101812973023 29.540799999999997,488.58138129730224 29.3104,488.58138129730224 29.0512C488.58138129730224 28.072,489.2725812973023 27.2656,490.3381812973023 27.2656C491.1733812973023 27.2656,491.74938129730225 27.6976,492.06618129730225 28.5904C492.4693812973023 29.857599999999998,493.44858129730227 30.6064,494.39898129730227 30.6064C494.62938129730225 30.6064,494.8597812973023 30.5776,495.09018129730225 30.4912C495.8101812973023 30.232,496.0981812973023 29.656,496.0981812973023 28.849600000000002C496.0981812973023 28.648,496.0981812973023 28.4464,496.06938129730224 28.273600000000002C495.6085812973023 25.6528,493.2181812973023 22.8592,489.96378129730226 21.1888C489.67578129730225 21.0736,489.4453812973023 20.9584,489.3877812973023 20.9008L489.33018129730226 20.872L489.2725812973023 20.9008C489.2437812973023 20.9584,488.40858129730225 22.2544,486.2197812973023 25.6528L484.1461812973023 28.849600000000002L482.61978129730227 31.2688C482.01498129730226 32.1904,481.98618129730227 32.1904,481.87098129730225 32.3056C481.72698129730225 32.3632,481.5829812973023 32.4208,481.4389812973023 32.4208C481.03578129730226 32.4208,480.6901812973023 32.104,480.6901812973023 31.671999999999997L480.6901812973023 31.6144C480.6901812973023 31.384,480.74778129730225 31.384,481.3237812973023 30.4624L486.8533812973023 21.8512L487.91898129730225 20.2672L487.91898129730225 20.2384L487.71738129730227 20.0944C483.91578129730226 18.0496,481.52538129730226 14.4496,481.52538129730226 10.8208L481.52538129730226 10.8208C481.52538129730226 7.7104,483.28218129730226 5.348800000000001,485.7877812973023 5.089600000000001M496.9333812973023 13.9024C497.0485812973023 13.9024,497.16378129730225 13.8448,497.27898129730227 13.8448C497.8837812973023 13.8448,498.45978129730224 14.1904,498.8053812973023 14.7088C499.0069812973023 14.968,499.09338129730224 15.3424,499.09338129730224 15.688C499.09338129730224 16.0624,499.0069812973023 16.408,498.8053812973023 16.724800000000002C498.45978129730224 17.2432,497.8837812973023 17.5312,497.33658129730225 17.5312C496.81818129730226 17.5312,496.35738129730225 17.3296,495.9829812973023 16.9264C495.6661812973023 16.5808,495.52218129730227 16.1488,495.52218129730227 15.688C495.52218129730227 14.9104,496.04058129730225 14.104,496.9333812973023 13.9024M481.52538129730226 20.5552C481.6405812973023 20.4976,481.7557812973023 20.4976,481.87098129730225 20.4976C482.33178129730226 20.4976,482.8501812973023 20.6992,483.1957812973023 21.1024C483.5125812973023 21.4192,483.6853812973023 21.9088,483.6853812973023 22.3408C483.6853812973023 22.7152,483.59898129730226 23.0608,483.3973812973023 23.3488C483.0517812973023 23.896,482.4469812973023 24.1552,481.87098129730225 24.1552C481.41018129730224 24.1552,480.92058129730225 23.9824,480.57498129730226 23.5792C480.25818129730226 23.2336,480.11418129730225 22.7728,480.11418129730225 22.3408C480.11418129730225 21.534399999999998,480.60378129730225 20.7568,481.52538129730226 20.5552"/><path stroke-width="0.3" fill="black" stroke="none" stroke-dasharray="none" font-family="Arial" font-size="10pt" font-weight="normal" font-style="normal" x="548.3580906486511" y="110" width="15.5" height="0.5" d="M551.3580906486511 21M551.0988906486511 9.8256C551.1276906486511 9.768,551.2140906486511 9.768,551.3004906486511 9.768C551.3868906486512 9.768,551.4732906486511 9.768,551.5020906486511 9.8256C551.6460906486511 9.8544,551.8188906486511 9.9696,551.9052906486511 10.1136C552.0204906486512 10.3152,552.0204906486512 10.3152,552.0204906486512 11.409600000000001C552.0204906486512 12.3888,552.0492906486511 12.4176,552.0492906486511 12.4176C552.3372906486511 12.4176,553.2300906486511 12.792,553.6908906486511 13.051200000000001C555.5340906486512 14.088000000000001,556.8300906486511 15.9024,557.4924906486511 18.3792C557.6076906486511 18.8112,557.8092906486511 19.9632,557.8092906486511 20.3088C557.8092906486511 20.3088,558.1260906486511 20.3088,558.7596906486511 20.3088C559.7676906486511 20.3088,559.7676906486511 20.3088,559.9692906486512 20.4528C560.1708906486512 20.568,560.2860906486511 20.8272,560.2860906486511 21.0288C560.2860906486511 21.3168,560.1708906486512 21.5472,559.9692906486512 21.6624C559.7676906486511 21.7776,559.7676906486511 21.7776,558.7596906486511 21.7776C558.1260906486511 21.7776,557.8092906486511 21.8352,557.8092906486511 21.8352C557.8092906486511 22.152,557.6076906486511 23.304,557.4924906486511 23.736C556.8300906486511 26.2128,555.5340906486512 28.0272,553.6908906486511 29.064C553.2300906486511 29.352,552.3372906486511 29.668799999999997,552.0492906486511 29.668799999999997C552.0492906486511 29.668799999999997,552.0204906486512 29.726399999999998,552.0204906486512 30.648L552.0204906486512 30.792C552.0204906486512 31.7712,552.0204906486512 31.7712,551.8476906486511 31.9728C551.7324906486512 32.1744,551.5020906486511 32.2608,551.3292906486511 32.2608C551.0988906486511 32.2608,550.8684906486511 32.1744,550.7532906486512 31.9728C550.5804906486511 31.7712,550.5804906486511 31.7712,550.5804906486511 30.792L550.5804906486511 30.648C550.5804906486511 29.726399999999998,550.5804906486511 29.668799999999997,550.5516906486511 29.668799999999997C550.2636906486512 29.668799999999997,549.3708906486511 29.352,548.9100906486511 29.064C547.0668906486511 28.0272,545.7708906486511 26.2128,545.1084906486511 23.736C544.9932906486512 23.304,544.7916906486511 22.152,544.7916906486511 21.8352C544.7916906486511 21.8352,544.5036906486511 21.7776,543.8988906486511 21.7776C542.8908906486511 21.7776,542.8908906486511 21.7776,542.7180906486511 21.6624C542.5164906486511 21.5472,542.4012906486511 21.3168,542.4012906486511 21.0576C542.4012906486511 20.7696,542.6028906486512 20.4528,542.8908906486511 20.3376C542.9772906486511 20.3376,543.1788906486511 20.3088,543.8988906486511 20.3088C544.4748906486511 20.3088,544.7916906486511 20.3088,544.7916906486511 20.3088C544.7916906486511 19.9632,544.9932906486512 18.8112,545.1084906486511 18.3792C545.7708906486511 15.9024,547.0668906486511 14.088000000000001,548.9100906486511 13.051200000000001C549.3708906486511 12.792,550.2636906486512 12.4176,550.5516906486511 12.4176C550.5804906486511 12.4176,550.5804906486511 12.3888,550.5804906486511 11.409600000000001C550.5804906486511 10.5744,550.5804906486511 10.3728,550.5804906486511 10.3152C550.6668906486511 10.1136,550.8684906486511 9.912,551.0988906486511 9.8256M550.5804906486511 17.0832C550.5804906486511 15.3264,550.5516906486511 13.8864,550.5516906486511 13.8864C550.4652906486511 13.8864,549.8316906486511 14.4912,549.6012906486511 14.7792C548.6220906486511 16.0464,547.8732906486512 18.177599999999998,547.8156906486511 20.0496L547.7580906486511 20.3088L549.1692906486511 20.3088L550.5804906486511 20.3088L550.5804906486511 17.0832M552.1932906486511 14.0304C552.1356906486511 13.943999999999999,552.0492906486511 13.8864,552.0492906486511 13.8864C552.0492906486511 13.8864,552.0204906486512 15.3264,552.0204906486512 17.0832L552.0204906486512 20.3088L553.4316906486512 20.3088L554.8428906486511 20.3088L554.7852906486511 20.0496C554.6700906486511 17.6592,553.5756906486511 15.0672,552.1932906486511 14.0304M550.5804906486511 25.032L550.5804906486511 21.7776L549.1692906486511 21.7776L547.7580906486511 21.7776L547.8156906486511 22.0368C547.8732906486512 23.9376,548.6220906486511 26.0688,549.6012906486511 27.336C549.8316906486511 27.624,550.4652906486511 28.2288,550.5516906486511 28.2288C550.5516906486511 28.2288,550.5804906486511 26.788800000000002,550.5804906486511 25.032M554.7852906486511 22.0368L554.8428906486511 21.7776L553.4316906486512 21.7776L552.0204906486512 21.7776L552.0204906486512 25.032C552.0204906486512 26.788800000000002,552.0492906486511 28.2288,552.0492906486511 28.2288C552.1356906486511 28.2288,552.7692906486511 27.624,552.9996906486512 27.336C553.9788906486511 26.0688,554.7276906486511 23.9376,554.7852906486511 22.0368"/></svg>