<svg xmlns="http://www.w3.org/2000/svg" width="550" height="200" viewBox="0 0 550 200"><rect stroke-width="0.3" fill="#999999" stroke="#999999" stroke-dasharray="none" font-family="Arial" font-size="10pt" font-weight="normal" font-style="normal" x="10" y="49" width="499.5" height="1.5"/><rect stroke-width="0.3" fill="#999999" stroke="#999999" stroke-dasharray="none" font-family="Arial" font-size="10pt" font-weight="normal" font-style="normal" x="10" y="59" width="499.5" height="1.5"/><rect stroke-width="0.3" fill="#999999" stroke="#999999" stroke-dasharray="none" font-family="Arial" font-size="10pt" font-weight="normal" font-style="normal" x="10" y="69" width="499.5" height="1.5"/><rect stroke-width="0.3" fill="#999999" stroke="#999999" stroke-dasharray="none" font-family="Arial" font-size="10pt" font-weight="normal" font-style="normal" x="10" y="79" width="499.5" height="1.5"/><rect stroke-width="0.3" fill="#999999" stroke="#999999" stroke-dasharray="none" font-family="Arial" font-size="10pt" font-weight="normal" font-style="normal" x="10" y="89" width="499.5" height="1.5"/><rect stroke-width="0.3" fill="black" stroke="black" stroke-dasharray="none" font-family="Arial" font-size="10pt" font-weight="normal" font-style="normal" x="10" y="49" width="0.5" height="41.5"/><rect stroke-width="0.3" fill="black" stroke="black" stroke-dasharray="none" font-family="Arial" font-size="10pt" font-weight="normal" font-style="normal" x="510" y="49" width="0.5" height="41.5"/><rect stroke-width="0.3" fill="black" stroke="black" stroke-dasharray="none" font-family="Arial" font-size="10pt" font-weight="normal" font-style="normal" x="46" y="100" width="15.5" height="0.5"/><g class="vf-stavenote"><g class="vf-note" pointer-events="bounding-box"><g class="vf-stem" pointer-events="bounding-box"><path stroke-width="1.5" fill="none" stroke="black" stroke-dasharray="none" font-family="Arial" font-size="10pt" font-weight="normal" font-style="normal" x="46" y="100" width="15.5" height="0.5" d="M59 98L59 41"/></g><g class="vf-notehead" pointer-events="bounding-box"><rect stroke-width="0.3" fill="black" stroke="black" stroke-dasharray="none" font-family="Arial" font-size="10pt" font-weight="normal" font-style="normal" x="46" y="100" width="15.5" height="0.5"/><path stroke-width="0.3" fill="black" stroke="none" stroke-dasharray="none" font-family="Arial" font-size="10pt" font-weight="normal" font-style="normal" x="46" y="100" width="15.5" height="0.5" d="M49 100M55.6024 95.3128C55.7032 95.3128,55.8544 95.3128,55.879599999999996 95.3128C55.879599999999996 95.3128,55.9048 95.3128,55.9048 95.3128C55.9048 95.3128,56.056 95.3128,56.182 95.3128C58.45 95.4388,59.7856 96.9256,59.7856 98.7904C59.7856 99.6976,59.4832 100.7308,58.727199999999996 101.7136C57.290800000000004 103.654,54.9472 104.7124,52.906 104.7124C51.3184 104.7124,49.9576 104.0824,49.3024 102.7972C49.1008 102.2932,49 101.8144,49 101.2852C49 98.5384,52.0744 95.4892,55.6024 95.3128M58.2232 96.6988C58.1224 96.6484,57.9964 96.6232,57.870400000000004 96.6232C57.0892 96.6232,55.778800000000004 97.102,54.5188 97.9588C52.175200000000004 99.4204,50.26 101.5624,50.1844 102.7972C50.1844 102.7972,50.1844 102.8224,50.1844 102.8224C50.1844 103.2508,50.4616 103.4272,50.9404 103.4272C51.9736 103.4272,53.8888 102.5452,55.6528 101.134C57.4672 99.6976,58.626400000000004 98.0848,58.626400000000004 97.2532C58.626400000000004 96.976,58.5004 96.7492,58.2232 96.6988"/></g><g class="vf-notehead" pointer-events="bounding-box"><path stroke-width="0.3" fill="black" stroke="none" stroke-dasharray="none" font-family="Arial" font-size="10pt" font-weight="normal" font-style="normal" x="46" y="100" width="15.5" height="0.5" d="M49 90M55.6024 85.3128C55.7032 85.3128,55.8544 85.3128,55.879599999999996 85.3128C55.879599999999996 85.3128,55.9048 85.3128,55.9048 85.3128C55.9048 85.3128,56.056 85.3128,56.182 85.3128C58.45 85.4388,59.7856 86.9256,59.7856 88.7904C59.7856 89.6976,59.4832 90.7308,58.727199999999996 91.7136C57.290800000000004 93.654,54.9472 94.7124,52.906 94.7124C51.3184 94.7124,49.9576 94.0824,49.3024 92.7972C49.1008 92.2932,49 91.8144,49 91.2852C49 88.5384,52.0744 85.4892,55.6024 85.3128M58.2232 86.6988C58.1224 86.6484,57.9964 86.6232,57.870400000000004 86.6232C57.0892 86.6232,55.778800000000004 87.102,54.5188 87.9588C52.175200000000004 89.4204,50.26 91.5624,50.1844 92.7972C50.1844 92.7972,50.1844 92.8224,50.1844 92.8224C50.1844 93.2508,50.4616 93.4272,50.9404 93.4272C51.9736 93.4272,53.8888 92.5452,55.6528 91.134C57.4672 89.6976,58.626400000000004 88.0848,58.626400000000004 87.2532C58.626400000000004 86.976,58.5004 86.7492,58.2232 86.6988"/></g><g class="vf-notehead" pointer-events="bounding-box"><path stroke-width="0.3" fill="black" stroke="none" stroke-dasharray="none" font-family="Arial" font-size="10pt" font-weight="normal" font-style="normal" x="46" y="100" width="15.5" height="0.5" d="M49 75M55.6024 70.3128C55.7032 70.3128,55.8544 70.3128,55.879599999999996 70.3128C55.879599999999996 70.3128,55.9048 70.3128,55.9048 70.3128C55.9048 70.3128,56.056 70.3128,56.182 70.3128C58.45 70.4388,59.7856 71.9256,59.7856 73.7904C59.7856 74.6976,59.4832 75.7308,58.727199999999996 76.7136C57.290800000000004 78.654,54.9472 79.7124,52.906 79.7124C51.3184 79.7124,49.9576 79.0824,49.3024 77.7972C49.1008 77.2932,49 76.8144,49 76.2852C49 73.5384,52.0744 70.4892,55.6024 70.3128M58.2232 71.6988C58.1224 71.6484,57.9964 71.6232,57.870400000000004 71.6232C57.0892 71.6232,55.778800000000004 72.102,54.5188 72.9588C52.175200000000004 74.4204,50.26 76.5624,50.1844 77.7972C50.1844 77.7972,50.1844 77.8224,50.1844 77.8224C50.1844 78.2508,50.4616 78.4272,50.9404 78.4272C51.9736 78.4272,53.8888 77.5452,55.6528 76.134C57.4672 74.6976,58.626400000000004 73.0848,58.626400000000004 72.2532C58.626400000000004 71.976,58.5004 71.7492,58.2232 71.6988"/></g></g><g class="vf-modifiers"><path stroke-width="0.3" fill="black" stroke="none" stroke-dasharray="none" font-family="Arial" font-size="10pt" font-weight="normal" font-style="normal" x="46" y="100" width="15.5" height="0.5" d="M27 100M26.78112 82.73584C26.83584 82.70848000000001,26.89056 82.70848000000001,26.97264 82.70848000000001C27.21888 82.70848000000001,27.43776 82.81792,27.51984 83.0368C27.5472 83.14624,27.5472 83.14624,27.5472 89.52112L27.5472 95.95072L27.574559999999998 95.86864C28.61424 94.99312,29.70864 94.55536000000001,30.74832 94.55536000000001C31.15872 94.55536000000001,31.569119999999998 94.61008,31.97952 94.77424C33.21072 95.18464,33.86736 96.33376,33.86736 97.70176000000001C33.86736 98.41312,33.64848 99.20656,33.23808 100C32.63616 101.0944,31.87008 101.96992,29.736 103.88512L27.62928 105.8824C27.24624 106.26544,27.16416 106.26544,27 106.26544C26.75376 106.26544,26.53488 106.12864,26.4528 105.90976L26.425440000000002 105.80032L26.425440000000002 94.50064L26.425440000000002 83.14624L26.4528 83.0368C26.53488 82.92736,26.64432 82.7632,26.78112 82.73584M30.0096 96.41584C29.90016 96.36112,29.736 96.36112,29.62656 96.36112C29.54448 96.36112,29.48976 96.36112,29.43504 96.36112C28.72368 96.47056,28.0944 96.90832,27.65664 97.61968L27.5472 97.8112L27.5472 101.01232L27.5472 104.26816L27.62928 104.15872C29.62656 101.96992,30.93984 99.4528,30.93984 97.78384L30.93984 97.72912C30.93984 96.90832,30.66624 96.55264,30.0096 96.41584"/><path stroke-width="0.3" fill="black" stroke="none" stroke-dasharray="none" font-family="Arial" font-size="10pt" font-weight="normal" font-style="normal" x="46" y="100" width="15.5" height="0.5" d="M37 90M42.93712 75.36240000000001C43.0192 75.30768,43.04656 75.30768,43.156 75.30768C43.4296 75.30768,43.62112 75.41712,43.7032 75.66336L43.73056 75.74544L43.75792 79.3296L43.75792 82.94112L44.46928 82.7496C44.87968 82.64016,45.18064 82.6128,45.37216 82.6128C45.6184 82.6128,45.72784 82.69488,45.80992 82.91376C45.83728 82.99584,45.83728 83.62512,45.83728 84.30912000000001C45.83728 84.96576,45.83728 85.64976,45.80992 85.67712C45.70048 85.95072,45.6184 85.97808,44.87968 86.1696C43.94944 86.41584,43.75792 86.4432,43.75792 86.4432C43.75792 86.4432,43.75792 87.15456,43.75792 88.2216C43.75792 88.60464,43.75792 89.01504,43.75792 89.4528L43.75792 92.40768L44.46928 92.21616C44.90704 92.10672,45.18064 92.07936,45.37216 92.07936C45.50896 92.07936,45.6184 92.10672,45.70048 92.21616C45.83728 92.38032,45.83728 92.35296,45.83728 93.36528L45.83728 93.77568L45.83728 94.21344C45.83728 95.22576,45.83728 95.19839999999999,45.70048 95.3352C45.59104 95.44463999999999,45.6184 95.44463999999999,44.35984 95.7456C44.086240000000004 95.82768,43.84 95.90976,43.81264 95.90976L43.75792 95.90976L43.75792 99.54864L43.73056 103.21488L43.7032 103.32432C43.62112 103.5432,43.40224 103.65264,43.156 103.65264C42.991839999999996 103.65264,42.745599999999996 103.5432,42.63616 103.32432L42.6088 103.21488L42.6088 99.7128L42.6088 96.21072L42.58144 96.21072L41.95216 96.37488L40.77568 96.67584C40.47472 96.75792,40.20112 96.81264,40.20112 96.81264C40.1464 96.81264,40.1464 97.00416,40.1464 100.5336L40.1464 104.30928L40.11904 104.39135999999999C40.0096 104.61024,39.79072 104.71968,39.599199999999996 104.71968C39.38032 104.71968,39.13408 104.61024,39.02464 104.39135999999999L38.99728 104.30928L38.99728 100.69776C38.99728 97.35984,38.99728 97.1136,38.96992 97.1136C38.96992 97.1136,38.96992 97.1136,38.96992 97.1136C38.66896 97.19568,37.62928 97.46928,37.51984 97.46928C37.2736 97.46928,37.10944 97.30512,37 97.1136C37 97.00416,37 97.00416,37 95.71824L37 94.43232L37.02736 94.32288C37.1368 94.04928,37.1368 94.04928,38.66896 93.66624L38.99728 93.58416L38.99728 90.60192C38.99728 87.83856,38.99728 87.64704,38.96992 87.64704C38.96992 87.64704,38.96992 87.64704,38.96992 87.64704C38.66896 87.72912,37.62928 87.97536,37.51984 87.97536C37.2736 87.97536,37.10944 87.83856,37 87.64704C37 87.5376,37 87.5376,37 86.25168L37 84.96576L37.02736 84.85632C37.1368 84.58272,37.1368 84.58272,38.66896 84.19968L38.99728 84.1176L38.99728 80.47872L38.99728 76.83984L39.02464 76.7304C39.13408 76.53888,39.38032 76.37472,39.599199999999996 76.37472C39.68128 76.37472,39.736 76.42944,39.81808 76.4568C39.92752 76.48416,40.03696 76.62096,40.11904 76.7304L40.1464 76.83984L40.1464 80.34192L40.1464 83.81664L40.31056 83.81664C40.36528 83.78928,40.85776 83.67984,41.35024 83.5704L42.41728 83.24208L42.6088 83.21472L42.6088 79.49376L42.6088 75.74544L42.63616 75.66336C42.71824 75.55392,42.80032 75.41712,42.93712 75.36240000000001M42.6088 89.75376C42.6088 88.0848,42.6088 86.74416,42.6088 86.74416L42.6088 86.74416C42.58144 86.74416,42.30784 86.82624,41.97952 86.90832L40.77568 87.20928C40.47472 87.29136,40.20112 87.34608,40.20112 87.34608C40.1464 87.34608,40.1464 87.51024,40.1464 90.32832L40.1464 93.33792L40.31056 93.2832C40.36528 93.25584,40.85776 93.1464,41.35024 93.03696L42.41728 92.76336L42.6088 92.68128L42.6088 89.75376"/></g></g><g class="vf-stavenote"><g class="vf-note" pointer-events="bounding-box"><g class="vf-stem" pointer-events="bounding-box"><path stroke-width="1.5" fill="none" stroke="black" stroke-dasharray="none" font-family="Arial" font-size="10pt" font-weight="normal" font-style="normal" x="46" y="100" width="15.5" height="0.5" d="M273.5999994277954 93L273.5999994277954 51"/></g><g class="vf-notehead" pointer-events="bounding-box"><path stroke-width="0.3" fill="black" stroke="none" stroke-dasharray="none" font-family="Arial" font-size="10pt" font-weight="normal" font-style="normal" x="46" y="100" width="15.5" height="0.5" d="M263.5999994277954 95M270.2023994277954 90.3128C270.3031994277954 90.3128,270.4543994277954 90.3128,270.4795994277954 90.3128C270.4795994277954 90.3128,270.50479942779543 90.3128,270.50479942779543 90.3128C270.50479942779543 90.3128,270.6559994277954 90.3128,270.7819994277954 90.3128C273.0499994277954 90.4388,274.3855994277954 91.9256,274.3855994277954 93.7904C274.3855994277954 94.6976,274.0831994277954 95.7308,273.3271994277954 96.7136C271.8907994277954 98.654,269.5471994277954 99.7124,267.5059994277954 99.7124C265.9183994277954 99.7124,264.5575994277954 99.0824,263.9023994277954 97.7972C263.7007994277954 97.2932,263.5999994277954 96.8144,263.5999994277954 96.2852C263.5999994277954 93.5384,266.67439942779544 90.4892,270.2023994277954 90.3128"/></g><g class="vf-notehead" pointer-events="bounding-box"><path stroke-width="0.3" fill="black" stroke="none" stroke-dasharray="none" font-family="Arial" font-size="10pt" font-weight="normal" font-style="normal" x="46" y="100" width="15.5" height="0.5" d="M273.5999994277954 90M280.2023994277954 85.3128C280.3031994277954 85.3128,280.4543994277954 85.3128,280.4795994277954 85.3128C280.4795994277954 85.3128,280.50479942779543 85.3128,280.50479942779543 85.3128C280.50479942779543 85.3128,280.6559994277954 85.3128,280.7819994277954 85.3128C283.0499994277954 85.4388,284.3855994277954 86.9256,284.3855994277954 88.7904C284.3855994277954 89.6976,284.0831994277954 90.7308,283.3271994277954 91.7136C281.8907994277954 93.654,279.5471994277954 94.7124,277.5059994277954 94.7124C275.9183994277954 94.7124,274.5575994277954 94.0824,273.9023994277954 92.7972C273.7007994277954 92.2932,273.5999994277954 91.8144,273.5999994277954 91.2852C273.5999994277954 88.5384,276.67439942779544 85.4892,280.2023994277954 85.3128"/></g><g class="vf-notehead" pointer-events="bounding-box"><path stroke-width="0.3" fill="black" stroke="none" stroke-dasharray="none" font-family="Arial" font-size="10pt" font-weight="normal" font-style="normal" x="46" y="100" width="15.5" height="0.5" d="M263.5999994277954 85M270.2023994277954 80.3128C270.3031994277954 80.3128,270.4543994277954 80.3128,270.4795994277954 80.3128C270.4795994277954 80.3128,270.50479942779543 80.3128,270.50479942779543 80.3128C270.50479942779543 80.3128,270.6559994277954 80.3128,270.7819994277954 80.3128C273.0499994277954 80.4388,274.3855994277954 81.9256,274.3855994277954 83.7904C274.3855994277954 84.6976,274.0831994277954 85.7308,273.3271994277954 86.7136C271.8907994277954 88.654,269.5471994277954 89.7124,267.5059994277954 89.7124C265.9183994277954 89.7124,264.5575994277954 89.0824,263.9023994277954 87.7972C263.7007994277954 87.2932,263.5999994277954 86.8144,263.5999994277954 86.2852C263.5999994277954 83.5384,266.67439942779544 80.4892,270.2023994277954 80.3128"/></g></g><g class="vf-modifiers"/></g><rect stroke-width="0.3" fill="black" stroke="black" stroke-dasharray="none" font-family="Arial" font-size="10pt" font-weight="normal" font-style="normal" x="400.34999990463257" y="100" width="15.5" height="0.5"/><g class="vf-stavenote"><g class="vf-note" pointer-events="bounding-box"><g class="vf-stem" pointer-events="bounding-box"><path stroke-width="1.5" fill="none" stroke="black" stroke-dasharray="none" font-family="Arial" font-size="10pt" font-weight="normal" font-style="normal" x="400.34999990463257" y="100" width="15.5" height="0.5" d="M413.34999990463257 98L413.34999990463257 41"/></g><g class="vf-notehead" pointer-events="bounding-box"><rect stroke-width="0.3" fill="black" stroke="black" stroke-dasharray="none" font-family="Arial" font-size="10pt" font-weight="normal" font-style="normal" x="400.34999990463257" y="100" width="15.5" height="0.5"/><path stroke-width="0.3" fill="black" stroke="none" stroke-dasharray="none" font-family="Arial" font-size="10pt" font-weight="normal" font-style="normal" x="400.34999990463257" y="100" width="15.5" height="0.5" d="M403.34999990463257 100M409.95239990463256 95.3128C410.05319990463255 95.3128,410.20439990463257 95.3128,410.22959990463255 95.3128C410.22959990463255 95.3128,410.2547999046326 95.3128,410.2547999046326 95.3128C410.2547999046326 95.3128,410.40599990463255 95.3128,410.5319999046326 95.3128C412.79999990463256 95.4388,414.13559990463256 96.9256,414.13559990463256 98.7904C414.13559990463256 99.6976,413.8331999046326 100.7308,413.07719990463255 101.7136C411.64079990463256 103.654,409.2971999046326 104.7124,407.2559999046326 104.7124C405.66839990463257 104.7124,404.3075999046326 104.0824,403.65239990463255 102.7972C403.45079990463256 102.2932,403.34999990463257 101.8144,403.34999990463257 101.2852C403.34999990463257 98.5384,406.4243999046326 95.4892,409.95239990463256 95.3128"/></g><g class="vf-notehead" pointer-events="bounding-box"><path stroke-width="0.3" fill="black" stroke="none" stroke-dasharray="none" font-family="Arial" font-size="10pt" font-weight="normal" font-style="normal" x="400.34999990463257" y="100" width="15.5" height="0.5" d="M403.34999990463257 85M409.95239990463256 80.3128C410.05319990463255 80.3128,410.20439990463257 80.3128,410.22959990463255 80.3128C410.22959990463255 80.3128,410.2547999046326 80.3128,410.2547999046326 80.3128C410.2547999046326 80.3128,410.40599990463255 80.3128,410.5319999046326 80.3128C412.79999990463256 80.4388,414.13559990463256 81.9256,414.13559990463256 83.7904C414.13559990463256 84.6976,413.8331999046326 85.7308,413.07719990463255 86.7136C411.64079990463256 88.654,409.2971999046326 89.7124,407.2559999046326 89.7124C405.66839990463257 89.7124,404.3075999046326 89.0824,403.65239990463255 87.7972C403.45079990463256 87.2932,403.34999990463257 86.8144,403.34999990463257 86.2852C403.34999990463257 83.5384,406.4243999046326 80.4892,409.95239990463256 80.3128"/></g><g class="vf-notehead" pointer-events="bounding-box"><path stroke-width="0.3" fill="black" stroke="none" stroke-dasharray="none" font-family="Arial" font-size="10pt" font-weight="normal" font-style="normal" x="400.34999990463257" y="100" width="15.5" height="0.5" d="M403.34999990463257 75M409.95239990463256 70.3128C410.05319990463255 70.3128,410.20439990463257 70.3128,410.22959990463255 70.3128C410.22959990463255 70.3128,410.2547999046326 70.3128,410.2547999046326 70.3128C410.2547999046326 70.3128,410.40599990463255 70.3128,410.5319999046326 70.3128C412.79999990463256 70.4388,414.13559990463256 71.9256,414.13559990463256 73.7904C414.13559990463256 74.6976,413.8331999046326 75.7308,413.07719990463255 76.7136C411.64079990463256 78.654,409.2971999046326 79.7124,407.2559999046326 79.7124C405.66839990463257 79.7124,404.3075999046326 79.0824,403.65239990463255 77.7972C403.45079990463256 77.2932,403.34999990463257 76.8144,403.34999990463257 76.2852C403.34999990463257 73.5384,406.4243999046326 70.4892,409.95239990463256 70.3128"/></g></g><g class="vf-modifiers"><path stroke-width="0.3" fill="black" stroke="none" stroke-dasharray="none" font-family="Arial" font-size="10pt" font-weight="normal" font-style="normal" x="400.34999990463257" y="100" width="15.5" height="0.5" d="M381.34999990463257 100M381.62359990463256 87.4144C381.7056799046326 87.35968,381.73303990463256 87.35968,381.89719990463254 87.35968C382.11607990463256 87.35968,382.3075999046326 87.46912,382.4170399046326 87.71536L382.4443999046326 87.79744L382.4443999046326 91.08064C382.4443999046326 92.91376,382.4443999046326 94.3912,382.4443999046326 94.3912C382.4443999046326 94.3912,383.5387999046326 94.1176,384.82471990463256 93.78928C386.71255990463254 93.32416,387.17767990463256 93.18736,387.3691999046326 93.18736C387.4786399046326 93.18736,387.5059999046326 93.21472,387.56071990463255 93.24208C387.67015990463256 93.2968,387.77959990463256 93.40624,387.8616799046326 93.51568L387.88903990463257 93.62512L387.88903990463257 102.90016L387.88903990463257 112.25728L387.8616799046326 112.33936C387.7522399046326 112.55824,387.5059999046326 112.66768,387.3418399046326 112.66768C387.0955999046326 112.66768,386.8767199046326 112.55824,386.7672799046326 112.33936L386.7399199046326 112.25728L386.7399199046326 108.86464C386.7399199046326 106.78528,386.7399199046326 105.49936,386.7399199046326 105.49936C386.71255990463254 105.49936,385.6455199046326 105.7456,384.35959990463255 106.10128C382.49911990463255 106.5664,382.00663990463255 106.7032,381.8151199046326 106.7032C381.7056799046326 106.7032,381.7056799046326 106.67584,381.62359990463256 106.62112C381.51415990463255 106.59376,381.40471990463254 106.48432,381.34999990463257 106.37488L381.34999990463257 106.2928L381.34999990463257 97.04512L381.34999990463257 87.79744L381.34999990463257 87.71536C381.40471990463254 87.60592,381.51415990463255 87.46912,381.62359990463256 87.4144M386.7399199046326 99.39808C386.7399199046326 98.87824,386.7399199046326 98.41312,386.7399199046326 98.0848C386.7399199046326 96.90832,386.7399199046326 96.82624,386.71255990463254 96.82624L386.71255990463254 96.82624C386.71255990463254 96.82624,385.72759990463254 97.09984,384.57847990463256 97.34608L382.4443999046326 97.89328L382.4443999046326 100.49248C382.4443999046326 101.88784,382.4443999046326 103.06432,382.4443999046326 103.06432L384.60583990463255 102.54448L386.7399199046326 101.99728L386.7399199046326 99.39808"/><path stroke-width="0.3" fill="black" stroke="none" stroke-dasharray="none" font-family="Arial" font-size="10pt" font-weight="normal" font-style="normal" x="400.34999990463257" y="100" width="15.5" height="0.5" d="M391.34999990463257 85M397.28711990463256 70.36240000000001C397.3691999046326 70.30768,397.39655990463257 70.30768,397.5059999046326 70.30768C397.77959990463256 70.30768,397.9711199046326 70.41712,398.05319990463255 70.66336L398.0805599046326 70.74544L398.1079199046326 74.3296L398.1079199046326 77.94112L398.8192799046326 77.7496C399.2296799046326 77.64016,399.53063990463255 77.6128,399.7221599046326 77.6128C399.9683999046326 77.6128,400.0778399046326 77.69488,400.15991990463255 77.91376C400.1872799046326 77.99584,400.1872799046326 78.62512,400.1872799046326 79.30912000000001C400.1872799046326 79.96576,400.1872799046326 80.64976,400.15991990463255 80.67712C400.05047990463254 80.95072,399.9683999046326 80.97808,399.2296799046326 81.1696C398.29943990463255 81.41584,398.1079199046326 81.4432,398.1079199046326 81.4432C398.1079199046326 81.4432,398.1079199046326 82.15456,398.1079199046326 83.2216C398.1079199046326 83.60464,398.1079199046326 84.01504,398.1079199046326 84.4528L398.1079199046326 87.40768L398.8192799046326 87.21616C399.25703990463256 87.10672,399.53063990463255 87.07936,399.7221599046326 87.07936C399.85895990463257 87.07936,399.9683999046326 87.10672,400.05047990463254 87.21616C400.1872799046326 87.38032,400.1872799046326 87.35296,400.1872799046326 88.36528L400.1872799046326 88.77568L400.1872799046326 89.21344C400.1872799046326 90.22576,400.1872799046326 90.19839999999999,400.05047990463254 90.3352C399.9410399046326 90.44463999999999,399.9683999046326 90.44463999999999,398.7098399046326 90.7456C398.43623990463254 90.82768,398.18999990463254 90.90976,398.16263990463256 90.90976L398.1079199046326 90.90976L398.1079199046326 94.54864L398.0805599046326 98.21488L398.05319990463255 98.32432C397.9711199046326 98.5432,397.7522399046326 98.65264,397.5059999046326 98.65264C397.3418399046326 98.65264,397.0955999046326 98.5432,396.9861599046326 98.32432L396.95879990463254 98.21488L396.95879990463254 94.7128L396.95879990463254 91.21072L396.93143990463255 91.21072L396.30215990463256 91.37488L395.1256799046326 91.67584C394.82471990463256 91.75792,394.55111990463257 91.81264,394.55111990463257 91.81264C394.49639990463254 91.81264,394.49639990463254 92.00416,394.49639990463254 95.5336L394.49639990463254 99.30928L394.46903990463255 99.39135999999999C394.35959990463255 99.61024,394.1407199046326 99.71968,393.94919990463256 99.71968C393.73031990463255 99.71968,393.48407990463255 99.61024,393.37463990463255 99.39135999999999L393.34727990463256 99.30928L393.34727990463256 95.69776C393.34727990463256 92.35984,393.34727990463256 92.1136,393.31991990463257 92.1136C393.31991990463257 92.1136,393.31991990463257 92.1136,393.31991990463257 92.1136C393.0189599046326 92.19568,391.97927990463256 92.46928,391.86983990463256 92.46928C391.62359990463256 92.46928,391.4594399046326 92.30512,391.34999990463257 92.1136C391.34999990463257 92.00416,391.34999990463257 92.00416,391.34999990463257 90.71824L391.34999990463257 89.43232L391.37735990463256 89.32288C391.48679990463256 89.04928,391.48679990463256 89.04928,393.0189599046326 88.66624L393.34727990463256 88.58416L393.34727990463256 85.60192C393.34727990463256 82.83856,393.34727990463256 82.64704,393.31991990463257 82.64704C393.31991990463257 82.64704,393.31991990463257 82.64704,393.31991990463257 82.64704C393.0189599046326 82.72912,391.97927990463256 82.97536,391.86983990463256 82.97536C391.62359990463256 82.97536,391.4594399046326 82.83856,391.34999990463257 82.64704C391.34999990463257 82.5376,391.34999990463257 82.5376,391.34999990463257 81.25168L391.34999990463257 79.96576L391.37735990463256 79.85632C391.48679990463256 79.58272,391.48679990463256 79.58272,393.0189599046326 79.19968L393.34727990463256 79.1176L393.34727990463256 75.47872L393.34727990463256 71.83984L393.37463990463255 71.7304C393.48407990463255 71.53888,393.73031990463255 71.37472,393.94919990463256 71.37472C394.0312799046326 71.37472,394.08599990463256 71.42944,394.1680799046326 71.4568C394.2775199046326 71.48416,394.3869599046326 71.62096,394.46903990463255 71.7304L394.49639990463254 71.83984L394.49639990463254 75.34192L394.49639990463254 78.81664L394.6605599046326 78.81664C394.71527990463255 78.78928,395.20775990463255 78.67984,395.70023990463255 78.5704L396.7672799046326 78.24208L396.95879990463254 78.21472L396.95879990463254 74.49376L396.95879990463254 70.74544L396.9861599046326 70.66336C397.06823990463255 70.55392,397.15031990463257 70.41712,397.28711990463256 70.36240000000001M396.95879990463254 84.75376C396.95879990463254 83.0848,396.95879990463254 81.74416,396.95879990463254 81.74416L396.95879990463254 81.74416C396.93143990463255 81.74416,396.65783990463257 81.82624,396.32951990463255 81.90832L395.1256799046326 82.20928C394.82471990463256 82.29136,394.55111990463257 82.34608,394.55111990463257 82.34608C394.49639990463254 82.34608,394.49639990463254 82.51024,394.49639990463254 85.32832L394.49639990463254 88.33792L394.6605599046326 88.2832C394.71527990463255 88.25584,395.20775990463255 88.1464,395.70023990463255 88.03696L396.7672799046326 87.76336L396.95879990463254 87.68128L396.95879990463254 84.75376"/></g></g><text stroke-width="0.3" fill="black" stroke="none" stroke-dasharray="none" font-family="Serif" font-size="15pt" font-weight="normal" font-style="normal" x="49" y="149" width="15.5" height="0.5">♭I</text><text stroke-width="0.3" fill="black" stroke="none" stroke-dasharray="none" font-family="Serif" font-size="11.538461538461538pt" font-weight="normal" font-style="normal" x="67.0666675567627" y="140.0151516307484" width="15.5" height="0.5">+5</text><text stroke-width="0.3" fill="black" stroke="none" stroke-dasharray="none" font-family="Serif" font-size="15pt" font-weight="normal" font-style="normal" x="120.72499966621399" y="149" width="15.5" height="0.5">D♯/F</text><text stroke-width="0.3" fill="black" stroke="none" stroke-dasharray="none" font-family="Serif" font-size="11.538461538461538pt" font-weight="normal" font-style="normal" x="165.82499814033508" y="140.0151516307484" width="15.5" height="0.5">sus2</text><text stroke-width="0.3" fill="black" stroke="none" stroke-dasharray="none" font-family="Serif" font-size="15pt" font-weight="normal" font-style="normal" x="263.5999994277954" y="149" width="15.5" height="0.5">ii</text><text stroke-width="0.3" fill="black" stroke="none" stroke-dasharray="none" font-family="Serif" font-size="11.538461538461538pt" font-weight="normal" font-style="normal" x="278.69999980926514" y="140.0151516307484" width="15.5" height="0.5">6</text><text stroke-width="0.3" fill="black" stroke="none" stroke-dasharray="none" font-family="Serif" font-size="11.538461538461538pt" font-weight="normal" font-style="normal" x="278.69999980926514" y="156.9848483692516" width="15.5" height="0.5">4</text><text stroke-width="0.3" fill="black" stroke="none" stroke-dasharray="none" font-family="Serif" font-size="15pt" font-weight="normal" font-style="normal" x="325.1749994754791" y="149" width="15.5" height="0.5">C</text><text stroke-width="0.3" fill="black" stroke="none" stroke-dasharray="none" font-family="Serif" font-size="11.538461538461538pt" font-weight="normal" font-style="normal" x="342.508332490921" y="140.0151516307484" width="15.5" height="0.5">△7</text><text stroke-width="0.3" fill="black" stroke="none" stroke-dasharray="none" font-family="Serif" font-size="15pt" font-weight="normal" font-style="normal" x="403.34999990463257" y="149" width="15.5" height="0.5">vii</text><text stroke-width="0.3" fill="black" stroke="none" stroke-dasharray="none" font-family="Serif" font-size="11.538461538461538pt" font-weight="normal" font-style="normal" x="428.4500002861023" y="140.0151516307484" width="15.5" height="0.5">ø7</text><text stroke-width="0.3" fill="black" stroke="none" stroke-dasharray="none" font-family="Serif" font-size="15pt" font-weight="normal" font-style="normal" x="459.525000333786" y="149" width="15.5" height="0.5">V</text><text stroke-width="0.3" fill="black" stroke="none" stroke-dasharray="none" font-family="Serif" font-size="11.538461538461538pt" font-weight="normal" font-style="normal" x="477.9583327770233" y="140.0151516307484" width="15.5" height="0.5">7</text></svg>