<svg xmlns="http://www.w3.org/2000/svg" width="400" height="150" viewBox="0 0 444.44444444444446 166.66666666666666"><rect stroke-width="0.3" fill="#999999" stroke="#999999" stroke-dasharray="none" font-family="Arial" font-size="10pt" font-weight="normal" font-style="normal" x="10" y="49" width="399.5" height="1.5"/><rect stroke-width="0.3" fill="#999999" stroke="#999999" stroke-dasharray="none" font-family="Arial" font-size="10pt" font-weight="normal" font-style="normal" x="10" y="59" width="399.5" height="1.5"/><rect stroke-width="0.3" fill="#999999" stroke="#999999" stroke-dasharray="none" font-family="Arial" font-size="10pt" font-weight="normal" font-style="normal" x="10" y="69" width="399.5" height="1.5"/><rect stroke-width="0.3" fill="#999999" stroke="#999999" stroke-dasharray="none" font-family="Arial" font-size="10pt" font-weight="normal" font-style="normal" x="10" y="79" width="399.5" height="1.5"/><rect stroke-width="0.3" fill="#999999" stroke="#999999" stroke-dasharray="none" font-family="Arial" font-size="10pt" font-weight="normal" font-style="normal" x="10" y="89" width="399.5" height="1.5"/><rect stroke-width="0.3" fill="black" stroke="black" stroke-dasharray="none" font-family="Arial" font-size="10pt" font-weight="normal" font-style="normal" x="10" y="49" width="0.5" height="41.5"/><rect stroke-width="0.3" fill="black" stroke="black" stroke-dasharray="none" font-family="Arial" font-size="10pt" font-weight="normal" font-style="normal" x="410" y="49" width="0.5" height="41.5"/><rect stroke-width="0.3" fill="black" stroke="black" stroke-dasharray="none" font-family="Arial" font-size="10pt" font-weight="normal" font-style="normal" x="103.77777862548828" y="100" width="15.5" height="0.5"/><g class="vf-stavenote"><g class="vf-note" pointer-events="bounding-box"><g class="vf-stem" pointer-events="bounding-box"><path stroke-width="1.5" fill="none" stroke="black" stroke-dasharray="none" font-family="Arial" font-size="10pt" font-weight="normal" font-style="normal" x="103.77777862548828" y="100" width="15.5" height="0.5" d="M107.52777862548828 77L107.52777862548828 134"/></g><g class="vf-notehead" pointer-events="bounding-box"><rect stroke-width="0.3" fill="black" stroke="black" stroke-dasharray="none" font-family="Arial" font-size="10pt" font-weight="normal" font-style="normal" x="103.77777862548828" y="100" width="15.5" height="0.5"/><path stroke-width="0.3" fill="black" stroke="none" stroke-dasharray="none" font-family="Arial" font-size="10pt" font-weight="normal" font-style="normal" x="103.77777862548828" y="100" width="15.5" height="0.5" d="M106.77777862548828 100M113.38017862548828 95.3128C113.48097862548828 95.3128,113.63217862548828 95.3128,113.65737862548828 95.3128C113.65737862548828 95.3128,113.68257862548828 95.3128,113.68257862548828 95.3128C113.68257862548828 95.3128,113.83377862548828 95.3128,113.95977862548828 95.3128C116.22777862548828 95.4388,117.56337862548828 96.9256,117.56337862548828 98.7904C117.56337862548828 99.6976,117.26097862548828 100.7308,116.50497862548828 101.7136C115.06857862548829 103.654,112.72497862548828 104.7124,110.68377862548829 104.7124C109.09617862548828 104.7124,107.73537862548828 104.0824,107.08017862548829 102.7972C106.87857862548829 102.2932,106.77777862548828 101.8144,106.77777862548828 101.2852C106.77777862548828 98.5384,109.85217862548828 95.4892,113.38017862548828 95.3128M116.00097862548829 96.6988C115.90017862548828 96.6484,115.77417862548828 96.6232,115.64817862548828 96.6232C114.86697862548829 96.6232,113.55657862548829 97.102,112.29657862548828 97.9588C109.95297862548829 99.4204,108.03777862548829 101.5624,107.96217862548828 102.7972C107.96217862548828 102.7972,107.96217862548828 102.8224,107.96217862548828 102.8224C107.96217862548828 103.2508,108.23937862548829 103.4272,108.71817862548828 103.4272C109.75137862548829 103.4272,111.66657862548828 102.5452,113.43057862548828 101.134C115.24497862548829 99.6976,116.40417862548829 98.0848,116.40417862548829 97.2532C116.40417862548829 96.976,116.27817862548828 96.7492,116.00097862548829 96.6988"/></g><g class="vf-notehead" pointer-events="bounding-box"><path stroke-width="0.3" fill="black" stroke="none" stroke-dasharray="none" font-family="Arial" font-size="10pt" font-weight="normal" font-style="normal" x="103.77777862548828" y="100" width="15.5" height="0.5" d="M106.77777862548828 90M113.38017862548828 85.3128C113.48097862548828 85.3128,113.63217862548828 85.3128,113.65737862548828 85.3128C113.65737862548828 85.3128,113.68257862548828 85.3128,113.68257862548828 85.3128C113.68257862548828 85.3128,113.83377862548828 85.3128,113.95977862548828 85.3128C116.22777862548828 85.4388,117.56337862548828 86.9256,117.56337862548828 88.7904C117.56337862548828 89.6976,117.26097862548828 90.7308,116.50497862548828 91.7136C115.06857862548829 93.654,112.72497862548828 94.7124,110.68377862548829 94.7124C109.09617862548828 94.7124,107.73537862548828 94.0824,107.08017862548829 92.7972C106.87857862548829 92.2932,106.77777862548828 91.8144,106.77777862548828 91.2852C106.77777862548828 88.5384,109.85217862548828 85.4892,113.38017862548828 85.3128M116.00097862548829 86.6988C115.90017862548828 86.6484,115.77417862548828 86.6232,115.64817862548828 86.6232C114.86697862548829 86.6232,113.55657862548829 87.102,112.29657862548828 87.9588C109.95297862548829 89.4204,108.03777862548829 91.5624,107.96217862548828 92.7972C107.96217862548828 92.7972,107.96217862548828 92.8224,107.96217862548828 92.8224C107.96217862548828 93.2508,108.23937862548829 93.4272,108.71817862548828 93.4272C109.75137862548829 93.4272,111.66657862548828 92.5452,113.43057862548828 91.134C115.24497862548829 89.6976,116.40417862548829 88.0848,116.40417862548829 87.2532C116.40417862548829 86.976,116.27817862548828 86.7492,116.00097862548829 86.6988"/></g><g class="vf-notehead" pointer-events="bounding-box"><path stroke-width="0.3" fill="black" stroke="none" stroke-dasharray="none" font-family="Arial" font-size="10pt" font-weight="normal" font-style="normal" x="103.77777862548828" y="100" width="15.5" height="0.5" d="M106.77777862548828 75M113.38017862548828 70.3128C113.48097862548828 70.3128,113.63217862548828 70.3128,113.65737862548828 70.3128C113.65737862548828 70.3128,113.68257862548828 70.3128,113.68257862548828 70.3128C113.68257862548828 70.3128,113.83377862548828 70.3128,113.95977862548828 70.3128C116.22777862548828 70.4388,117.56337862548828 71.9256,117.56337862548828 73.7904C117.56337862548828 74.6976,117.26097862548828 75.7308,116.50497862548828 76.7136C115.06857862548829 78.654,112.72497862548828 79.7124,110.68377862548829 79.7124C109.09617862548828 79.7124,107.73537862548828 79.0824,107.08017862548829 77.7972C106.87857862548829 77.2932,106.77777862548828 76.8144,106.77777862548828 76.2852C106.77777862548828 73.5384,109.85217862548828 70.4892,113.38017862548828 70.3128M116.00097862548829 71.6988C115.90017862548828 71.6484,115.77417862548828 71.6232,115.64817862548828 71.6232C114.86697862548829 71.6232,113.55657862548829 72.102,112.29657862548828 72.9588C109.95297862548829 74.4204,108.03777862548829 76.5624,107.96217862548828 77.7972C107.96217862548828 77.7972,107.96217862548828 77.8224,107.96217862548828 77.8224C107.96217862548828 78.2508,108.23937862548829 78.4272,108.71817862548828 78.4272C109.75137862548829 78.4272,111.66657862548828 77.5452,113.43057862548828 76.134C115.24497862548829 74.6976,116.40417862548829 73.0848,116.40417862548829 72.2532C116.40417862548829 71.976,116.27817862548828 71.7492,116.00097862548829 71.6988"/></g></g><g class="vf-modifiers"><path stroke-width="0.3" fill="black" stroke="none" stroke-dasharray="none" font-family="Arial" font-size="10pt" font-weight="normal" font-style="normal" x="103.77777862548828" y="100" width="15.5" height="0.5" d="M84.77777862548828 100M84.55889862548828 82.73584C84.61361862548829 82.70848000000001,84.66833862548827 82.70848000000001,84.75041862548828 82.70848000000001C84.99665862548828 82.70848000000001,85.21553862548828 82.81792,85.29761862548828 83.0368C85.32497862548828 83.14624,85.32497862548828 83.14624,85.32497862548828 89.52112L85.32497862548828 95.95072L85.35233862548829 95.86864C86.39201862548828 94.99312,87.48641862548828 94.55536000000001,88.52609862548829 94.55536000000001C88.93649862548828 94.55536000000001,89.34689862548828 94.61008,89.75729862548827 94.77424C90.98849862548828 95.18464,91.64513862548829 96.33376,91.64513862548829 97.70176000000001C91.64513862548829 98.41312,91.42625862548829 99.20656,91.01585862548828 100C90.41393862548829 101.0944,89.64785862548828 101.96992,87.51377862548829 103.88512L85.40705862548828 105.8824C85.02401862548828 106.26544,84.94193862548828 106.26544,84.77777862548828 106.26544C84.53153862548828 106.26544,84.31265862548828 106.12864,84.23057862548828 105.90976L84.20321862548828 105.80032L84.20321862548828 94.50064L84.20321862548828 83.14624L84.23057862548828 83.0368C84.31265862548828 82.92736,84.42209862548827 82.7632,84.55889862548828 82.73584M87.78737862548829 96.41584C87.67793862548828 96.36112,87.51377862548829 96.36112,87.40433862548828 96.36112C87.32225862548827 96.36112,87.26753862548829 96.36112,87.21281862548828 96.36112C86.50145862548828 96.47056,85.87217862548827 96.90832,85.43441862548828 97.61968L85.32497862548828 97.8112L85.32497862548828 101.01232L85.32497862548828 104.26816L85.40705862548828 104.15872C87.40433862548828 101.96992,88.71761862548829 99.4528,88.71761862548829 97.78384L88.71761862548829 97.72912C88.71761862548829 96.90832,88.44401862548828 96.55264,87.78737862548829 96.41584"/><path stroke-width="0.3" fill="black" stroke="none" stroke-dasharray="none" font-family="Arial" font-size="10pt" font-weight="normal" font-style="normal" x="103.77777862548828" y="100" width="15.5" height="0.5" d="M94.77777862548828 90M100.71489862548827 75.36240000000001C100.79697862548828 75.30768,100.82433862548828 75.30768,100.93377862548829 75.30768C101.20737862548827 75.30768,101.39889862548829 75.41712,101.48097862548828 75.66336L101.50833862548828 75.74544L101.53569862548828 79.3296L101.53569862548828 82.94112L102.24705862548828 82.7496C102.65745862548827 82.64016,102.95841862548828 82.6128,103.14993862548828 82.6128C103.39617862548828 82.6128,103.50561862548828 82.69488,103.58769862548829 82.91376C103.61505862548827 82.99584,103.61505862548827 83.62512,103.61505862548827 84.30912000000001C103.61505862548827 84.96576,103.61505862548827 85.64976,103.58769862548829 85.67712C103.47825862548828 85.95072,103.39617862548828 85.97808,102.65745862548827 86.1696C101.72721862548828 86.41584,101.53569862548828 86.4432,101.53569862548828 86.4432C101.53569862548828 86.4432,101.53569862548828 87.15456,101.53569862548828 88.2216C101.53569862548828 88.60464,101.53569862548828 89.01504,101.53569862548828 89.4528L101.53569862548828 92.40768L102.24705862548828 92.21616C102.68481862548828 92.10672,102.95841862548828 92.07936,103.14993862548828 92.07936C103.28673862548828 92.07936,103.39617862548828 92.10672,103.47825862548828 92.21616C103.61505862548827 92.38032,103.61505862548827 92.35296,103.61505862548827 93.36528L103.61505862548827 93.77568L103.61505862548827 94.21344C103.61505862548827 95.22576,103.61505862548827 95.19839999999999,103.47825862548828 95.3352C103.36881862548827 95.44463999999999,103.39617862548828 95.44463999999999,102.13761862548829 95.7456C101.86401862548828 95.82768,101.61777862548828 95.90976,101.59041862548828 95.90976L101.53569862548828 95.90976L101.53569862548828 99.54864L101.50833862548828 103.21488L101.48097862548828 103.32432C101.39889862548829 103.5432,101.18001862548829 103.65264,100.93377862548829 103.65264C100.76961862548828 103.65264,100.52337862548828 103.5432,100.41393862548829 103.32432L100.38657862548828 103.21488L100.38657862548828 99.7128L100.38657862548828 96.21072L100.35921862548828 96.21072L99.72993862548829 96.37488L98.55345862548828 96.67584C98.25249862548829 96.75792,97.97889862548828 96.81264,97.97889862548828 96.81264C97.92417862548828 96.81264,97.92417862548828 97.00416,97.92417862548828 100.5336L97.92417862548828 104.30928L97.89681862548828 104.39135999999999C97.78737862548829 104.61024,97.56849862548827 104.71968,97.37697862548828 104.71968C97.15809862548828 104.71968,96.91185862548828 104.61024,96.80241862548829 104.39135999999999L96.77505862548828 104.30928L96.77505862548828 100.69776C96.77505862548828 97.35984,96.77505862548828 97.1136,96.74769862548828 97.1136C96.74769862548828 97.1136,96.74769862548828 97.1136,96.74769862548828 97.1136C96.44673862548828 97.19568,95.40705862548828 97.46928,95.29761862548828 97.46928C95.05137862548828 97.46928,94.88721862548829 97.30512,94.77777862548828 97.1136C94.77777862548828 97.00416,94.77777862548828 97.00416,94.77777862548828 95.71824L94.77777862548828 94.43232L94.80513862548828 94.32288C94.91457862548828 94.04928,94.91457862548828 94.04928,96.44673862548828 93.66624L96.77505862548828 93.58416L96.77505862548828 90.60192C96.77505862548828 87.83856,96.77505862548828 87.64704,96.74769862548828 87.64704C96.74769862548828 87.64704,96.74769862548828 87.64704,96.74769862548828 87.64704C96.44673862548828 87.72912,95.40705862548828 87.97536,95.29761862548828 87.97536C95.05137862548828 87.97536,94.88721862548829 87.83856,94.77777862548828 87.64704C94.77777862548828 87.5376,94.77777862548828 87.5376,94.77777862548828 86.25168L94.77777862548828 84.96576L94.80513862548828 84.85632C94.91457862548828 84.58272,94.91457862548828 84.58272,96.44673862548828 84.19968L96.77505862548828 84.1176L96.77505862548828 80.47872L96.77505862548828 76.83984L96.80241862548829 76.7304C96.91185862548828 76.53888,97.15809862548828 76.37472,97.37697862548828 76.37472C97.45905862548828 76.37472,97.51377862548829 76.42944,97.59585862548828 76.4568C97.70529862548828 76.48416,97.81473862548827 76.62096,97.89681862548828 76.7304L97.92417862548828 76.83984L97.92417862548828 80.34192L97.92417862548828 83.81664L98.08833862548828 83.81664C98.14305862548828 83.78928,98.63553862548828 83.67984,99.12801862548828 83.5704L100.19505862548829 83.24208L100.38657862548828 83.21472L100.38657862548828 79.49376L100.38657862548828 75.74544L100.41393862548829 75.66336C100.49601862548828 75.55392,100.57809862548828 75.41712,100.71489862548827 75.36240000000001M100.38657862548828 89.75376C100.38657862548828 88.0848,100.38657862548828 86.74416,100.38657862548828 86.74416L100.38657862548828 86.74416C100.35921862548828 86.74416,100.08561862548828 86.82624,99.75729862548827 86.90832L98.55345862548828 87.20928C98.25249862548829 87.29136,97.97889862548828 87.34608,97.97889862548828 87.34608C97.92417862548828 87.34608,97.92417862548828 87.51024,97.92417862548828 90.32832L97.92417862548828 93.33792L98.08833862548828 93.2832C98.14305862548828 93.25584,98.63553862548828 93.1464,99.12801862548828 93.03696L100.19505862548829 92.76336L100.38657862548828 92.68128L100.38657862548828 89.75376"/></g></g><g class="vf-stavenote"><g class="vf-note" pointer-events="bounding-box"><g class="vf-stem" pointer-events="bounding-box"><path stroke-width="1.5" fill="none" stroke="black" stroke-dasharray="none" font-family="Arial" font-size="10pt" font-weight="normal" font-style="normal" x="103.77777862548828" y="100" width="15.5" height="0.5" d="M201.8055534362793 87L201.8055534362793 129"/></g><g class="vf-notehead" pointer-events="bounding-box"><path stroke-width="0.3" fill="black" stroke="none" stroke-dasharray="none" font-family="Arial" font-size="10pt" font-weight="normal" font-style="normal" x="103.77777862548828" y="100" width="15.5" height="0.5" d="M201.0555534362793 95M207.65795343627929 90.3128C207.7587534362793 90.3128,207.9099534362793 90.3128,207.9351534362793 90.3128C207.9351534362793 90.3128,207.9603534362793 90.3128,207.9603534362793 90.3128C207.9603534362793 90.3128,208.1115534362793 90.3128,208.23755343627928 90.3128C210.50555343627929 90.4388,211.84115343627928 91.9256,211.84115343627928 93.7904C211.84115343627928 94.6976,211.5387534362793 95.7308,210.7827534362793 96.7136C209.3463534362793 98.654,207.0027534362793 99.7124,204.9615534362793 99.7124C203.3739534362793 99.7124,202.0131534362793 99.0824,201.3579534362793 97.7972C201.1563534362793 97.2932,201.0555534362793 96.8144,201.0555534362793 96.2852C201.0555534362793 93.5384,204.1299534362793 90.4892,207.65795343627929 90.3128"/></g><g class="vf-notehead" pointer-events="bounding-box"><path stroke-width="0.3" fill="black" stroke="none" stroke-dasharray="none" font-family="Arial" font-size="10pt" font-weight="normal" font-style="normal" x="103.77777862548828" y="100" width="15.5" height="0.5" d="M191.0555534362793 90M197.65795343627929 85.3128C197.7587534362793 85.3128,197.9099534362793 85.3128,197.9351534362793 85.3128C197.9351534362793 85.3128,197.9603534362793 85.3128,197.9603534362793 85.3128C197.9603534362793 85.3128,198.1115534362793 85.3128,198.23755343627928 85.3128C200.50555343627929 85.4388,201.84115343627928 86.9256,201.84115343627928 88.7904C201.84115343627928 89.6976,201.5387534362793 90.7308,200.7827534362793 91.7136C199.3463534362793 93.654,197.0027534362793 94.7124,194.9615534362793 94.7124C193.3739534362793 94.7124,192.0131534362793 94.0824,191.3579534362793 92.7972C191.1563534362793 92.2932,191.0555534362793 91.8144,191.0555534362793 91.2852C191.0555534362793 88.5384,194.1299534362793 85.4892,197.65795343627929 85.3128"/></g><g class="vf-notehead" pointer-events="bounding-box"><path stroke-width="0.3" fill="black" stroke="none" stroke-dasharray="none" font-family="Arial" font-size="10pt" font-weight="normal" font-style="normal" x="103.77777862548828" y="100" width="15.5" height="0.5" d="M201.0555534362793 85M207.65795343627929 80.3128C207.7587534362793 80.3128,207.9099534362793 80.3128,207.9351534362793 80.3128C207.9351534362793 80.3128,207.9603534362793 80.3128,207.9603534362793 80.3128C207.9603534362793 80.3128,208.1115534362793 80.3128,208.23755343627928 80.3128C210.50555343627929 80.4388,211.84115343627928 81.9256,211.84115343627928 83.7904C211.84115343627928 84.6976,211.5387534362793 85.7308,210.7827534362793 86.7136C209.3463534362793 88.654,207.0027534362793 89.7124,204.9615534362793 89.7124C203.3739534362793 89.7124,202.0131534362793 89.0824,201.3579534362793 87.7972C201.1563534362793 87.2932,201.0555534362793 86.8144,201.0555534362793 86.2852C201.0555534362793 83.5384,204.1299534362793 80.4892,207.65795343627929 80.3128"/></g></g><g class="vf-modifiers"/></g><rect stroke-width="0.3" fill="black" stroke="black" stroke-dasharray="none" font-family="Arial" font-size="10pt" font-weight="normal" font-style="normal" x="330.74999809265137" y="100" width="15.5" height="0.5"/><g class="vf-stavenote"><g class="vf-note" pointer-events="bounding-box"><g class="vf-stem" pointer-events="bounding-box"><path stroke-width="1.5" fill="none" stroke="black" stroke-dasharray="none" font-family="Arial" font-size="10pt" font-weight="normal" font-style="normal" x="330.74999809265137" y="100" width="15.5" height="0.5" d="M334.49999809265137 77L334.49999809265137 134"/></g><g class="vf-notehead" pointer-events="bounding-box"><rect stroke-width="0.3" fill="black" stroke="black" stroke-dasharray="none" font-family="Arial" font-size="10pt" font-weight="normal" font-style="normal" x="330.74999809265137" y="100" width="15.5" height="0.5"/><path stroke-width="0.3" fill="black" stroke="none" stroke-dasharray="none" font-family="Arial" font-size="10pt" font-weight="normal" font-style="normal" x="330.74999809265137" y="100" width="15.5" height="0.5" d="M333.74999809265137 100M340.35239809265136 95.3128C340.45319809265135 95.3128,340.60439809265137 95.3128,340.62959809265135 95.3128C340.62959809265135 95.3128,340.6547980926514 95.3128,340.6547980926514 95.3128C340.6547980926514 95.3128,340.80599809265135 95.3128,340.9319980926514 95.3128C343.19999809265136 95.4388,344.53559809265136 96.9256,344.53559809265136 98.7904C344.53559809265136 99.6976,344.2331980926514 100.7308,343.47719809265135 101.7136C342.04079809265136 103.654,339.6971980926514 104.7124,337.6559980926514 104.7124C336.06839809265136 104.7124,334.7075980926514 104.0824,334.05239809265134 102.7972C333.85079809265136 102.2932,333.74999809265137 101.8144,333.74999809265137 101.2852C333.74999809265137 98.5384,336.8243980926514 95.4892,340.35239809265136 95.3128"/></g><g class="vf-notehead" pointer-events="bounding-box"><path stroke-width="0.3" fill="black" stroke="none" stroke-dasharray="none" font-family="Arial" font-size="10pt" font-weight="normal" font-style="normal" x="330.74999809265137" y="100" width="15.5" height="0.5" d="M333.74999809265137 85M340.35239809265136 80.3128C340.45319809265135 80.3128,340.60439809265137 80.3128,340.62959809265135 80.3128C340.62959809265135 80.3128,340.6547980926514 80.3128,340.6547980926514 80.3128C340.6547980926514 80.3128,340.80599809265135 80.3128,340.9319980926514 80.3128C343.19999809265136 80.4388,344.53559809265136 81.9256,344.53559809265136 83.7904C344.53559809265136 84.6976,344.2331980926514 85.7308,343.47719809265135 86.7136C342.04079809265136 88.654,339.6971980926514 89.7124,337.6559980926514 89.7124C336.06839809265136 89.7124,334.7075980926514 89.0824,334.05239809265134 87.7972C333.85079809265136 87.2932,333.74999809265137 86.8144,333.74999809265137 86.2852C333.74999809265137 83.5384,336.8243980926514 80.4892,340.35239809265136 80.3128"/></g><g class="vf-notehead" pointer-events="bounding-box"><path stroke-width="0.3" fill="black" stroke="none" stroke-dasharray="none" font-family="Arial" font-size="10pt" font-weight="normal" font-style="normal" x="330.74999809265137" y="100" width="15.5" height="0.5" d="M333.74999809265137 75M340.35239809265136 70.3128C340.45319809265135 70.3128,340.60439809265137 70.3128,340.62959809265135 70.3128C340.62959809265135 70.3128,340.6547980926514 70.3128,340.6547980926514 70.3128C340.6547980926514 70.3128,340.80599809265135 70.3128,340.9319980926514 70.3128C343.19999809265136 70.4388,344.53559809265136 71.9256,344.53559809265136 73.7904C344.53559809265136 74.6976,344.2331980926514 75.7308,343.47719809265135 76.7136C342.04079809265136 78.654,339.6971980926514 79.7124,337.6559980926514 79.7124C336.06839809265136 79.7124,334.7075980926514 79.0824,334.05239809265134 77.7972C333.85079809265136 77.2932,333.74999809265137 76.8144,333.74999809265137 76.2852C333.74999809265137 73.5384,336.8243980926514 70.4892,340.35239809265136 70.3128"/></g></g><g class="vf-modifiers"><path stroke-width="0.3" fill="black" stroke="none" stroke-dasharray="none" font-family="Arial" font-size="10pt" font-weight="normal" font-style="normal" x="330.74999809265137" y="100" width="15.5" height="0.5" d="M311.74999809265137 100M312.02359809265135 87.4144C312.1056780926514 87.35968,312.13303809265136 87.35968,312.29719809265134 87.35968C312.51607809265136 87.35968,312.7075980926514 87.46912,312.8170380926514 87.71536L312.8443980926514 87.79744L312.8443980926514 91.08064C312.8443980926514 92.91376,312.8443980926514 94.3912,312.8443980926514 94.3912C312.8443980926514 94.3912,313.9387980926514 94.1176,315.22471809265136 93.78928C317.11255809265134 93.32416,317.57767809265135 93.18736,317.7691980926514 93.18736C317.8786380926514 93.18736,317.9059980926514 93.21472,317.96071809265135 93.24208C318.07015809265135 93.2968,318.17959809265136 93.40624,318.2616780926514 93.51568L318.28903809265137 93.62512L318.28903809265137 102.90016L318.28903809265137 112.25728L318.2616780926514 112.33936C318.1522380926514 112.55824,317.9059980926514 112.66768,317.7418380926514 112.66768C317.4955980926514 112.66768,317.2767180926514 112.55824,317.1672780926514 112.33936L317.1399180926514 112.25728L317.1399180926514 108.86464C317.1399180926514 106.78528,317.1399180926514 105.49936,317.1399180926514 105.49936C317.11255809265134 105.49936,316.0455180926514 105.7456,314.75959809265134 106.10128C312.89911809265135 106.5664,312.40663809265135 106.7032,312.2151180926514 106.7032C312.1056780926514 106.7032,312.1056780926514 106.67584,312.02359809265135 106.62112C311.91415809265135 106.59376,311.80471809265134 106.48432,311.74999809265137 106.37488L311.74999809265137 106.2928L311.74999809265137 97.04512L311.74999809265137 87.79744L311.74999809265137 87.71536C311.80471809265134 87.60592,311.91415809265135 87.46912,312.02359809265135 87.4144M317.1399180926514 99.39808C317.1399180926514 98.87824,317.1399180926514 98.41312,317.1399180926514 98.0848C317.1399180926514 96.90832,317.1399180926514 96.82624,317.11255809265134 96.82624L317.11255809265134 96.82624C317.11255809265134 96.82624,316.12759809265134 97.09984,314.97847809265136 97.34608L312.8443980926514 97.89328L312.8443980926514 100.49248C312.8443980926514 101.88784,312.8443980926514 103.06432,312.8443980926514 103.06432L315.00583809265135 102.54448L317.1399180926514 101.99728L317.1399180926514 99.39808"/><path stroke-width="0.3" fill="black" stroke="none" stroke-dasharray="none" font-family="Arial" font-size="10pt" font-weight="normal" font-style="normal" x="330.74999809265137" y="100" width="15.5" height="0.5" d="M321.74999809265137 85M327.68711809265136 70.36240000000001C327.7691980926514 70.30768,327.79655809265137 70.30768,327.9059980926514 70.30768C328.17959809265136 70.30768,328.3711180926514 70.41712,328.45319809265135 70.66336L328.4805580926514 70.74544L328.5079180926514 74.3296L328.5079180926514 77.94112L329.2192780926514 77.7496C329.6296780926514 77.64016,329.93063809265135 77.6128,330.1221580926514 77.6128C330.3683980926514 77.6128,330.4778380926514 77.69488,330.55991809265134 77.91376C330.5872780926514 77.99584,330.5872780926514 78.62512,330.5872780926514 79.30912000000001C330.5872780926514 79.96576,330.5872780926514 80.64976,330.55991809265134 80.67712C330.45047809265134 80.95072,330.3683980926514 80.97808,329.6296780926514 81.1696C328.69943809265135 81.41584,328.5079180926514 81.4432,328.5079180926514 81.4432C328.5079180926514 81.4432,328.5079180926514 82.15456,328.5079180926514 83.2216C328.5079180926514 83.60464,328.5079180926514 84.01504,328.5079180926514 84.4528L328.5079180926514 87.40768L329.2192780926514 87.21616C329.65703809265136 87.10672,329.93063809265135 87.07936,330.1221580926514 87.07936C330.25895809265137 87.07936,330.3683980926514 87.10672,330.45047809265134 87.21616C330.5872780926514 87.38032,330.5872780926514 87.35296,330.5872780926514 88.36528L330.5872780926514 88.77568L330.5872780926514 89.21344C330.5872780926514 90.22576,330.5872780926514 90.19839999999999,330.45047809265134 90.3352C330.3410380926514 90.44463999999999,330.3683980926514 90.44463999999999,329.1098380926514 90.7456C328.83623809265134 90.82768,328.58999809265134 90.90976,328.56263809265135 90.90976L328.5079180926514 90.90976L328.5079180926514 94.54864L328.4805580926514 98.21488L328.45319809265135 98.32432C328.3711180926514 98.5432,328.1522380926514 98.65264,327.9059980926514 98.65264C327.7418380926514 98.65264,327.4955980926514 98.5432,327.3861580926514 98.32432L327.35879809265134 98.21488L327.35879809265134 94.7128L327.35879809265134 91.21072L327.33143809265135 91.21072L326.70215809265136 91.37488L325.5256780926514 91.67584C325.22471809265136 91.75792,324.95111809265137 91.81264,324.95111809265137 91.81264C324.89639809265134 91.81264,324.89639809265134 92.00416,324.89639809265134 95.5336L324.89639809265134 99.30928L324.86903809265135 99.39135999999999C324.75959809265134 99.61024,324.5407180926514 99.71968,324.34919809265136 99.71968C324.13031809265135 99.71968,323.88407809265135 99.61024,323.77463809265134 99.39135999999999L323.74727809265136 99.30928L323.74727809265136 95.69776C323.74727809265136 92.35984,323.74727809265136 92.1136,323.71991809265137 92.1136C323.71991809265137 92.1136,323.71991809265137 92.1136,323.71991809265137 92.1136C323.4189580926514 92.19568,322.37927809265136 92.46928,322.26983809265136 92.46928C322.02359809265135 92.46928,321.8594380926514 92.30512,321.74999809265137 92.1136C321.74999809265137 92.00416,321.74999809265137 92.00416,321.74999809265137 90.71824L321.74999809265137 89.43232L321.77735809265135 89.32288C321.88679809265136 89.04928,321.88679809265136 89.04928,323.4189580926514 88.66624L323.74727809265136 88.58416L323.74727809265136 85.60192C323.74727809265136 82.83856,323.74727809265136 82.64704,323.71991809265137 82.64704C323.71991809265137 82.64704,323.71991809265137 82.64704,323.71991809265137 82.64704C323.4189580926514 82.72912,322.37927809265136 82.97536,322.26983809265136 82.97536C322.02359809265135 82.97536,321.8594380926514 82.83856,321.74999809265137 82.64704C321.74999809265137 82.5376,321.74999809265137 82.5376,321.74999809265137 81.25168L321.74999809265137 79.96576L321.77735809265135 79.85632C321.88679809265136 79.58272,321.88679809265136 79.58272,323.4189580926514 79.19968L323.74727809265136 79.1176L323.74727809265136 75.47872L323.74727809265136 71.83984L323.77463809265134 71.7304C323.88407809265135 71.53888,324.13031809265135 71.37472,324.34919809265136 71.37472C324.4312780926514 71.37472,324.48599809265136 71.42944,324.5680780926514 71.4568C324.6775180926514 71.48416,324.7869580926514 71.62096,324.86903809265135 71.7304L324.89639809265134 71.83984L324.89639809265134 75.34192L324.89639809265134 78.81664L325.0605580926514 78.81664C325.11527809265135 78.78928,325.60775809265135 78.67984,326.10023809265135 78.5704L327.1672780926514 78.24208L327.35879809265134 78.21472L327.35879809265134 74.49376L327.35879809265134 70.74544L327.3861580926514 70.66336C327.46823809265135 70.55392,327.55031809265137 70.41712,327.68711809265136 70.36240000000001M327.35879809265134 84.75376C327.35879809265134 83.0848,327.35879809265134 81.74416,327.35879809265134 81.74416L327.35879809265134 81.74416C327.33143809265135 81.74416,327.05783809265137 81.82624,326.72951809265135 81.90832L325.5256780926514 82.20928C325.22471809265136 82.29136,324.95111809265137 82.34608,324.95111809265137 82.34608C324.89639809265134 82.34608,324.89639809265134 82.51024,324.89639809265134 85.32832L324.89639809265134 88.33792L325.0605580926514 88.2832C325.11527809265135 88.25584,325.60775809265135 88.1464,326.10023809265135 88.03696L327.1672780926514 87.76336L327.35879809265134 87.68128L327.35879809265134 84.75376"/></g></g><text stroke-width="0.3" fill="black" stroke="none" stroke-dasharray="none" font-family="Arial" font-size="12pt" font-weight="normal" font-style="normal" x="38" y="19" width="15.5" height="0.5">Center Justification</text><text stroke-width="0.3" fill="black" stroke="none" stroke-dasharray="none" font-family="Arial" font-size="12pt" font-weight="normal" font-style="normal" x="201.0555534362793" y="29" width="15.5" height="0.5">Left Line 1</text><text stroke-width="0.3" fill="black" stroke="none" stroke-dasharray="none" font-family="Arial" font-size="12pt" font-weight="normal" font-style="normal" x="278.4166622161865" y="19" width="15.5" height="0.5">Right</text></svg>