<svg xmlns="http://www.w3.org/2000/svg" width="450" height="140" viewBox="0 0 500 155.55555555555554"><rect stroke-width="0.3" fill="#999999" stroke="#999999" stroke-dasharray="none" font-family="Arial" font-size="10pt" font-weight="normal" font-style="normal" x="10" y="49" width="449.5" height="1.5"/><rect stroke-width="0.3" fill="#999999" stroke="#999999" stroke-dasharray="none" font-family="Arial" font-size="10pt" font-weight="normal" font-style="normal" x="10" y="59" width="449.5" height="1.5"/><rect stroke-width="0.3" fill="#999999" stroke="#999999" stroke-dasharray="none" font-family="Arial" font-size="10pt" font-weight="normal" font-style="normal" x="10" y="69" width="449.5" height="1.5"/><rect stroke-width="0.3" fill="#999999" stroke="#999999" stroke-dasharray="none" font-family="Arial" font-size="10pt" font-weight="normal" font-style="normal" x="10" y="79" width="449.5" height="1.5"/><rect stroke-width="0.3" fill="#999999" stroke="#999999" stroke-dasharray="none" font-family="Arial" font-size="10pt" font-weight="normal" font-style="normal" x="10" y="89" width="449.5" height="1.5"/><rect stroke-width="0.3" fill="black" stroke="black" stroke-dasharray="none" font-family="Arial" font-size="10pt" font-weight="normal" font-style="normal" x="10" y="49" width="0.5" height="41.5"/><rect stroke-width="0.3" fill="black" stroke="black" stroke-dasharray="none" font-family="Arial" font-size="10pt" font-weight="normal" font-style="normal" x="460" y="49" width="0.5" height="41.5"/><path stroke-width="0.3" fill="black" stroke="none" stroke-dasharray="none" font-family="Arial" font-size="10pt" font-weight="normal" font-style="normal" x="460" y="49" width="0.5" height="41.5" d="M15 79M29.0544 35.8288C29.112000000000002 35.800000000000004,29.1696 35.800000000000004,29.256 35.800000000000004C29.601599999999998 35.800000000000004,30.0048 36.088,30.5808 36.808C32.9136 39.4864,34.5552 44.152,34.5552 47.9536C34.5552 48.241600000000005,34.4976 48.472,34.4976 48.760000000000005C34.2384 53.2816,32.3952 56.9968,28.7376 60.510400000000004L27.7584 61.4608L27.412799999999997 61.8352L27.412799999999997 61.9504L27.6144 62.8144L27.9312 64.3696L28.247999999999998 65.8096C28.68 67.768,28.852800000000002 68.776,28.852800000000002 68.776C28.852800000000002 68.776,28.852800000000002 68.776,28.852800000000002 68.776C28.852800000000002 68.776,28.968 68.776,29.112000000000002 68.74719999999999C29.256 68.74719999999999,29.7168 68.6896,30.206400000000002 68.6896C30.552 68.6896,30.897599999999997 68.74719999999999,31.0704 68.74719999999999C35.1312 69.2656,38.270399999999995 72.1744,39.1632 76.264C39.336 76.9264,39.3936 77.6464,39.3936 78.3664C39.3936 82.2544,37.0608 85.9696,33.172799999999995 87.7264C32.9424 87.8704,32.855999999999995 87.89920000000001,32.855999999999995 87.89920000000001L32.855999999999995 87.928C32.855999999999995 87.928,33.028800000000004 88.5904,33.172799999999995 89.3392L33.6048 91.528L34.007999999999996 93.2848C34.2384 94.408,34.3536 95.2144,34.3536 95.9344C34.3536 96.568,34.2672 97.144,34.1232 97.8064C33.144 101.8096,29.6592 104.2,26.0304 104.2C24.244799999999998 104.2,22.401600000000002 103.624,20.788800000000002 102.328C19.3488 101.11840000000001,18.7152 100.024,18.7152 98.584C18.7152 96.0496,20.759999999999998 94.264,22.891199999999998 94.264C23.64 94.264,24.3888 94.4944,25.108800000000002 94.9264C26.3184 95.7616,26.8656 97.0288,26.8656 98.2672C26.8656 100.168,25.540799999999997 102.03999999999999,23.2656 102.184L23.0352 102.184L23.208 102.2992C24.1584 102.7024,25.108800000000002 102.904,26.0304 102.904C28.3632 102.904,30.552 101.72319999999999,31.8768 99.6784C32.6256 98.5264,33.028800000000004 97.1728,33.028800000000004 95.8192C33.028800000000004 95.3008,32.9424 94.7824,32.827200000000005 94.2064C32.827200000000005 94.1488,32.7408 93.688,32.6256 93.256C31.992 90.1456,31.6176 88.3312,31.6176 88.3312C31.6176 88.3312,31.6176 88.3312,31.6176 88.3312C31.56 88.3312,31.4448 88.3312,31.3584 88.3888C31.0704 88.4464,30.465600000000002 88.5904,30.206400000000002 88.6192C29.5728 88.7056,28.968 88.7344,28.392 88.7344C22.7472 88.7344,17.5056 84.9328,15.6912 79.3168C15.2304 77.8192,14.9712 76.3216,14.9712 74.824C14.9712 71.8288,15.9216 68.8912,17.7648 66.2704C19.7808 63.419200000000004,21.7968 60.971199999999996,24.273600000000002 58.436800000000005L25.1376 57.544L24.936 56.4784L24.5616 54.7216L24.072 52.4752C23.927999999999997 51.64,23.755200000000002 50.833600000000004,23.726399999999998 50.6608C23.5824 49.7104,23.496000000000002 48.7888,23.496000000000002 47.8384C23.496000000000002 44.2096,24.6768 40.7248,26.894399999999997 37.931200000000004C27.5568 37.0672,28.7376 35.9152,29.0544 35.8288M30.8112 41.5312C30.7536 41.5312,30.6672 41.5312,30.5808 41.5312C29.4 41.5312,27.8736 42.6256,26.8368 44.2384C25.7712 45.8224,25.224 47.924800000000005,25.224 50.0848C25.224 50.6608,25.2528 51.2656,25.339199999999998 51.870400000000004C25.4256 52.302400000000006,25.4544 52.5904,25.6848 53.6272L26.088 55.4416C26.2032 55.9888,26.2896 56.4208,26.2896 56.4784L26.2896 56.4784C26.3184 56.4784,27.211199999999998 55.4992,27.499200000000002 55.1536C30.379199999999997 51.8992,32.1072 48.472,32.4816 45.448C32.510400000000004 45.160000000000004,32.510400000000004 44.9296,32.510400000000004 44.641600000000004C32.510400000000004 43.7488,32.3952 42.8848,32.1936 42.424C31.9632 41.9632,31.4448 41.5888,30.8112 41.5312M26.4624 63.7936C26.4048 63.3904,26.3184 63.0736,26.3184 63.016C26.3184 63.016,26.3184 63.016,26.2896 63.016C26.232 63.016,24.9936 64.456,24.1296 65.464C22.660800000000002 67.2496,21.1056 69.3808,20.472 70.4176C19.2624 72.4624,18.6576 74.7376,18.6576 76.984C18.6576 78.4528,18.9456 79.864,19.464 81.2176C21.019199999999998 85.2208,24.5904 87.7264,28.4784 87.7264C28.9392 87.7264,29.4576 87.6976,29.9472 87.6112C30.5808 87.496,31.3584 87.2656,31.3584 87.1792L31.3584 87.1792C31.3584 87.1792,31.3008 86.8912,31.2144 86.5744L30.379199999999997 82.456L29.7168 79.3744L29.284799999999997 77.2432L28.823999999999998 75.1696C28.593600000000002 73.9312,28.507199999999997 73.6144,28.507199999999997 73.6144C28.507199999999997 73.6144,28.507199999999997 73.5856,28.4784 73.5856C28.3056 73.5856,27.384 74.0464,26.980800000000002 74.3344C25.4832 75.3712,24.7056 77.0128,24.7056 78.6256C24.7056 80.152,25.4544 81.6784,26.894399999999997 82.5712C27.211199999999998 82.7728,27.3264 82.9456,27.3264 83.1472C27.3264 83.176,27.3264 83.2624,27.3264 83.2912C27.2688 83.6368,27.0672 83.7808,26.7792 83.7808C26.664 83.7808,26.52 83.752,26.3472 83.6656C23.6976 82.5136,21.912 79.7776,21.912 76.7824L21.912 76.7824C21.912 73.3264,24.072 70.3312,27.384 69.1504L27.5568 69.0928L27.2688 67.6528L26.4624 63.7936M30.7824 73.4128C30.552 73.384,30.3216 73.384,30.1488 73.384C30.0912 73.384,30.0048 73.384,29.9472 73.384L29.8032 73.384L29.9184 73.9024L30.5232 76.7248L30.897599999999997 78.568L31.3008 80.3824L32.1072 84.3856L32.424 85.912C32.5392 86.3152,32.5968 86.6608,32.6256 86.6608C32.6256 86.6608,32.6256 86.6608,32.6256 86.6608C32.654399999999995 86.6608,33.144 86.3728,33.4608 86.1424C34.9296 85.1056,36.024 83.4928,36.4272 81.8224C36.571200000000005 81.2752,36.6288 80.6992,36.6288 80.152C36.6288 76.8112,34.152 73.7872,30.7824 73.4128"/><rect stroke-width="0.3" fill="#999999" stroke="#999999" stroke-dasharray="none" font-family="Arial" font-size="10pt" font-weight="normal" font-style="normal" x="10" y="49" width="449.5" height="1.5"/><rect stroke-width="0.3" fill="#999999" stroke="#999999" stroke-dasharray="none" font-family="Arial" font-size="10pt" font-weight="normal" font-style="normal" x="10" y="59" width="449.5" height="1.5"/><rect stroke-width="0.3" fill="#999999" stroke="#999999" stroke-dasharray="none" font-family="Arial" font-size="10pt" font-weight="normal" font-style="normal" x="10" y="69" width="449.5" height="1.5"/><rect stroke-width="0.3" fill="#999999" stroke="#999999" stroke-dasharray="none" font-family="Arial" font-size="10pt" font-weight="normal" font-style="normal" x="10" y="79" width="449.5" height="1.5"/><rect stroke-width="0.3" fill="#999999" stroke="#999999" stroke-dasharray="none" font-family="Arial" font-size="10pt" font-weight="normal" font-style="normal" x="10" y="89" width="449.5" height="1.5"/><rect stroke-width="0.3" fill="black" stroke="black" stroke-dasharray="none" font-family="Arial" font-size="10pt" font-weight="normal" font-style="normal" x="10" y="49" width="0.5" height="41.5"/><rect stroke-width="0.3" fill="black" stroke="black" stroke-dasharray="none" font-family="Arial" font-size="10pt" font-weight="normal" font-style="normal" x="460" y="49" width="0.5" height="41.5"/><path stroke-width="0.3" fill="black" stroke="none" stroke-dasharray="none" font-family="Arial" font-size="10pt" font-weight="normal" font-style="normal" x="460" y="49" width="0.5" height="41.5" d="M15 79M29.0544 35.8288C29.112000000000002 35.800000000000004,29.1696 35.800000000000004,29.256 35.800000000000004C29.601599999999998 35.800000000000004,30.0048 36.088,30.5808 36.808C32.9136 39.4864,34.5552 44.152,34.5552 47.9536C34.5552 48.241600000000005,34.4976 48.472,34.4976 48.760000000000005C34.2384 53.2816,32.3952 56.9968,28.7376 60.510400000000004L27.7584 61.4608L27.412799999999997 61.8352L27.412799999999997 61.9504L27.6144 62.8144L27.9312 64.3696L28.247999999999998 65.8096C28.68 67.768,28.852800000000002 68.776,28.852800000000002 68.776C28.852800000000002 68.776,28.852800000000002 68.776,28.852800000000002 68.776C28.852800000000002 68.776,28.968 68.776,29.112000000000002 68.74719999999999C29.256 68.74719999999999,29.7168 68.6896,30.206400000000002 68.6896C30.552 68.6896,30.897599999999997 68.74719999999999,31.0704 68.74719999999999C35.1312 69.2656,38.270399999999995 72.1744,39.1632 76.264C39.336 76.9264,39.3936 77.6464,39.3936 78.3664C39.3936 82.2544,37.0608 85.9696,33.172799999999995 87.7264C32.9424 87.8704,32.855999999999995 87.89920000000001,32.855999999999995 87.89920000000001L32.855999999999995 87.928C32.855999999999995 87.928,33.028800000000004 88.5904,33.172799999999995 89.3392L33.6048 91.528L34.007999999999996 93.2848C34.2384 94.408,34.3536 95.2144,34.3536 95.9344C34.3536 96.568,34.2672 97.144,34.1232 97.8064C33.144 101.8096,29.6592 104.2,26.0304 104.2C24.244799999999998 104.2,22.401600000000002 103.624,20.788800000000002 102.328C19.3488 101.11840000000001,18.7152 100.024,18.7152 98.584C18.7152 96.0496,20.759999999999998 94.264,22.891199999999998 94.264C23.64 94.264,24.3888 94.4944,25.108800000000002 94.9264C26.3184 95.7616,26.8656 97.0288,26.8656 98.2672C26.8656 100.168,25.540799999999997 102.03999999999999,23.2656 102.184L23.0352 102.184L23.208 102.2992C24.1584 102.7024,25.108800000000002 102.904,26.0304 102.904C28.3632 102.904,30.552 101.72319999999999,31.8768 99.6784C32.6256 98.5264,33.028800000000004 97.1728,33.028800000000004 95.8192C33.028800000000004 95.3008,32.9424 94.7824,32.827200000000005 94.2064C32.827200000000005 94.1488,32.7408 93.688,32.6256 93.256C31.992 90.1456,31.6176 88.3312,31.6176 88.3312C31.6176 88.3312,31.6176 88.3312,31.6176 88.3312C31.56 88.3312,31.4448 88.3312,31.3584 88.3888C31.0704 88.4464,30.465600000000002 88.5904,30.206400000000002 88.6192C29.5728 88.7056,28.968 88.7344,28.392 88.7344C22.7472 88.7344,17.5056 84.9328,15.6912 79.3168C15.2304 77.8192,14.9712 76.3216,14.9712 74.824C14.9712 71.8288,15.9216 68.8912,17.7648 66.2704C19.7808 63.419200000000004,21.7968 60.971199999999996,24.273600000000002 58.436800000000005L25.1376 57.544L24.936 56.4784L24.5616 54.7216L24.072 52.4752C23.927999999999997 51.64,23.755200000000002 50.833600000000004,23.726399999999998 50.6608C23.5824 49.7104,23.496000000000002 48.7888,23.496000000000002 47.8384C23.496000000000002 44.2096,24.6768 40.7248,26.894399999999997 37.931200000000004C27.5568 37.0672,28.7376 35.9152,29.0544 35.8288M30.8112 41.5312C30.7536 41.5312,30.6672 41.5312,30.5808 41.5312C29.4 41.5312,27.8736 42.6256,26.8368 44.2384C25.7712 45.8224,25.224 47.924800000000005,25.224 50.0848C25.224 50.6608,25.2528 51.2656,25.339199999999998 51.870400000000004C25.4256 52.302400000000006,25.4544 52.5904,25.6848 53.6272L26.088 55.4416C26.2032 55.9888,26.2896 56.4208,26.2896 56.4784L26.2896 56.4784C26.3184 56.4784,27.211199999999998 55.4992,27.499200000000002 55.1536C30.379199999999997 51.8992,32.1072 48.472,32.4816 45.448C32.510400000000004 45.160000000000004,32.510400000000004 44.9296,32.510400000000004 44.641600000000004C32.510400000000004 43.7488,32.3952 42.8848,32.1936 42.424C31.9632 41.9632,31.4448 41.5888,30.8112 41.5312M26.4624 63.7936C26.4048 63.3904,26.3184 63.0736,26.3184 63.016C26.3184 63.016,26.3184 63.016,26.2896 63.016C26.232 63.016,24.9936 64.456,24.1296 65.464C22.660800000000002 67.2496,21.1056 69.3808,20.472 70.4176C19.2624 72.4624,18.6576 74.7376,18.6576 76.984C18.6576 78.4528,18.9456 79.864,19.464 81.2176C21.019199999999998 85.2208,24.5904 87.7264,28.4784 87.7264C28.9392 87.7264,29.4576 87.6976,29.9472 87.6112C30.5808 87.496,31.3584 87.2656,31.3584 87.1792L31.3584 87.1792C31.3584 87.1792,31.3008 86.8912,31.2144 86.5744L30.379199999999997 82.456L29.7168 79.3744L29.284799999999997 77.2432L28.823999999999998 75.1696C28.593600000000002 73.9312,28.507199999999997 73.6144,28.507199999999997 73.6144C28.507199999999997 73.6144,28.507199999999997 73.5856,28.4784 73.5856C28.3056 73.5856,27.384 74.0464,26.980800000000002 74.3344C25.4832 75.3712,24.7056 77.0128,24.7056 78.6256C24.7056 80.152,25.4544 81.6784,26.894399999999997 82.5712C27.211199999999998 82.7728,27.3264 82.9456,27.3264 83.1472C27.3264 83.176,27.3264 83.2624,27.3264 83.2912C27.2688 83.6368,27.0672 83.7808,26.7792 83.7808C26.664 83.7808,26.52 83.752,26.3472 83.6656C23.6976 82.5136,21.912 79.7776,21.912 76.7824L21.912 76.7824C21.912 73.3264,24.072 70.3312,27.384 69.1504L27.5568 69.0928L27.2688 67.6528L26.4624 63.7936M30.7824 73.4128C30.552 73.384,30.3216 73.384,30.1488 73.384C30.0912 73.384,30.0048 73.384,29.9472 73.384L29.8032 73.384L29.9184 73.9024L30.5232 76.7248L30.897599999999997 78.568L31.3008 80.3824L32.1072 84.3856L32.424 85.912C32.5392 86.3152,32.5968 86.6608,32.6256 86.6608C32.6256 86.6608,32.6256 86.6608,32.6256 86.6608C32.654399999999995 86.6608,33.144 86.3728,33.4608 86.1424C34.9296 85.1056,36.024 83.4928,36.4272 81.8224C36.571200000000005 81.2752,36.6288 80.6992,36.6288 80.152C36.6288 76.8112,34.152 73.7872,30.7824 73.4128"/><path stroke-width="0.3" fill="black" stroke="none" stroke-dasharray="none" font-family="Arial" font-size="10pt" font-weight="normal" font-style="normal" x="460" y="49" width="0.5" height="41.5" d="M55.578 70M60.589200000000005 51.3376C60.6468 51.3376,60.848400000000005 51.3376,61.0788 51.3376C61.4532 51.3376,61.914 51.3376,62.058 51.3376C64.7076 51.625600000000006,66.7812 53.0656,67.1556 54.9376C67.2132 55.1104,67.2132 55.312,67.2132 55.5136C67.2132 55.744,67.2132 55.9456,67.1556 56.0608C66.7812 57.4144,65.19720000000001 58.6528,63.181200000000004 59.2576C63.037200000000006 59.315200000000004,62.979600000000005 59.315200000000004,62.979600000000005 59.344C62.979600000000005 59.344,62.979600000000005 59.344,62.979600000000005 59.344C63.0084 59.344,63.094800000000006 59.3728,63.181200000000004 59.3728C65.91720000000001 60.3808,67.3572 62.3104,67.3572 64.1824C67.3572 65.6224,66.55080000000001 67.0048,64.7364 67.9264C63.6708 68.5024,62.49 68.7616,61.338 68.7616C59.437200000000004 68.7616,57.565200000000004 68.0416,56.2404 66.7456C55.750800000000005 66.2848,55.578 65.7088,55.578 65.1328C55.578 63.952,56.4132 62.8288,57.7956 62.8288L57.7956 62.8288C59.178000000000004 62.8288,59.955600000000004 63.8944,59.955600000000004 64.9888C59.955600000000004 65.824,59.5236 66.6592,58.5444 67.0624C58.5444 67.0624,58.5444 67.0624,58.5444 67.0624C58.5444 67.0912,59.3796 67.264,59.811600000000006 67.2928C59.869200000000006 67.2928,59.9268 67.2928,59.9844 67.2928C61.885200000000005 67.2928,63.21 65.9392,63.21 64.0672C63.21 63.8656,63.21 63.6928,63.181200000000004 63.4912C62.8644 61.3888,61.4532 59.833600000000004,59.811600000000006 59.775999999999996C59.4084 59.7472,59.2068 59.5744,59.2068 59.315200000000004C59.2068 58.9696,59.3796 58.8256,59.811600000000006 58.8256C61.22280000000001 58.7392,62.4324 57.7888,62.8932 56.3488C63.0084 56.0608,63.037200000000006 55.772800000000004,63.037200000000006 55.5424C63.037200000000006 54.3328,62.144400000000005 53.2384,60.8196 52.9504C60.618 52.864000000000004,60.3588 52.864000000000004,60.070800000000006 52.864000000000004C59.6676 52.864000000000004,59.293200000000006 52.8928,58.89 52.9504L58.774800000000006 52.9792L58.89 53.0656C59.6388 53.4688,59.955600000000004 54.1888,59.955600000000004 54.9088C59.955600000000004 55.8592,59.322 56.8096,58.2276 57.068799999999996C58.083600000000004 57.0976,57.9108 57.0976,57.7668 57.0976C56.4996 57.0976,55.549200000000006 55.9456,55.549200000000006 54.736000000000004C55.549200000000006 54.217600000000004,55.722 53.699200000000005,56.154 53.2672C57.162000000000006 52.172799999999995,58.6884 51.5392,60.589200000000005 51.3376M61.4532 70.0288L61.482 70.0288L61.3956 70.0288L61.4532 70.0288M61.4532 50.617599999999996L61.482 50.617599999999996L61.3956 50.617599999999996L61.4532 50.617599999999996"/><path stroke-width="0.3" fill="black" stroke="none" stroke-dasharray="none" font-family="Arial" font-size="10pt" font-weight="normal" font-style="normal" x="460" y="49" width="0.5" height="41.5" d="M54.46065 90M60.71025 71.33760000000001C60.94065 71.33760000000001,61.22865 71.3088,61.51665 71.3088C64.33905 71.3088,66.84465 72.864,67.50705 75.1392C67.56465 75.5136,67.65105 75.8592,67.65105 76.2336C67.65105 77.328,67.16145 78.5376,66.32625 79.344C66.32625 79.3728,66.29745 79.3728,66.29745 79.3728C66.29745 79.4304,66.32625 79.4304,66.41265 79.488C67.76625 80.4672,68.51505 81.9072,68.51505 83.3472C68.51505 84.0096,68.37105 84.64320000000001,68.05425 85.248C66.95985 87.5232,64.19505 88.7616,61.459050000000005 88.7616C59.587050000000005 88.7616,57.68625 88.2144,56.27505 87.0048C55.03665 85.968,54.46065 84.64320000000001,54.46065 83.28960000000001C54.46065 81.8496,55.15185 80.4672,56.563050000000004 79.488L56.67825 79.3728L56.53425 79.2288C55.67025 78.3072,55.29585 77.2992,55.29585 76.2912C55.29585 73.9584,57.42705 71.712,60.71025 71.33760000000001M61.89105 72.576C61.74705 72.576,61.57425 72.5472,61.43025 72.5472C60.16305 72.5472,58.98225 73.29599999999999,58.98225 74.1024C58.98225 74.2176,59.03985 74.3328,59.06865 74.4192C59.52945 75.5136,61.43025 76.9824,63.64785 78.1056L64.16625 78.3936L64.19505 78.3072C64.59825000000001 77.6736,64.79985 76.9824,64.79985 76.2912C64.79985 74.5344,63.61905 72.864,61.89105 72.576M58.435050000000004 80.6112C58.31985 80.5536,58.20465 80.496,58.20465 80.496C58.20465 80.496,58.20465 80.496,58.20465 80.496C58.11825 80.496,57.68625 80.9856,57.54225 81.21600000000001C57.081450000000004 81.9072,56.879850000000005 82.6272,56.879850000000005 83.3472C56.879850000000005 85.5072,58.80945 87.5232,61.459050000000005 87.5232C61.51665 87.5232,61.54545 87.4944,61.63185 87.4944C63.18705 87.4656,64.45425 86.544,64.45425 85.5072C64.45425 85.3344,64.39665 85.1904,64.36785 85.0464C63.82065 83.4624,61.86225 81.9072,58.953450000000004 80.8128C58.80945 80.7264,58.60785 80.6688,58.435050000000004 80.6112M61.459050000000005 90.0288L61.51665 90.0288L61.43025 90.0288L61.459050000000005 90.0288M61.459050000000005 70.6176L61.51665 70.6176L61.43025 70.6176L61.459050000000005 70.6176"/><g class="vf-stavenote"><g class="vf-note" pointer-events="bounding-box"><g class="vf-notehead" pointer-events="bounding-box"><path stroke-width="0.3" fill="black" stroke="none" stroke-dasharray="none" font-family="Arial" font-size="10pt" font-weight="normal" font-style="normal" x="460" y="49" width="0.5" height="41.5" d="M80.5335 70M87.1359 65.3128C87.2367 65.3128,87.3879 65.3128,87.4131 65.3128C87.4131 65.3128,87.4383 65.3128,87.4383 65.3128C87.4383 65.3128,87.5895 65.3128,87.7155 65.3128C89.9835 65.4388,91.3191 66.9256,91.3191 68.7904C91.3191 69.6976,91.0167 70.7308,90.2607 71.7136C88.82430000000001 73.654,86.4807 74.7124,84.43950000000001 74.7124C82.8519 74.7124,81.4911 74.0824,80.83590000000001 72.7972C80.63430000000001 72.2932,80.5335 71.8144,80.5335 71.2852C80.5335 68.5384,83.6079 65.4892,87.1359 65.3128"/></g></g><g class="vf-modifiers"/></g><g class="vf-stavenote"><g class="vf-note" pointer-events="bounding-box"><g class="vf-notehead" pointer-events="bounding-box"><path stroke-width="0.3" fill="black" stroke="none" stroke-dasharray="none" font-family="Arial" font-size="10pt" font-weight="normal" font-style="normal" x="460" y="49" width="0.5" height="41.5" d="M112.08905555555556 75M118.69145555555556 70.3128C118.79225555555556 70.3128,118.94345555555556 70.3128,118.96865555555556 70.3128C118.96865555555556 70.3128,118.99385555555556 70.3128,118.99385555555556 70.3128C118.99385555555556 70.3128,119.14505555555556 70.3128,119.27105555555556 70.3128C121.53905555555556 70.4388,122.87465555555556 71.9256,122.87465555555556 73.7904C122.87465555555556 74.6976,122.57225555555556 75.7308,121.81625555555556 76.7136C120.37985555555557 78.654,118.03625555555556 79.7124,115.99505555555557 79.7124C114.40745555555556 79.7124,113.04665555555556 79.0824,112.39145555555557 77.7972C112.18985555555557 77.2932,112.08905555555556 76.8144,112.08905555555556 76.2852C112.08905555555556 73.5384,115.16345555555556 70.4892,118.69145555555556 70.3128"/></g></g><g class="vf-modifiers"/></g><g class="vf-stavenote"><g class="vf-note" pointer-events="bounding-box"><g class="vf-notehead" pointer-events="bounding-box"><path stroke-width="0.3" fill="black" stroke="none" stroke-dasharray="none" font-family="Arial" font-size="10pt" font-weight="normal" font-style="normal" x="460" y="49" width="0.5" height="41.5" d="M143.64461111111112 80M150.2470111111111 75.3128C150.34781111111113 75.3128,150.49901111111112 75.3128,150.52421111111113 75.3128C150.52421111111113 75.3128,150.5494111111111 75.3128,150.5494111111111 75.3128C150.5494111111111 75.3128,150.70061111111113 75.3128,150.8266111111111 75.3128C153.0946111111111 75.4388,154.4302111111111 76.9256,154.4302111111111 78.7904C154.4302111111111 79.6976,154.12781111111113 80.7308,153.37181111111113 81.7136C151.9354111111111 83.654,149.59181111111113 84.7124,147.55061111111112 84.7124C145.96301111111111 84.7124,144.60221111111113 84.0824,143.94701111111112 82.7972C143.7454111111111 82.2932,143.64461111111112 81.8144,143.64461111111112 81.2852C143.64461111111112 78.5384,146.71901111111112 75.4892,150.2470111111111 75.3128"/></g></g><g class="vf-modifiers"/></g><g class="vf-stavenote"><g class="vf-note" pointer-events="bounding-box"><g class="vf-notehead" pointer-events="bounding-box"><path stroke-width="0.3" fill="black" stroke="none" stroke-dasharray="none" font-family="Arial" font-size="10pt" font-weight="normal" font-style="normal" x="460" y="49" width="0.5" height="41.5" d="M175.2001666666667 75M181.80256666666668 70.3128C181.9033666666667 70.3128,182.0545666666667 70.3128,182.0797666666667 70.3128C182.0797666666667 70.3128,182.10496666666668 70.3128,182.10496666666668 70.3128C182.10496666666668 70.3128,182.2561666666667 70.3128,182.38216666666668 70.3128C184.65016666666668 70.4388,185.98576666666668 71.9256,185.98576666666668 73.7904C185.98576666666668 74.6976,185.6833666666667 75.7308,184.9273666666667 76.7136C183.49096666666668 78.654,181.1473666666667 79.7124,179.1061666666667 79.7124C177.5185666666667 79.7124,176.1577666666667 79.0824,175.5025666666667 77.7972C175.30096666666668 77.2932,175.2001666666667 76.8144,175.2001666666667 76.2852C175.2001666666667 73.5384,178.2745666666667 70.4892,181.80256666666668 70.3128"/></g></g><g class="vf-modifiers"/></g><g class="vf-stavenote"><g class="vf-note" pointer-events="bounding-box"><g class="vf-notehead" pointer-events="bounding-box"><path stroke-width="0.3" fill="black" stroke="none" stroke-dasharray="none" font-family="Arial" font-size="10pt" font-weight="normal" font-style="normal" x="460" y="49" width="0.5" height="41.5" d="M204.5335 85M211.1359 80.3128C211.2367 80.3128,211.3879 80.3128,211.41310000000001 80.3128C211.41310000000001 80.3128,211.4383 80.3128,211.4383 80.3128C211.4383 80.3128,211.58950000000002 80.3128,211.7155 80.3128C213.9835 80.4388,215.3191 81.9256,215.3191 83.7904C215.3191 84.6976,215.01670000000001 85.7308,214.2607 86.7136C212.8243 88.654,210.4807 89.7124,208.4395 89.7124C206.8519 89.7124,205.49110000000002 89.0824,204.8359 87.7972C204.6343 87.2932,204.5335 86.8144,204.5335 86.2852C204.5335 83.5384,207.6079 80.4892,211.1359 80.3128"/></g></g><g class="vf-modifiers"/></g><g class="vf-stavenote"><g class="vf-note" pointer-events="bounding-box"><g class="vf-notehead" pointer-events="bounding-box"><path stroke-width="0.3" fill="black" stroke="none" stroke-dasharray="none" font-family="Arial" font-size="10pt" font-weight="normal" font-style="normal" x="460" y="49" width="0.5" height="41.5" d="M233.86683333333335 75M240.46923333333334 70.3128C240.57003333333336 70.3128,240.72123333333334 70.3128,240.74643333333336 70.3128C240.74643333333336 70.3128,240.77163333333334 70.3128,240.77163333333334 70.3128C240.77163333333334 70.3128,240.92283333333336 70.3128,241.04883333333333 70.3128C243.31683333333334 70.4388,244.65243333333333 71.9256,244.65243333333333 73.7904C244.65243333333333 74.6976,244.35003333333336 75.7308,243.59403333333336 76.7136C242.15763333333334 78.654,239.81403333333336 79.7124,237.77283333333335 79.7124C236.18523333333334 79.7124,234.82443333333336 79.0824,234.16923333333335 77.7972C233.96763333333334 77.2932,233.86683333333335 76.8144,233.86683333333335 76.2852C233.86683333333335 73.5384,236.94123333333334 70.4892,240.46923333333334 70.3128"/></g></g><g class="vf-modifiers"/></g><g class="vf-stavenote"><g class="vf-note" pointer-events="bounding-box"><g class="vf-notehead" pointer-events="bounding-box"><path stroke-width="0.3" fill="black" stroke="none" stroke-dasharray="none" font-family="Arial" font-size="10pt" font-weight="normal" font-style="normal" x="460" y="49" width="0.5" height="41.5" d="M263.2001666666667 85M269.8025666666667 80.3128C269.90336666666667 80.3128,270.0545666666667 80.3128,270.07976666666667 80.3128C270.07976666666667 80.3128,270.1049666666667 80.3128,270.1049666666667 80.3128C270.1049666666667 80.3128,270.2561666666667 80.3128,270.3821666666667 80.3128C272.6501666666667 80.4388,273.9857666666667 81.9256,273.9857666666667 83.7904C273.9857666666667 84.6976,273.6833666666667 85.7308,272.92736666666667 86.7136C271.4909666666667 88.654,269.1473666666667 89.7124,267.1061666666667 89.7124C265.5185666666667 89.7124,264.1577666666667 89.0824,263.50256666666667 87.7972C263.3009666666667 87.2932,263.2001666666667 86.8144,263.2001666666667 86.2852C263.2001666666667 83.5384,266.2745666666667 80.4892,269.8025666666667 80.3128"/></g></g><g class="vf-modifiers"/></g><g class="vf-stavenote"><g class="vf-note" pointer-events="bounding-box"><g class="vf-notehead" pointer-events="bounding-box"><path stroke-width="0.3" fill="black" stroke="none" stroke-dasharray="none" font-family="Arial" font-size="10pt" font-weight="normal" font-style="normal" x="460" y="49" width="0.5" height="41.5" d="M292.5335 75M299.1359 70.3128C299.2367 70.3128,299.3879 70.3128,299.4131 70.3128C299.4131 70.3128,299.4383 70.3128,299.4383 70.3128C299.4383 70.3128,299.5895 70.3128,299.7155 70.3128C301.9835 70.4388,303.3191 71.9256,303.3191 73.7904C303.3191 74.6976,303.0167 75.7308,302.2607 76.7136C300.8243 78.654,298.4807 79.7124,296.4395 79.7124C294.8519 79.7124,293.4911 79.0824,292.8359 77.7972C292.6343 77.2932,292.5335 76.8144,292.5335 76.2852C292.5335 73.5384,295.60790000000003 70.4892,299.1359 70.3128"/></g></g><g class="vf-modifiers"/></g><g class="vf-stavenote"><g class="vf-note" pointer-events="bounding-box"><g class="vf-notehead" pointer-events="bounding-box"><path stroke-width="0.3" fill="black" stroke="none" stroke-dasharray="none" font-family="Arial" font-size="10pt" font-weight="normal" font-style="normal" x="460" y="49" width="0.5" height="41.5" d="M321.8668333333333 85M328.4692333333333 80.3128C328.5700333333333 80.3128,328.7212333333333 80.3128,328.7464333333333 80.3128C328.7464333333333 80.3128,328.77163333333334 80.3128,328.77163333333334 80.3128C328.77163333333334 80.3128,328.9228333333333 80.3128,329.04883333333333 80.3128C331.3168333333333 80.4388,332.6524333333333 81.9256,332.6524333333333 83.7904C332.6524333333333 84.6976,332.35003333333333 85.7308,331.5940333333333 86.7136C330.1576333333333 88.654,327.8140333333333 89.7124,325.7728333333333 89.7124C324.1852333333333 89.7124,322.82443333333333 89.0824,322.1692333333333 87.7972C321.9676333333333 87.2932,321.8668333333333 86.8144,321.8668333333333 86.2852C321.8668333333333 83.5384,324.94123333333334 80.4892,328.4692333333333 80.3128"/></g></g><g class="vf-modifiers"/></g><g class="vf-stavenote"><g class="vf-note" pointer-events="bounding-box"><g class="vf-notehead" pointer-events="bounding-box"><path stroke-width="0.3" fill="black" stroke="none" stroke-dasharray="none" font-family="Arial" font-size="10pt" font-weight="normal" font-style="normal" x="460" y="49" width="0.5" height="41.5" d="M351.20016666666663 80M357.8025666666666 75.3128C357.9033666666666 75.3128,358.05456666666663 75.3128,358.0797666666666 75.3128C358.0797666666666 75.3128,358.10496666666666 75.3128,358.10496666666666 75.3128C358.10496666666666 75.3128,358.2561666666666 75.3128,358.38216666666665 75.3128C360.6501666666666 75.4388,361.9857666666666 76.9256,361.9857666666666 78.7904C361.9857666666666 79.6976,361.68336666666664 80.7308,360.9273666666666 81.7136C359.4909666666666 83.654,357.14736666666664 84.7124,355.10616666666664 84.7124C353.51856666666663 84.7124,352.15776666666665 84.0824,351.5025666666666 82.7972C351.3009666666666 82.2932,351.20016666666663 81.8144,351.20016666666663 81.2852C351.20016666666663 78.5384,354.27456666666666 75.4892,357.8025666666666 75.3128"/></g></g><g class="vf-modifiers"/></g><path stroke-width="0.3" fill="black" stroke="none" stroke-dasharray="none" font-family="Arial" font-size="10pt" font-weight="normal" font-style="normal" x="460" y="49" width="0.5" height="41.5" d="M117.19570305555555 31.333333333333336M120.70354305555556 18.269653333333338C120.74386305555555 18.269653333333338,120.88498305555555 18.269653333333338,121.04626305555556 18.269653333333338C121.30834305555555 18.269653333333338,121.63090305555555 18.269653333333338,121.73170305555556 18.269653333333338C123.58642305555556 18.471253333333337,125.03794305555556 19.479253333333336,125.30002305555556 20.789653333333334C125.34034305555555 20.910613333333337,125.34034305555555 21.051733333333335,125.34034305555555 21.192853333333336C125.34034305555555 21.354133333333337,125.34034305555555 21.495253333333338,125.30002305555556 21.575893333333333C125.03794305555556 22.523413333333338,123.92914305555556 23.390293333333336,122.51794305555555 23.813653333333335C122.41714305555556 23.853973333333336,122.37682305555555 23.853973333333336,122.37682305555555 23.874133333333337C122.37682305555555 23.874133333333337,122.37682305555555 23.874133333333337,122.37682305555555 23.874133333333337C122.39698305555555 23.874133333333337,122.45746305555555 23.894293333333337,122.51794305555555 23.894293333333337C124.43314305555556 24.599893333333334,125.44114305555556 25.950613333333337,125.44114305555556 27.261013333333334C125.44114305555556 28.269013333333337,124.87666305555555 29.236693333333335,123.60658305555556 29.881813333333337C122.86066305555556 30.285013333333335,122.03410305555556 30.466453333333337,121.22770305555555 30.466453333333337C119.89714305555556 30.466453333333337,118.58674305555556 29.962453333333336,117.65938305555555 29.055253333333336C117.31666305555555 28.732693333333337,117.19570305555555 28.329493333333335,117.19570305555555 27.926293333333334C117.19570305555555 27.099733333333337,117.78034305555555 26.313493333333334,118.74802305555555 26.313493333333334L118.74802305555555 26.313493333333334C119.71570305555555 26.313493333333334,120.26002305555555 27.059413333333335,120.26002305555555 27.825493333333334C120.26002305555555 28.410133333333334,119.95762305555556 28.994773333333335,119.27218305555556 29.277013333333336C119.27218305555556 29.277013333333336,119.27218305555556 29.277013333333336,119.27218305555556 29.277013333333336C119.27218305555556 29.297173333333337,119.85682305555555 29.418133333333337,120.15922305555556 29.438293333333334C120.19954305555555 29.438293333333334,120.23986305555556 29.438293333333334,120.28018305555555 29.438293333333334C121.61074305555556 29.438293333333334,122.53810305555555 28.490773333333337,122.53810305555555 27.180373333333335C122.53810305555555 27.039253333333335,122.53810305555555 26.918293333333335,122.51794305555555 26.777173333333337C122.29618305555556 25.305493333333335,121.30834305555555 24.216853333333336,120.15922305555556 24.176533333333335C119.87698305555556 24.156373333333335,119.73586305555555 24.035413333333334,119.73586305555555 23.853973333333336C119.73586305555555 23.612053333333336,119.85682305555555 23.511253333333336,120.15922305555556 23.511253333333336C121.14706305555555 23.450773333333334,121.99378305555555 22.785493333333335,122.31634305555555 21.777493333333336C122.39698305555555 21.575893333333333,122.41714305555556 21.374293333333334,122.41714305555556 21.213013333333336C122.41714305555556 20.366293333333335,121.79218305555555 19.600213333333336,120.86482305555556 19.398613333333337C120.72370305555556 19.338133333333335,120.54226305555555 19.338133333333335,120.34066305555555 19.338133333333335C120.05842305555555 19.338133333333335,119.79634305555555 19.358293333333336,119.51410305555555 19.398613333333337L119.43346305555555 19.418773333333334L119.51410305555555 19.479253333333336C120.03826305555556 19.761493333333334,120.26002305555555 20.265493333333335,120.26002305555555 20.769493333333337C120.26002305555555 21.434773333333336,119.81650305555556 22.100053333333335,119.05042305555556 22.281493333333337C118.94962305555555 22.301653333333334,118.82866305555555 22.301653333333334,118.72786305555556 22.301653333333334C117.84082305555556 22.301653333333334,117.17554305555555 21.495253333333338,117.17554305555555 20.648533333333333C117.17554305555555 20.285653333333336,117.29650305555556 19.922773333333335,117.59890305555555 19.620373333333333C118.30450305555556 18.854293333333334,119.37298305555555 18.410773333333335,120.70354305555556 18.269653333333338M121.30834305555555 31.353493333333336L121.32850305555556 31.353493333333336L121.26802305555556 31.353493333333336L121.30834305555555 31.353493333333336M121.30834305555555 17.765653333333333L121.32850305555556 17.765653333333333L121.26802305555556 17.765653333333333L121.30834305555555 17.765653333333333"/><path stroke-width="0.3" fill="black" stroke="none" stroke-dasharray="none" font-family="Arial" font-size="10pt" font-weight="normal" font-style="normal" x="460" y="49" width="0.5" height="41.5" d="M258.87391166666663 40.333333333333336M261.83743166666665 27.269653333333338C261.9583916666666 27.249493333333334,262.0995116666666 27.249493333333334,262.22047166666664 27.249493333333334C263.24863166666665 27.249493333333334,264.3775916666666 27.632533333333335,265.18399166666666 28.277653333333333C265.38559166666664 28.479253333333336,265.48639166666663 28.499413333333337,265.7283116666666 28.499413333333337L265.7484716666666 28.499413333333337C266.27263166666665 28.499413333333337,266.7363116666666 28.217173333333335,267.17983166666664 27.672853333333336C267.2604716666666 27.531733333333335,267.36127166666665 27.471253333333337,267.4822316666666 27.471253333333337C267.56287166666664 27.471253333333337,267.64351166666665 27.491413333333334,267.7241516666666 27.592213333333333C267.7644716666666 27.632533333333335,267.78463166666666 27.672853333333336,267.78463166666666 27.773653333333336C267.78463166666666 27.914773333333336,267.7241516666666 28.176853333333334,267.5427116666666 28.862293333333334C267.0991916666666 30.414613333333335,266.47423166666664 32.06773333333334,265.9702316666666 32.89429333333334C265.42591166666665 33.80149333333333,265.18399166666666 34.325653333333335,264.92191166666663 35.111893333333335C264.57919166666665 36.20053333333333,264.3775916666666 37.510933333333334,264.3775916666666 38.63989333333333C264.3775916666666 39.022933333333334,264.3574316666666 39.14389333333334,264.2163116666666 39.22453333333333L264.1356716666666 39.24469333333334L262.5228716666666 39.24469333333334L260.8697516666666 39.24469333333334L260.80927166666663 39.22453333333333C260.78911166666666 39.204373333333336,260.7286316666666 39.14389333333334,260.70847166666664 39.10357333333334L260.66815166666663 39.063253333333336L260.66815166666663 38.781013333333334C260.66815166666663 37.652053333333335,261.1116716666666 36.26101333333334,261.83743166666665 35.03125333333334C262.4220716666666 34.02325333333334,263.1478316666666 33.17653333333334,264.1356716666666 32.24917333333333C265.2243116666666 31.281493333333337,265.90975166666664 30.475093333333334,266.4943916666666 29.426773333333337L266.57503166666663 29.285653333333336L266.43391166666663 29.366293333333335C265.5871916666666 30.011413333333337,264.61951166666665 30.354133333333337,263.7123116666666 30.354133333333337C262.8655916666666 30.354133333333337,262.0995116666666 30.071893333333335,261.4745516666666 29.547733333333333C261.0511916666666 29.205013333333333,260.78911166666666 29.043733333333336,260.56735166666664 29.043733333333336C260.50687166666665 29.043733333333336,260.4463916666666 29.043733333333336,260.4060716666666 29.063893333333333C260.0633516666666 29.144533333333335,259.7407916666666 29.648533333333333,259.4988716666666 30.515413333333335C259.41823166666666 30.797653333333336,259.3577516666666 30.858133333333335,259.15615166666663 30.858133333333335C259.0351916666666 30.858133333333335,258.95455166666665 30.837973333333338,258.8940716666666 30.717013333333334L258.87391166666663 30.656533333333336L258.87391166666663 29.184853333333336L258.87391166666663 27.693013333333333L258.8940716666666 27.632533333333335C258.95455166666665 27.531733333333335,259.05535166666664 27.471253333333337,259.19647166666664 27.471253333333337C259.2166316666666 27.471253333333337,259.27711166666666 27.491413333333334,259.33759166666664 27.531733333333335C259.5996716666666 27.713173333333337,259.66015166666665 27.713173333333337,259.86175166666663 27.713173333333337C260.0633516666666 27.713173333333337,260.4867116666666 27.632533333333335,260.80927166666663 27.471253333333337C260.8697516666666 27.471253333333337,260.93023166666666 27.451093333333333,260.9705516666666 27.451093333333333C261.03103166666665 27.410773333333335,261.13183166666664 27.390613333333334,261.23263166666663 27.350293333333333C261.3939116666666 27.330133333333336,261.6358316666666 27.269653333333338,261.83743166666665 27.269653333333338M263.30911166666664 40.35349333333333L263.3292716666666 40.35349333333333L263.2889516666666 40.35349333333333L263.30911166666664 40.35349333333333M263.30911166666664 26.765653333333333L263.3292716666666 26.765653333333333L263.2889516666666 26.765653333333333L263.30911166666664 26.765653333333333"/><path stroke-width="0.3" fill="black" stroke="none" stroke-dasharray="none" font-family="Arial" font-size="10pt" font-weight="normal" font-style="normal" x="460" y="49" width="0.5" height="41.5" d="M273.95187666666664 30.759999999999998 A1.68 1.68 0 0 1 270.5918766666666 30.759999999999998M0 0M270.5918766666666 30.759999999999998 A1.68 1.68 0 0 1 273.95187666666664 30.759999999999998M0 0Z"/><path stroke-width="0.3" fill="black" stroke="none" stroke-dasharray="none" font-family="Arial" font-size="10pt" font-weight="normal" font-style="normal" x="460" y="49" width="0.5" height="41.5" d="M273.95187666666664 36.36 A1.68 1.68 0 0 1 270.5918766666666 36.36M0 0M270.5918766666666 36.36 A1.68 1.68 0 0 1 273.95187666666664 36.36M0 0Z"/><path stroke-width="0.3" fill="black" stroke="none" stroke-dasharray="none" font-family="Arial" font-size="10pt" font-weight="normal" font-style="normal" x="460" y="49" width="0.5" height="41.5" d="M276.75187666666665 40.333333333333336M280.72339666666664 27.269653333333338C280.80403666666666 27.269653333333338,280.94515666666666 27.269653333333338,281.10643666666664 27.269653333333338C281.42899666666665 27.269653333333338,281.85235666666665 27.269653333333338,281.95315666666664 27.309973333333335C283.46515666666664 27.491413333333334,284.67475666666667 28.257493333333336,285.19891666666666 29.325973333333337C285.38035666666667 29.688853333333334,285.46099666666663 30.071893333333335,285.46099666666663 30.475093333333334C285.46099666666663 31.462933333333336,284.91667666666666 32.59189333333333,283.92883666666665 33.438613333333336C283.2433966666666 34.02325333333334,282.55795666666666 34.38613333333333,281.48947666666663 34.72885333333333C280.09843666666666 35.17237333333333,278.90899666666667 35.95861333333333,278.1429166666666 36.90613333333334C278.1429166666666 36.90613333333334,278.1429166666666 36.926293333333334,278.1429166666666 36.926293333333334C278.1429166666666 36.926293333333334,278.1429166666666 36.926293333333334,278.1429166666666 36.926293333333334C278.1429166666666 36.926293333333334,278.20339666666666 36.90613333333334,278.24371666666667 36.84565333333334C279.00979666666666 36.22069333333334,280.0379566666667 35.85781333333333,280.96531666666664 35.85781333333333C281.7313966666666 35.85781333333333,282.27571666666665 35.99893333333333,283.00147666666663 36.40213333333334C283.44499666666667 36.623893333333335,283.84819666666664 36.724693333333335,284.23123666666663 36.724693333333335C284.39251666666667 36.724693333333335,284.55379666666664 36.724693333333335,284.73523666666665 36.68437333333333C284.9973166666666 36.623893333333335,285.2795566666666 36.422293333333336,285.38035666666667 36.26101333333334C285.44083666666666 36.11989333333334,285.54163666666665 36.05941333333334,285.6625966666667 36.05941333333334C285.82387666666665 36.05941333333334,285.9851566666666 36.180373333333335,285.9851566666666 36.36181333333334C285.9851566666666 36.50293333333334,285.8037166666667 37.006933333333336,285.64243666666664 37.349653333333336C284.9973166666666 38.63989333333333,283.86835666666667 39.44629333333334,282.7797166666667 39.44629333333334C282.69907666666666 39.44629333333334,282.6385966666667 39.44629333333334,282.55795666666666 39.42613333333333C282.27571666666665 39.42613333333333,282.15475666666663 39.34549333333334,281.79187666666667 39.10357333333334C281.0257966666666 38.59957333333334,280.05811666666665 38.337493333333335,279.21139666666664 38.337493333333335C278.8485166666666 38.337493333333335,278.5259566666667 38.377813333333336,278.22355666666664 38.49877333333333C277.82035666666667 38.63989333333333,277.4373166666667 38.881813333333334,277.31635666666665 39.063253333333336C277.25587666666667 39.204373333333336,277.1550766666667 39.24469333333334,277.03411666666665 39.24469333333334C276.93331666666666 39.24469333333334,276.83251666666666 39.204373333333336,276.7720366666666 39.08341333333333L276.73171666666667 39.022933333333334L276.73171666666667 38.74069333333333C276.73171666666667 38.49877333333333,276.75187666666665 38.41813333333334,276.75187666666665 38.337493333333335C276.7720366666666 38.277013333333336,276.79219666666665 38.15605333333333,276.79219666666665 38.05525333333333C277.1550766666667 36.36181333333334,278.3848366666667 34.84981333333334,280.05811666666665 34.10389333333333C281.42899666666665 33.45877333333333,282.33619666666664 32.30965333333334,282.49747666666667 30.858133333333335C282.5377966666666 30.737173333333335,282.5377966666666 30.636373333333335,282.5377966666666 30.515413333333335C282.5377966666666 29.225173333333338,281.57011666666665 28.338133333333335,280.19923666666665 28.338133333333335C280.09843666666666 28.338133333333335,279.97747666666663 28.338133333333335,279.87667666666664 28.338133333333335C279.67507666666666 28.358293333333336,279.61459666666667 28.358293333333336,279.61459666666667 28.398613333333337C279.61459666666667 28.398613333333337,279.61459666666667 28.418773333333334,279.67507666666666 28.459093333333335C280.13875666666667 28.721173333333333,280.3605166666666 29.225173333333338,280.3605166666666 29.709013333333335C280.3605166666666 30.333973333333333,280.0379566666667 30.918613333333333,279.41299666666663 31.160533333333333C279.21139666666664 31.221013333333335,279.00979666666666 31.241173333333336,278.8485166666666 31.241173333333336C278.0017966666666 31.241173333333336,277.2961966666667 30.515413333333335,277.2961966666667 29.648533333333333C277.2961966666667 29.487253333333335,277.2961966666667 29.325973333333337,277.3365166666666 29.144533333333335C277.63891666666666 28.217173333333335,279.07027666666664 27.451093333333333,280.72339666666664 27.269653333333338M281.34835666666663 40.35349333333333L281.38867666666664 40.35349333333333L281.32819666666666 40.35349333333333L281.34835666666663 40.35349333333333M281.34835666666663 26.765653333333333L281.38867666666664 26.765653333333333L281.32819666666666 26.765653333333333L281.34835666666663 26.765653333333333"/><path stroke-width="1.5" fill="none" stroke="black" stroke-dasharray="none" font-family="Arial" font-size="10pt" font-weight="normal" font-style="normal" x="460" y="49" width="0.5" height="41.5" d="M90.5335 69.5L90.5335 34.5"/><path stroke-width="1.5" fill="none" stroke="black" stroke-dasharray="none" font-family="Arial" font-size="10pt" font-weight="normal" font-style="normal" x="460" y="49" width="0.5" height="41.5" d="M122.08905555555556 74.5L122.08905555555556 37.65555555555555"/><path stroke-width="1.5" fill="none" stroke="black" stroke-dasharray="none" font-family="Arial" font-size="10pt" font-weight="normal" font-style="normal" x="460" y="49" width="0.5" height="41.5" d="M153.64461111111112 79.5L153.64461111111112 40.81111111111111"/><path stroke-width="0.3" fill="black" stroke="none" stroke-dasharray="none" font-family="Arial" font-size="10pt" font-weight="normal" font-style="normal" x="460" y="49" width="0.5" height="41.5" d="M89.7835 34L89.7835 39L154.39461111111112 45.36111111111111L154.39461111111112 40.36111111111111Z"/><path stroke-width="0.3" fill="black" stroke="none" stroke-dasharray="none" font-family="Arial" font-size="10pt" font-weight="normal" font-style="normal" x="460" y="49" width="0.5" height="41.5" d="M89.7835 41.5L89.7835 46.5L154.39461111111112 52.86111111111111L154.39461111111112 47.86111111111111Z"/><path stroke-width="1.5" fill="none" stroke="black" stroke-dasharray="none" font-family="Arial" font-size="10pt" font-weight="normal" font-style="normal" x="460" y="49" width="0.5" height="41.5" d="M185.2001666666667 74.5L185.2001666666667 43.5"/><path stroke-width="1.5" fill="none" stroke="black" stroke-dasharray="none" font-family="Arial" font-size="10pt" font-weight="normal" font-style="normal" x="460" y="49" width="0.5" height="41.5" d="M214.5335 84.5L214.5335 43.5"/><path stroke-width="1.5" fill="none" stroke="black" stroke-dasharray="none" font-family="Arial" font-size="10pt" font-weight="normal" font-style="normal" x="460" y="49" width="0.5" height="41.5" d="M243.86683333333335 74.5L243.86683333333335 43.5"/><path stroke-width="1.5" fill="none" stroke="black" stroke-dasharray="none" font-family="Arial" font-size="10pt" font-weight="normal" font-style="normal" x="460" y="49" width="0.5" height="41.5" d="M273.2001666666667 84.5L273.2001666666667 43.5"/><path stroke-width="1.5" fill="none" stroke="black" stroke-dasharray="none" font-family="Arial" font-size="10pt" font-weight="normal" font-style="normal" x="460" y="49" width="0.5" height="41.5" d="M302.5335 74.5L302.5335 43.49999999999999"/><path stroke-width="1.5" fill="none" stroke="black" stroke-dasharray="none" font-family="Arial" font-size="10pt" font-weight="normal" font-style="normal" x="460" y="49" width="0.5" height="41.5" d="M331.8668333333333 84.5L331.8668333333333 43.49999999999999"/><path stroke-width="1.5" fill="none" stroke="black" stroke-dasharray="none" font-family="Arial" font-size="10pt" font-weight="normal" font-style="normal" x="460" y="49" width="0.5" height="41.5" d="M361.20016666666663 79.5L361.20016666666663 43.49999999999999"/><path stroke-width="0.3" fill="black" stroke="none" stroke-dasharray="none" font-family="Arial" font-size="10pt" font-weight="normal" font-style="normal" x="460" y="49" width="0.5" height="41.5" d="M184.4501666666667 43L184.4501666666667 48L361.95016666666663 47.99999999999999L361.95016666666663 42.99999999999999Z"/></svg>