<svg xmlns="http://www.w3.org/2000/svg" width="450" height="140" viewBox="0 0 500 155.55555555555554"><rect stroke-width="0.3" fill="#999999" stroke="#999999" stroke-dasharray="none" font-family="Arial" font-size="10pt" font-weight="normal" font-style="normal" x="10" y="49" width="449.5" height="1.5"/><rect stroke-width="0.3" fill="#999999" stroke="#999999" stroke-dasharray="none" font-family="Arial" font-size="10pt" font-weight="normal" font-style="normal" x="10" y="59" width="449.5" height="1.5"/><rect stroke-width="0.3" fill="#999999" stroke="#999999" stroke-dasharray="none" font-family="Arial" font-size="10pt" font-weight="normal" font-style="normal" x="10" y="69" width="449.5" height="1.5"/><rect stroke-width="0.3" fill="#999999" stroke="#999999" stroke-dasharray="none" font-family="Arial" font-size="10pt" font-weight="normal" font-style="normal" x="10" y="79" width="449.5" height="1.5"/><rect stroke-width="0.3" fill="#999999" stroke="#999999" stroke-dasharray="none" font-family="Arial" font-size="10pt" font-weight="normal" font-style="normal" x="10" y="89" width="449.5" height="1.5"/><rect stroke-width="0.3" fill="black" stroke="black" stroke-dasharray="none" font-family="Arial" font-size="10pt" font-weight="normal" font-style="normal" x="10" y="49" width="0.5" height="41.5"/><rect stroke-width="0.3" fill="black" stroke="black" stroke-dasharray="none" font-family="Arial" font-size="10pt" font-weight="normal" font-style="normal" x="460" y="49" width="0.5" height="41.5"/><path stroke-width="0.3" fill="black" stroke="none" stroke-dasharray="none" font-family="Arial" font-size="10pt" font-weight="normal" font-style="normal" x="460" y="49" width="0.5" height="41.5" d="M15 79M29.0544 35.8288C29.112000000000002 35.800000000000004,29.1696 35.800000000000004,29.256 35.800000000000004C29.601599999999998 35.800000000000004,30.0048 36.088,30.5808 36.808C32.9136 39.4864,34.5552 44.152,34.5552 47.9536C34.5552 48.241600000000005,34.4976 48.472,34.4976 48.760000000000005C34.2384 53.2816,32.3952 56.9968,28.7376 60.510400000000004L27.7584 61.4608L27.412799999999997 61.8352L27.412799999999997 61.9504L27.6144 62.8144L27.9312 64.3696L28.247999999999998 65.8096C28.68 67.768,28.852800000000002 68.776,28.852800000000002 68.776C28.852800000000002 68.776,28.852800000000002 68.776,28.852800000000002 68.776C28.852800000000002 68.776,28.968 68.776,29.112000000000002 68.74719999999999C29.256 68.74719999999999,29.7168 68.6896,30.206400000000002 68.6896C30.552 68.6896,30.897599999999997 68.74719999999999,31.0704 68.74719999999999C35.1312 69.2656,38.270399999999995 72.1744,39.1632 76.264C39.336 76.9264,39.3936 77.6464,39.3936 78.3664C39.3936 82.2544,37.0608 85.9696,33.172799999999995 87.7264C32.9424 87.8704,32.855999999999995 87.89920000000001,32.855999999999995 87.89920000000001L32.855999999999995 87.928C32.855999999999995 87.928,33.028800000000004 88.5904,33.172799999999995 89.3392L33.6048 91.528L34.007999999999996 93.2848C34.2384 94.408,34.3536 95.2144,34.3536 95.9344C34.3536 96.568,34.2672 97.144,34.1232 97.8064C33.144 101.8096,29.6592 104.2,26.0304 104.2C24.244799999999998 104.2,22.401600000000002 103.624,20.788800000000002 102.328C19.3488 101.11840000000001,18.7152 100.024,18.7152 98.584C18.7152 96.0496,20.759999999999998 94.264,22.891199999999998 94.264C23.64 94.264,24.3888 94.4944,25.108800000000002 94.9264C26.3184 95.7616,26.8656 97.0288,26.8656 98.2672C26.8656 100.168,25.540799999999997 102.03999999999999,23.2656 102.184L23.0352 102.184L23.208 102.2992C24.1584 102.7024,25.108800000000002 102.904,26.0304 102.904C28.3632 102.904,30.552 101.72319999999999,31.8768 99.6784C32.6256 98.5264,33.028800000000004 97.1728,33.028800000000004 95.8192C33.028800000000004 95.3008,32.9424 94.7824,32.827200000000005 94.2064C32.827200000000005 94.1488,32.7408 93.688,32.6256 93.256C31.992 90.1456,31.6176 88.3312,31.6176 88.3312C31.6176 88.3312,31.6176 88.3312,31.6176 88.3312C31.56 88.3312,31.4448 88.3312,31.3584 88.3888C31.0704 88.4464,30.465600000000002 88.5904,30.206400000000002 88.6192C29.5728 88.7056,28.968 88.7344,28.392 88.7344C22.7472 88.7344,17.5056 84.9328,15.6912 79.3168C15.2304 77.8192,14.9712 76.3216,14.9712 74.824C14.9712 71.8288,15.9216 68.8912,17.7648 66.2704C19.7808 63.419200000000004,21.7968 60.971199999999996,24.273600000000002 58.436800000000005L25.1376 57.544L24.936 56.4784L24.5616 54.7216L24.072 52.4752C23.927999999999997 51.64,23.755200000000002 50.833600000000004,23.726399999999998 50.6608C23.5824 49.7104,23.496000000000002 48.7888,23.496000000000002 47.8384C23.496000000000002 44.2096,24.6768 40.7248,26.894399999999997 37.931200000000004C27.5568 37.0672,28.7376 35.9152,29.0544 35.8288M30.8112 41.5312C30.7536 41.5312,30.6672 41.5312,30.5808 41.5312C29.4 41.5312,27.8736 42.6256,26.8368 44.2384C25.7712 45.8224,25.224 47.924800000000005,25.224 50.0848C25.224 50.6608,25.2528 51.2656,25.339199999999998 51.870400000000004C25.4256 52.302400000000006,25.4544 52.5904,25.6848 53.6272L26.088 55.4416C26.2032 55.9888,26.2896 56.4208,26.2896 56.4784L26.2896 56.4784C26.3184 56.4784,27.211199999999998 55.4992,27.499200000000002 55.1536C30.379199999999997 51.8992,32.1072 48.472,32.4816 45.448C32.510400000000004 45.160000000000004,32.510400000000004 44.9296,32.510400000000004 44.641600000000004C32.510400000000004 43.7488,32.3952 42.8848,32.1936 42.424C31.9632 41.9632,31.4448 41.5888,30.8112 41.5312M26.4624 63.7936C26.4048 63.3904,26.3184 63.0736,26.3184 63.016C26.3184 63.016,26.3184 63.016,26.2896 63.016C26.232 63.016,24.9936 64.456,24.1296 65.464C22.660800000000002 67.2496,21.1056 69.3808,20.472 70.4176C19.2624 72.4624,18.6576 74.7376,18.6576 76.984C18.6576 78.4528,18.9456 79.864,19.464 81.2176C21.019199999999998 85.2208,24.5904 87.7264,28.4784 87.7264C28.9392 87.7264,29.4576 87.6976,29.9472 87.6112C30.5808 87.496,31.3584 87.2656,31.3584 87.1792L31.3584 87.1792C31.3584 87.1792,31.3008 86.8912,31.2144 86.5744L30.379199999999997 82.456L29.7168 79.3744L29.284799999999997 77.2432L28.823999999999998 75.1696C28.593600000000002 73.9312,28.507199999999997 73.6144,28.507199999999997 73.6144C28.507199999999997 73.6144,28.507199999999997 73.5856,28.4784 73.5856C28.3056 73.5856,27.384 74.0464,26.980800000000002 74.3344C25.4832 75.3712,24.7056 77.0128,24.7056 78.6256C24.7056 80.152,25.4544 81.6784,26.894399999999997 82.5712C27.211199999999998 82.7728,27.3264 82.9456,27.3264 83.1472C27.3264 83.176,27.3264 83.2624,27.3264 83.2912C27.2688 83.6368,27.0672 83.7808,26.7792 83.7808C26.664 83.7808,26.52 83.752,26.3472 83.6656C23.6976 82.5136,21.912 79.7776,21.912 76.7824L21.912 76.7824C21.912 73.3264,24.072 70.3312,27.384 69.1504L27.5568 69.0928L27.2688 67.6528L26.4624 63.7936M30.7824 73.4128C30.552 73.384,30.3216 73.384,30.1488 73.384C30.0912 73.384,30.0048 73.384,29.9472 73.384L29.8032 73.384L29.9184 73.9024L30.5232 76.7248L30.897599999999997 78.568L31.3008 80.3824L32.1072 84.3856L32.424 85.912C32.5392 86.3152,32.5968 86.6608,32.6256 86.6608C32.6256 86.6608,32.6256 86.6608,32.6256 86.6608C32.654399999999995 86.6608,33.144 86.3728,33.4608 86.1424C34.9296 85.1056,36.024 83.4928,36.4272 81.8224C36.571200000000005 81.2752,36.6288 80.6992,36.6288 80.152C36.6288 76.8112,34.152 73.7872,30.7824 73.4128"/><rect stroke-width="0.3" fill="#999999" stroke="#999999" stroke-dasharray="none" font-family="Arial" font-size="10pt" font-weight="normal" font-style="normal" x="10" y="49" width="449.5" height="1.5"/><rect stroke-width="0.3" fill="#999999" stroke="#999999" stroke-dasharray="none" font-family="Arial" font-size="10pt" font-weight="normal" font-style="normal" x="10" y="59" width="449.5" height="1.5"/><rect stroke-width="0.3" fill="#999999" stroke="#999999" stroke-dasharray="none" font-family="Arial" font-size="10pt" font-weight="normal" font-style="normal" x="10" y="69" width="449.5" height="1.5"/><rect stroke-width="0.3" fill="#999999" stroke="#999999" stroke-dasharray="none" font-family="Arial" font-size="10pt" font-weight="normal" font-style="normal" x="10" y="79" width="449.5" height="1.5"/><rect stroke-width="0.3" fill="#999999" stroke="#999999" stroke-dasharray="none" font-family="Arial" font-size="10pt" font-weight="normal" font-style="normal" x="10" y="89" width="449.5" height="1.5"/><rect stroke-width="0.3" fill="black" stroke="black" stroke-dasharray="none" font-family="Arial" font-size="10pt" font-weight="normal" font-style="normal" x="10" y="49" width="0.5" height="41.5"/><rect stroke-width="0.3" fill="black" stroke="black" stroke-dasharray="none" font-family="Arial" font-size="10pt" font-weight="normal" font-style="normal" x="460" y="49" width="0.5" height="41.5"/><path stroke-width="0.3" fill="black" stroke="none" stroke-dasharray="none" font-family="Arial" font-size="10pt" font-weight="normal" font-style="normal" x="460" y="49" width="0.5" height="41.5" d="M15 79M29.0544 35.8288C29.112000000000002 35.800000000000004,29.1696 35.800000000000004,29.256 35.800000000000004C29.601599999999998 35.800000000000004,30.0048 36.088,30.5808 36.808C32.9136 39.4864,34.5552 44.152,34.5552 47.9536C34.5552 48.241600000000005,34.4976 48.472,34.4976 48.760000000000005C34.2384 53.2816,32.3952 56.9968,28.7376 60.510400000000004L27.7584 61.4608L27.412799999999997 61.8352L27.412799999999997 61.9504L27.6144 62.8144L27.9312 64.3696L28.247999999999998 65.8096C28.68 67.768,28.852800000000002 68.776,28.852800000000002 68.776C28.852800000000002 68.776,28.852800000000002 68.776,28.852800000000002 68.776C28.852800000000002 68.776,28.968 68.776,29.112000000000002 68.74719999999999C29.256 68.74719999999999,29.7168 68.6896,30.206400000000002 68.6896C30.552 68.6896,30.897599999999997 68.74719999999999,31.0704 68.74719999999999C35.1312 69.2656,38.270399999999995 72.1744,39.1632 76.264C39.336 76.9264,39.3936 77.6464,39.3936 78.3664C39.3936 82.2544,37.0608 85.9696,33.172799999999995 87.7264C32.9424 87.8704,32.855999999999995 87.89920000000001,32.855999999999995 87.89920000000001L32.855999999999995 87.928C32.855999999999995 87.928,33.028800000000004 88.5904,33.172799999999995 89.3392L33.6048 91.528L34.007999999999996 93.2848C34.2384 94.408,34.3536 95.2144,34.3536 95.9344C34.3536 96.568,34.2672 97.144,34.1232 97.8064C33.144 101.8096,29.6592 104.2,26.0304 104.2C24.244799999999998 104.2,22.401600000000002 103.624,20.788800000000002 102.328C19.3488 101.11840000000001,18.7152 100.024,18.7152 98.584C18.7152 96.0496,20.759999999999998 94.264,22.891199999999998 94.264C23.64 94.264,24.3888 94.4944,25.108800000000002 94.9264C26.3184 95.7616,26.8656 97.0288,26.8656 98.2672C26.8656 100.168,25.540799999999997 102.03999999999999,23.2656 102.184L23.0352 102.184L23.208 102.2992C24.1584 102.7024,25.108800000000002 102.904,26.0304 102.904C28.3632 102.904,30.552 101.72319999999999,31.8768 99.6784C32.6256 98.5264,33.028800000000004 97.1728,33.028800000000004 95.8192C33.028800000000004 95.3008,32.9424 94.7824,32.827200000000005 94.2064C32.827200000000005 94.1488,32.7408 93.688,32.6256 93.256C31.992 90.1456,31.6176 88.3312,31.6176 88.3312C31.6176 88.3312,31.6176 88.3312,31.6176 88.3312C31.56 88.3312,31.4448 88.3312,31.3584 88.3888C31.0704 88.4464,30.465600000000002 88.5904,30.206400000000002 88.6192C29.5728 88.7056,28.968 88.7344,28.392 88.7344C22.7472 88.7344,17.5056 84.9328,15.6912 79.3168C15.2304 77.8192,14.9712 76.3216,14.9712 74.824C14.9712 71.8288,15.9216 68.8912,17.7648 66.2704C19.7808 63.419200000000004,21.7968 60.971199999999996,24.273600000000002 58.436800000000005L25.1376 57.544L24.936 56.4784L24.5616 54.7216L24.072 52.4752C23.927999999999997 51.64,23.755200000000002 50.833600000000004,23.726399999999998 50.6608C23.5824 49.7104,23.496000000000002 48.7888,23.496000000000002 47.8384C23.496000000000002 44.2096,24.6768 40.7248,26.894399999999997 37.931200000000004C27.5568 37.0672,28.7376 35.9152,29.0544 35.8288M30.8112 41.5312C30.7536 41.5312,30.6672 41.5312,30.5808 41.5312C29.4 41.5312,27.8736 42.6256,26.8368 44.2384C25.7712 45.8224,25.224 47.924800000000005,25.224 50.0848C25.224 50.6608,25.2528 51.2656,25.339199999999998 51.870400000000004C25.4256 52.302400000000006,25.4544 52.5904,25.6848 53.6272L26.088 55.4416C26.2032 55.9888,26.2896 56.4208,26.2896 56.4784L26.2896 56.4784C26.3184 56.4784,27.211199999999998 55.4992,27.499200000000002 55.1536C30.379199999999997 51.8992,32.1072 48.472,32.4816 45.448C32.510400000000004 45.160000000000004,32.510400000000004 44.9296,32.510400000000004 44.641600000000004C32.510400000000004 43.7488,32.3952 42.8848,32.1936 42.424C31.9632 41.9632,31.4448 41.5888,30.8112 41.5312M26.4624 63.7936C26.4048 63.3904,26.3184 63.0736,26.3184 63.016C26.3184 63.016,26.3184 63.016,26.2896 63.016C26.232 63.016,24.9936 64.456,24.1296 65.464C22.660800000000002 67.2496,21.1056 69.3808,20.472 70.4176C19.2624 72.4624,18.6576 74.7376,18.6576 76.984C18.6576 78.4528,18.9456 79.864,19.464 81.2176C21.019199999999998 85.2208,24.5904 87.7264,28.4784 87.7264C28.9392 87.7264,29.4576 87.6976,29.9472 87.6112C30.5808 87.496,31.3584 87.2656,31.3584 87.1792L31.3584 87.1792C31.3584 87.1792,31.3008 86.8912,31.2144 86.5744L30.379199999999997 82.456L29.7168 79.3744L29.284799999999997 77.2432L28.823999999999998 75.1696C28.593600000000002 73.9312,28.507199999999997 73.6144,28.507199999999997 73.6144C28.507199999999997 73.6144,28.507199999999997 73.5856,28.4784 73.5856C28.3056 73.5856,27.384 74.0464,26.980800000000002 74.3344C25.4832 75.3712,24.7056 77.0128,24.7056 78.6256C24.7056 80.152,25.4544 81.6784,26.894399999999997 82.5712C27.211199999999998 82.7728,27.3264 82.9456,27.3264 83.1472C27.3264 83.176,27.3264 83.2624,27.3264 83.2912C27.2688 83.6368,27.0672 83.7808,26.7792 83.7808C26.664 83.7808,26.52 83.752,26.3472 83.6656C23.6976 82.5136,21.912 79.7776,21.912 76.7824L21.912 76.7824C21.912 73.3264,24.072 70.3312,27.384 69.1504L27.5568 69.0928L27.2688 67.6528L26.4624 63.7936M30.7824 73.4128C30.552 73.384,30.3216 73.384,30.1488 73.384C30.0912 73.384,30.0048 73.384,29.9472 73.384L29.8032 73.384L29.9184 73.9024L30.5232 76.7248L30.897599999999997 78.568L31.3008 80.3824L32.1072 84.3856L32.424 85.912C32.5392 86.3152,32.5968 86.6608,32.6256 86.6608C32.6256 86.6608,32.6256 86.6608,32.6256 86.6608C32.654399999999995 86.6608,33.144 86.3728,33.4608 86.1424C34.9296 85.1056,36.024 83.4928,36.4272 81.8224C36.571200000000005 81.2752,36.6288 80.6992,36.6288 80.152C36.6288 76.8112,34.152 73.7872,30.7824 73.4128"/><path stroke-width="0.3" fill="black" stroke="none" stroke-dasharray="none" font-family="Arial" font-size="10pt" font-weight="normal" font-style="normal" x="460" y="49" width="0.5" height="41.5" d="M54.46065 70M59.47185 51.654399999999995C59.50065 51.625600000000006,59.90385 51.625600000000006,61.142250000000004 51.625600000000006C61.51665 51.625600000000006,61.919850000000004 51.625600000000006,62.438250000000004 51.625600000000006L65.34705 51.625600000000006L65.43345 51.712C65.57745 51.7984,65.66385 51.9424,65.66385 52.0576C65.66385 52.2304,65.57745 52.345600000000005,65.46225 52.4608C65.43345 52.547200000000004,65.17425 52.7776,65.00145 53.0368L63.47505 54.7936L61.51665 57.0112L60.47985 58.192L58.92465 59.9776L56.879850000000005 62.3104C56.53425 62.7424,56.15985 63.088,56.15985 63.088C56.15985 63.088,56.15985 63.088,56.15985 63.088C56.15985 63.1456,56.41905 63.1456,58.80945 63.1456L61.43025 63.1456L61.43025 61.2736C61.43025 59.3728,61.43025 59.344,61.459050000000005 59.315200000000004C61.51665 59.2288,61.77585 58.912,62.78385 57.7312L63.18705 57.2992L63.59025 56.8672L64.19505 56.089600000000004L64.82865 55.4272L65.14545 55.024C65.26065 54.8512,65.43345 54.8224,65.57745 54.8224C65.75025 54.8224,65.89425 54.9088,65.98065 55.052800000000005C66.00945 55.1392,66.00945 55.196799999999996,66.00945 57.328C66.00945 57.8176,66.00945 58.422399999999996,66.00945 59.1424L66.00945 63.1456L66.72945 63.1456C67.39185 63.1456,67.42065 63.1456,67.50705 63.1744C67.73745 63.2608,67.85265 63.4912,67.85265 63.7504C67.85265 63.8944,67.82385 64.0672,67.70865 64.1824C67.53585 64.3264,67.50705 64.3264,66.72945 64.3264L66.00945 64.3264L66.00945 64.816C66.03825 66.2848,66.32625 66.8608,67.44945 67.4656C67.85265 67.6672,67.93905 67.7248,67.93905 68.0128C67.93905 68.2144,67.88145 68.3008,67.73745 68.416L67.65105 68.4448L63.70545 68.4448L59.788650000000004 68.4448L59.70225 68.416C59.52945 68.3008,59.50065 68.2144,59.50065 68.0128C59.50065 67.7248,59.52945 67.6672,59.96145 67.4656C61.08465 66.8608,61.37265 66.2848,61.37265 64.816L61.37265 64.3264L58.06065 64.3264C57.45585 64.384,56.96625 64.384,56.563050000000004 64.384C54.74865 64.384,54.71985 64.3264,54.691050000000004 64.3264C54.51825 64.2688,54.46065 64.096,54.46065 63.8944C54.46065 63.8944,54.46065 63.8944,54.46065 63.8944C54.46065 63.6928,54.46065 63.6928,55.03665 63.0304C57.45585 60.0928,59.15505 55.8304,59.15505 52.432C59.15505 51.9136,59.24145 51.7408,59.47185 51.654399999999995M61.19985 70.0288L61.22865 70.0288L61.142250000000004 70.0288L61.19985 70.0288M61.19985 50.617599999999996L61.22865 50.617599999999996L61.142250000000004 50.617599999999996L61.19985 50.617599999999996"/><path stroke-width="0.3" fill="black" stroke="none" stroke-dasharray="none" font-family="Arial" font-size="10pt" font-weight="normal" font-style="normal" x="460" y="49" width="0.5" height="41.5" d="M54.46065 90M59.47185 71.6544C59.50065 71.6256,59.90385 71.6256,61.142250000000004 71.6256C61.51665 71.6256,61.919850000000004 71.6256,62.438250000000004 71.6256L65.34705 71.6256L65.43345 71.712C65.57745 71.7984,65.66385 71.94239999999999,65.66385 72.05760000000001C65.66385 72.2304,65.57745 72.3456,65.46225 72.4608C65.43345 72.5472,65.17425 72.7776,65.00145 73.0368L63.47505 74.7936L61.51665 77.0112L60.47985 78.19200000000001L58.92465 79.9776L56.879850000000005 82.3104C56.53425 82.7424,56.15985 83.088,56.15985 83.088C56.15985 83.088,56.15985 83.088,56.15985 83.088C56.15985 83.1456,56.41905 83.1456,58.80945 83.1456L61.43025 83.1456L61.43025 81.2736C61.43025 79.3728,61.43025 79.344,61.459050000000005 79.3152C61.51665 79.2288,61.77585 78.912,62.78385 77.7312L63.18705 77.2992L63.59025 76.8672L64.19505 76.0896L64.82865 75.4272L65.14545 75.024C65.26065 74.8512,65.43345 74.8224,65.57745 74.8224C65.75025 74.8224,65.89425 74.9088,65.98065 75.0528C66.00945 75.1392,66.00945 75.1968,66.00945 77.328C66.00945 77.8176,66.00945 78.4224,66.00945 79.1424L66.00945 83.1456L66.72945 83.1456C67.39185 83.1456,67.42065 83.1456,67.50705 83.1744C67.73745 83.2608,67.85265 83.4912,67.85265 83.7504C67.85265 83.8944,67.82385 84.0672,67.70865 84.1824C67.53585 84.3264,67.50705 84.3264,66.72945 84.3264L66.00945 84.3264L66.00945 84.816C66.03825 86.2848,66.32625 86.8608,67.44945 87.4656C67.85265 87.6672,67.93905 87.7248,67.93905 88.0128C67.93905 88.2144,67.88145 88.3008,67.73745 88.416L67.65105 88.4448L63.70545 88.4448L59.788650000000004 88.4448L59.70225 88.416C59.52945 88.3008,59.50065 88.2144,59.50065 88.0128C59.50065 87.7248,59.52945 87.6672,59.96145 87.4656C61.08465 86.8608,61.37265 86.2848,61.37265 84.816L61.37265 84.3264L58.06065 84.3264C57.45585 84.384,56.96625 84.384,56.563050000000004 84.384C54.74865 84.384,54.71985 84.3264,54.691050000000004 84.3264C54.51825 84.2688,54.46065 84.096,54.46065 83.8944C54.46065 83.8944,54.46065 83.8944,54.46065 83.8944C54.46065 83.6928,54.46065 83.6928,55.03665 83.0304C57.45585 80.0928,59.15505 75.8304,59.15505 72.432C59.15505 71.9136,59.24145 71.74080000000001,59.47185 71.6544M61.19985 90.0288L61.22865 90.0288L61.142250000000004 90.0288L61.19985 90.0288M61.19985 70.6176L61.22865 70.6176L61.142250000000004 70.6176L61.19985 70.6176"/><g class="vf-stavenote"><g class="vf-note" pointer-events="bounding-box"><g class="vf-stem" pointer-events="bounding-box"><path stroke-width="1.5" fill="none" stroke="black" stroke-dasharray="none" font-family="Arial" font-size="10pt" font-weight="normal" font-style="normal" x="460" y="49" width="0.5" height="41.5" d="M89.94535 68L89.94535 36"/></g><g class="vf-notehead" pointer-events="bounding-box"><path stroke-width="0.3" fill="black" stroke="none" stroke-dasharray="none" font-family="Arial" font-size="10pt" font-weight="normal" font-style="normal" x="460" y="49" width="0.5" height="41.5" d="M79.94535 70M86.54775000000001 65.3128C86.64855 65.3128,86.79975 65.3128,86.82495 65.3128C86.82495 65.3128,86.85015 65.3128,86.85015 65.3128C86.85015 65.3128,87.00135 65.3128,87.12735 65.3128C89.39535000000001 65.4388,90.73095 66.9256,90.73095 68.7904C90.73095 69.6976,90.42855 70.7308,89.67255 71.7136C88.23615000000001 73.654,85.89255 74.7124,83.85135000000001 74.7124C82.26375 74.7124,80.90295 74.0824,80.24775000000001 72.7972C80.04615000000001 72.2932,79.94535 71.8144,79.94535 71.2852C79.94535 68.5384,83.01975 65.4892,86.54775000000001 65.3128"/></g></g><g class="vf-modifiers"/></g><g class="vf-stavenote"><g class="vf-note" pointer-events="bounding-box"><g class="vf-stem" pointer-events="bounding-box"><path stroke-width="1.5" fill="none" stroke="black" stroke-dasharray="none" font-family="Arial" font-size="10pt" font-weight="normal" font-style="normal" x="460" y="49" width="0.5" height="41.5" d="M142.94535000000002 73L142.94535000000002 41"/></g><g class="vf-notehead" pointer-events="bounding-box"><path stroke-width="0.3" fill="black" stroke="none" stroke-dasharray="none" font-family="Arial" font-size="10pt" font-weight="normal" font-style="normal" x="460" y="49" width="0.5" height="41.5" d="M132.94535000000002 75M139.54775 70.3128C139.64855000000003 70.3128,139.79975000000002 70.3128,139.82495000000003 70.3128C139.82495000000003 70.3128,139.85015 70.3128,139.85015 70.3128C139.85015 70.3128,140.00135000000003 70.3128,140.12735 70.3128C142.39535 70.4388,143.73095 71.9256,143.73095 73.7904C143.73095 74.6976,143.42855000000003 75.7308,142.67255000000003 76.7136C141.23615 78.654,138.89255000000003 79.7124,136.85135000000002 79.7124C135.26375000000002 79.7124,133.90295000000003 79.0824,133.24775000000002 77.7972C133.04615 77.2932,132.94535000000002 76.8144,132.94535000000002 76.2852C132.94535000000002 73.5384,136.01975000000002 70.4892,139.54775 70.3128"/></g></g><g class="vf-modifiers"/></g><g class="vf-stavenote"><g class="vf-note" pointer-events="bounding-box"><g class="vf-notehead" pointer-events="bounding-box"><path stroke-width="0.3" fill="black" stroke="none" stroke-dasharray="none" font-family="Arial" font-size="10pt" font-weight="normal" font-style="normal" x="460" y="49" width="0.5" height="41.5" d="M185.94535000000002 80M192.54775 75.3128C192.64855000000003 75.3128,192.79975000000002 75.3128,192.82495000000003 75.3128C192.82495000000003 75.3128,192.85015 75.3128,192.85015 75.3128C192.85015 75.3128,193.00135000000003 75.3128,193.12735 75.3128C195.39535 75.4388,196.73095 76.9256,196.73095 78.7904C196.73095 79.6976,196.42855000000003 80.7308,195.67255000000003 81.7136C194.23615 83.654,191.89255000000003 84.7124,189.85135000000002 84.7124C188.26375000000002 84.7124,186.90295000000003 84.0824,186.24775000000002 82.7972C186.04615 82.2932,185.94535000000002 81.8144,185.94535000000002 81.2852C185.94535000000002 78.5384,189.01975000000002 75.4892,192.54775 75.3128"/></g></g><g class="vf-modifiers"/></g><g class="vf-stavenote"><g class="vf-note" pointer-events="bounding-box"><g class="vf-notehead" pointer-events="bounding-box"><path stroke-width="0.3" fill="black" stroke="none" stroke-dasharray="none" font-family="Arial" font-size="10pt" font-weight="normal" font-style="normal" x="460" y="49" width="0.5" height="41.5" d="M209.34535 75M215.94774999999998 70.3128C216.04855 70.3128,216.19975 70.3128,216.22495 70.3128C216.22495 70.3128,216.25015 70.3128,216.25015 70.3128C216.25015 70.3128,216.40135 70.3128,216.52734999999998 70.3128C218.79534999999998 70.4388,220.13094999999998 71.9256,220.13094999999998 73.7904C220.13094999999998 74.6976,219.82855 75.7308,219.07255 76.7136C217.63615 78.654,215.29255 79.7124,213.25135 79.7124C211.66375 79.7124,210.30295 79.0824,209.64775 77.7972C209.44615 77.2932,209.34535 76.8144,209.34535 76.2852C209.34535 73.5384,212.41975 70.4892,215.94774999999998 70.3128"/></g></g><g class="vf-modifiers"/></g><g class="vf-stavenote"><g class="vf-note" pointer-events="bounding-box"><g class="vf-notehead" pointer-events="bounding-box"><path stroke-width="0.3" fill="black" stroke="none" stroke-dasharray="none" font-family="Arial" font-size="10pt" font-weight="normal" font-style="normal" x="460" y="49" width="0.5" height="41.5" d="M232.74535000000003 85M239.34775000000002 80.3128C239.44855000000004 80.3128,239.59975000000003 80.3128,239.62495000000004 80.3128C239.62495000000004 80.3128,239.65015000000002 80.3128,239.65015000000002 80.3128C239.65015000000002 80.3128,239.80135000000004 80.3128,239.92735000000002 80.3128C242.19535000000002 80.4388,243.53095000000002 81.9256,243.53095000000002 83.7904C243.53095000000002 84.6976,243.22855000000004 85.7308,242.47255000000004 86.7136C241.03615000000002 88.654,238.69255000000004 89.7124,236.65135000000004 89.7124C235.06375000000003 89.7124,233.70295000000004 89.0824,233.04775000000004 87.7972C232.84615000000002 87.2932,232.74535000000003 86.8144,232.74535000000003 86.2852C232.74535000000003 83.5384,235.81975000000003 80.4892,239.34775000000002 80.3128"/></g></g><g class="vf-modifiers"/></g><g class="vf-stavenote"><g class="vf-note" pointer-events="bounding-box"><g class="vf-notehead" pointer-events="bounding-box"><path stroke-width="0.3" fill="black" stroke="none" stroke-dasharray="none" font-family="Arial" font-size="10pt" font-weight="normal" font-style="normal" x="460" y="49" width="0.5" height="41.5" d="M256.14535 75M262.74775 70.3128C262.84855 70.3128,262.99975 70.3128,263.02495 70.3128C263.02495 70.3128,263.05015000000003 70.3128,263.05015000000003 70.3128C263.05015000000003 70.3128,263.20135 70.3128,263.32735 70.3128C265.59535 70.4388,266.93095 71.9256,266.93095 73.7904C266.93095 74.6976,266.62855 75.7308,265.87255 76.7136C264.43615 78.654,262.09255 79.7124,260.05135 79.7124C258.46375 79.7124,257.10295 79.0824,256.44775 77.7972C256.24615 77.2932,256.14535 76.8144,256.14535 76.2852C256.14535 73.5384,259.21975000000003 70.4892,262.74775 70.3128"/></g></g><g class="vf-modifiers"/></g><g class="vf-stavenote"><g class="vf-note" pointer-events="bounding-box"><g class="vf-notehead" pointer-events="bounding-box"><path stroke-width="0.3" fill="black" stroke="none" stroke-dasharray="none" font-family="Arial" font-size="10pt" font-weight="normal" font-style="normal" x="460" y="49" width="0.5" height="41.5" d="M279.54535000000004 80M286.14775000000003 75.3128C286.24855 75.3128,286.39975000000004 75.3128,286.42495 75.3128C286.42495 75.3128,286.45015000000006 75.3128,286.45015000000006 75.3128C286.45015000000006 75.3128,286.60135 75.3128,286.72735000000006 75.3128C288.99535000000003 75.4388,290.33095000000003 76.9256,290.33095000000003 78.7904C290.33095000000003 79.6976,290.02855000000005 80.7308,289.27255 81.7136C287.83615000000003 83.654,285.49255000000005 84.7124,283.45135000000005 84.7124C281.86375000000004 84.7124,280.50295000000006 84.0824,279.84775 82.7972C279.64615000000003 82.2932,279.54535000000004 81.8144,279.54535000000004 81.2852C279.54535000000004 78.5384,282.61975000000007 75.4892,286.14775000000003 75.3128"/></g></g><g class="vf-modifiers"/></g><g class="vf-stavenote"><g class="vf-note" pointer-events="bounding-box"><g class="vf-stem" pointer-events="bounding-box"><path stroke-width="1.5" fill="none" stroke="black" stroke-dasharray="none" font-family="Arial" font-size="10pt" font-weight="normal" font-style="normal" x="460" y="49" width="0.5" height="41.5" d="M312.94535 68L312.94535 36"/></g><g class="vf-notehead" pointer-events="bounding-box"><path stroke-width="0.3" fill="black" stroke="none" stroke-dasharray="none" font-family="Arial" font-size="10pt" font-weight="normal" font-style="normal" x="460" y="49" width="0.5" height="41.5" d="M302.94535 70M309.54775 65.3128C309.64855 65.3128,309.79975 65.3128,309.82495 65.3128C309.82495 65.3128,309.85015000000004 65.3128,309.85015000000004 65.3128C309.85015000000004 65.3128,310.00135 65.3128,310.12735000000004 65.3128C312.39535 65.4388,313.73095 66.9256,313.73095 68.7904C313.73095 69.6976,313.42855000000003 70.7308,312.67255 71.7136C311.23615 73.654,308.89255 74.7124,306.85135 74.7124C305.26375 74.7124,303.90295000000003 74.0824,303.24775 72.7972C303.04615 72.2932,302.94535 71.8144,302.94535 71.2852C302.94535 68.5384,306.01975000000004 65.4892,309.54775 65.3128M312.16855000000004 66.6988C312.06775000000005 66.6484,311.94175 66.6232,311.81575000000004 66.6232C311.03455 66.6232,309.72415 67.102,308.46415 67.9588C306.12055000000004 69.4204,304.20535 71.5624,304.12975 72.7972C304.12975 72.7972,304.12975 72.8224,304.12975 72.8224C304.12975 73.2508,304.40695 73.4272,304.88575000000003 73.4272C305.91895 73.4272,307.83415 72.5452,309.59815000000003 71.134C311.41255 69.6976,312.57175 68.0848,312.57175 67.2532C312.57175 66.976,312.44575000000003 66.7492,312.16855000000004 66.6988"/></g></g><g class="vf-modifiers"/></g><rect stroke-width="0.3" fill="black" stroke="black" stroke-dasharray="none" font-family="Arial" font-size="10pt" font-weight="normal" font-style="normal" x="74.94535" y="13" width="100.1566475" height="0.5"/><rect stroke-width="0.3" fill="black" stroke="black" stroke-dasharray="none" font-family="Arial" font-size="10pt" font-weight="normal" font-style="normal" x="193.88870250000002" y="13" width="100.1566475" height="0.5"/><rect stroke-width="0.3" fill="black" stroke="black" stroke-dasharray="none" font-family="Arial" font-size="10pt" font-weight="normal" font-style="normal" x="74.94535" y="13" width="0.5" height="9.5"/><rect stroke-width="0.3" fill="black" stroke="black" stroke-dasharray="none" font-family="Arial" font-size="10pt" font-weight="normal" font-style="normal" x="294.54535000000004" y="13" width="0.5" height="9.5"/><path stroke-width="0.3" fill="black" stroke="none" stroke-dasharray="none" font-family="Arial" font-size="10pt" font-weight="normal" font-style="normal" x="294.54535000000004" y="13" width="0.5" height="9.5" d="M180.60199750000004 20.333333333333336M184.10983750000003 7.269653333333336C184.15015750000003 7.269653333333336,184.29127750000004 7.269653333333336,184.45255750000004 7.269653333333336C184.71463750000004 7.269653333333336,185.03719750000005 7.269653333333336,185.13799750000004 7.269653333333336C186.99271750000003 7.471253333333335,188.44423750000004 8.479253333333336,188.70631750000004 9.789653333333336C188.74663750000005 9.910613333333336,188.74663750000005 10.051733333333335,188.74663750000005 10.192853333333336C188.74663750000005 10.354133333333335,188.74663750000005 10.495253333333336,188.70631750000004 10.575893333333335C188.44423750000004 11.523413333333336,187.33543750000004 12.390293333333336,185.92423750000003 12.813653333333335C185.82343750000004 12.853973333333336,185.78311750000003 12.853973333333336,185.78311750000003 12.874133333333337C185.78311750000003 12.874133333333337,185.78311750000003 12.874133333333337,185.78311750000003 12.874133333333337C185.80327750000004 12.874133333333337,185.86375750000005 12.894293333333335,185.92423750000003 12.894293333333335C187.83943750000003 13.599893333333336,188.84743750000004 14.950613333333337,188.84743750000004 16.261013333333334C188.84743750000004 17.269013333333337,188.28295750000004 18.236693333333335,187.01287750000003 18.881813333333337C186.26695750000005 19.285013333333335,185.44039750000005 19.466453333333337,184.63399750000005 19.466453333333337C183.30343750000003 19.466453333333337,181.99303750000004 18.962453333333336,181.06567750000005 18.055253333333336C180.72295750000004 17.732693333333337,180.60199750000004 17.329493333333335,180.60199750000004 16.926293333333334C180.60199750000004 16.099733333333337,181.18663750000005 15.313493333333335,182.15431750000005 15.313493333333335L182.15431750000005 15.313493333333335C183.12199750000005 15.313493333333335,183.66631750000005 16.059413333333335,183.66631750000005 16.825493333333334C183.66631750000005 17.410133333333334,183.36391750000004 17.994773333333335,182.67847750000004 18.277013333333336C182.67847750000004 18.277013333333336,182.67847750000004 18.277013333333336,182.67847750000004 18.277013333333336C182.67847750000004 18.297173333333337,183.26311750000005 18.418133333333337,183.56551750000003 18.438293333333334C183.60583750000004 18.438293333333334,183.64615750000004 18.438293333333334,183.68647750000005 18.438293333333334C185.01703750000004 18.438293333333334,185.94439750000004 17.490773333333337,185.94439750000004 16.180373333333335C185.94439750000004 16.039253333333335,185.94439750000004 15.918293333333335,185.92423750000003 15.777173333333335C185.70247750000004 14.305493333333335,184.71463750000004 13.216853333333336,183.56551750000003 13.176533333333335C183.28327750000003 13.156373333333335,183.14215750000005 13.035413333333334,183.14215750000005 12.853973333333336C183.14215750000005 12.612053333333336,183.26311750000005 12.511253333333336,183.56551750000003 12.511253333333336C184.55335750000003 12.450773333333334,185.40007750000004 11.785493333333335,185.72263750000005 10.777493333333336C185.80327750000004 10.575893333333335,185.82343750000004 10.374293333333336,185.82343750000004 10.213013333333336C185.82343750000004 9.366293333333335,185.19847750000005 8.600213333333334,184.27111750000003 8.398613333333335C184.12999750000003 8.338133333333335,183.94855750000005 8.338133333333335,183.74695750000004 8.338133333333335C183.46471750000003 8.338133333333335,183.20263750000004 8.358293333333336,182.92039750000004 8.398613333333335L182.83975750000005 8.418773333333336L182.92039750000004 8.479253333333336C183.44455750000003 8.761493333333336,183.66631750000005 9.265493333333335,183.66631750000005 9.769493333333335C183.66631750000005 10.434773333333336,183.22279750000004 11.100053333333335,182.45671750000002 11.281493333333335C182.35591750000003 11.301653333333336,182.23495750000004 11.301653333333336,182.13415750000004 11.301653333333336C181.24711750000003 11.301653333333336,180.58183750000003 10.495253333333336,180.58183750000003 9.648533333333335C180.58183750000003 9.285653333333336,180.70279750000003 8.922773333333335,181.00519750000004 8.620373333333335C181.71079750000004 7.8542933333333345,182.77927750000003 7.410773333333335,184.10983750000003 7.269653333333336M184.71463750000004 20.353493333333336L184.73479750000004 20.353493333333336L184.67431750000003 20.353493333333336L184.71463750000004 20.353493333333336M184.71463750000004 6.765653333333335L184.73479750000004 6.765653333333335L184.67431750000003 6.765653333333335L184.71463750000004 6.765653333333335"/><path stroke-width="0.3" fill="black" stroke="none" stroke-dasharray="none" font-family="Arial" font-size="10pt" font-weight="normal" font-style="normal" x="294.54535000000004" y="13" width="0.5" height="9.5" d="M237.86570000000003 36.333333333333336M238.81322000000003 23.491413333333334C238.85354000000004 23.471253333333337,238.87370000000004 23.471253333333337,238.93418000000003 23.471253333333337C238.97450000000003 23.471253333333337,239.09546000000003 23.491413333333334,239.25674000000004 23.551893333333336C240.16394000000003 23.854293333333334,241.11146000000002 24.035733333333333,242.09930000000003 24.035733333333333C243.08714000000003 24.035733333333333,244.13546000000002 23.854293333333334,245.18378000000004 23.551893333333336C245.36522000000002 23.491413333333334,245.48618000000005 23.471253333333337,245.56682000000004 23.471253333333337C245.64746000000002 23.471253333333337,245.70794000000004 23.491413333333334,245.76842000000002 23.551893333333336C245.84906000000004 23.632533333333335,245.86922000000004 23.693013333333333,245.86922000000004 23.773653333333336C245.86922000000004 23.834133333333334,245.84906000000004 23.914773333333336,245.78858000000002 24.035733333333333C245.28458000000003 25.205013333333333,244.67978000000002 25.850133333333336,243.87338000000003 26.152533333333338C243.45002000000002 26.293653333333335,242.82506000000004 26.374293333333334,242.13962000000004 26.374293333333334C241.15178000000003 26.374293333333334,240.00266000000002 26.213013333333336,239.17610000000002 25.910613333333337C239.11562000000004 25.910613333333337,239.09546000000003 25.910613333333337,239.09546000000003 25.910613333333337C239.09546000000003 25.910613333333337,239.09546000000003 25.910613333333337,239.09546000000003 25.910613333333337C239.09546000000003 25.910613333333337,238.89386000000005 28.027413333333335,238.89386000000005 28.108053333333338C238.89386000000005 28.108053333333338,238.89386000000005 28.108053333333338,238.89386000000005 28.108053333333338C238.89386000000005 28.108053333333338,238.89386000000005 28.108053333333338,238.89386000000005 28.108053333333338C238.93418000000003 28.108053333333338,238.97450000000003 28.087893333333334,239.09546000000003 28.027413333333335C239.47850000000003 27.845973333333333,239.94218000000004 27.664533333333335,240.38570000000004 27.583893333333336C240.78890000000004 27.462933333333336,241.21226000000004 27.442773333333335,241.59530000000004 27.442773333333335C244.11530000000002 27.442773333333335,246.11114000000003 29.216853333333336,246.11114000000003 31.414293333333337C246.11114000000003 31.757013333333337,246.05066000000002 32.11989333333334,245.94986000000003 32.482773333333334C245.42570000000003 34.21653333333334,243.65162000000004 35.466453333333334,241.83722000000003 35.466453333333334C241.55498000000003 35.466453333333334,241.31306000000004 35.44629333333334,241.07114000000004 35.38581333333334C240.12362000000005 35.204373333333336,239.09546000000003 34.59957333333334,238.32938000000004 33.853653333333334C237.98666000000003 33.510933333333334,237.86570000000003 33.12789333333333,237.86570000000003 32.70453333333334C237.86570000000003 31.898133333333334,238.49066000000002 31.091733333333337,239.39786000000004 31.091733333333337C239.49866000000003 31.091733333333337,239.61962000000003 31.111893333333335,239.72042000000002 31.111893333333335C240.52682000000004 31.273173333333336,240.93002000000004 31.978773333333336,240.93002000000004 32.64405333333333C240.93002000000004 33.26901333333333,240.56714000000002 33.87381333333334,239.88170000000002 34.07541333333334C239.84138000000004 34.07541333333334,239.78090000000003 34.095573333333334,239.78090000000003 34.095573333333334C239.78090000000003 34.095573333333334,239.78090000000003 34.095573333333334,239.78090000000003 34.095573333333334C239.78090000000003 34.135893333333335,240.26474000000005 34.29717333333333,240.46634000000003 34.35765333333334C240.60746000000003 34.377813333333336,240.70826000000002 34.377813333333336,240.84938000000002 34.377813333333336C242.01866000000004 34.377813333333336,243.12746000000004 33.14805333333334,243.18794000000003 31.595733333333335C243.20810000000003 31.494933333333336,243.20810000000003 31.414293333333337,243.20810000000003 31.333653333333334C243.20810000000003 30.043413333333334,242.76458000000002 28.813653333333335,242.09930000000003 28.309653333333337C241.91786000000002 28.148373333333335,241.77674000000005 28.108053333333338,241.47434000000004 28.108053333333338C241.45418000000004 28.108053333333338,241.41386000000003 28.108053333333338,241.37354000000002 28.108053333333338C240.48650000000004 28.108053333333338,239.63978000000003 28.390293333333336,238.93418000000003 28.894293333333337C238.65194000000002 29.095893333333336,238.63178000000002 29.095893333333336,238.55114000000003 29.095893333333336C238.34954000000002 29.095893333333336,238.20842000000005 28.974933333333336,238.20842000000005 28.793493333333338C238.20842000000005 28.591893333333335,238.63178000000002 23.733333333333334,238.65194000000002 23.672853333333336C238.67210000000003 23.612373333333338,238.73258000000004 23.531733333333335,238.81322000000003 23.491413333333334M241.97834000000003 36.35349333333333L241.99850000000004 36.35349333333333L241.93802000000002 36.35349333333333L241.97834000000003 36.35349333333333M241.97834000000003 22.765653333333333L241.99850000000004 22.765653333333333L241.93802000000002 22.765653333333333L241.97834000000003 22.765653333333333"/><path stroke-width="1.5" fill="none" stroke="black" stroke-dasharray="none" font-family="Arial" font-size="10pt" font-weight="normal" font-style="normal" x="294.54535000000004" y="13" width="0.5" height="9.5" d="M195.94535000000002 79.5L195.94535000000002 39.5"/><path stroke-width="1.5" fill="none" stroke="black" stroke-dasharray="none" font-family="Arial" font-size="10pt" font-weight="normal" font-style="normal" x="294.54535000000004" y="13" width="0.5" height="9.5" d="M219.34535 74.5L219.34535 39.5"/><path stroke-width="1.5" fill="none" stroke="black" stroke-dasharray="none" font-family="Arial" font-size="10pt" font-weight="normal" font-style="normal" x="294.54535000000004" y="13" width="0.5" height="9.5" d="M242.74535000000003 84.5L242.74535000000003 39.5"/><path stroke-width="1.5" fill="none" stroke="black" stroke-dasharray="none" font-family="Arial" font-size="10pt" font-weight="normal" font-style="normal" x="294.54535000000004" y="13" width="0.5" height="9.5" d="M266.14535 74.5L266.14535 39.5"/><path stroke-width="1.5" fill="none" stroke="black" stroke-dasharray="none" font-family="Arial" font-size="10pt" font-weight="normal" font-style="normal" x="294.54535000000004" y="13" width="0.5" height="9.5" d="M289.54535000000004 79.5L289.54535000000004 39.5"/><path stroke-width="0.3" fill="black" stroke="none" stroke-dasharray="none" font-family="Arial" font-size="10pt" font-weight="normal" font-style="normal" x="294.54535000000004" y="13" width="0.5" height="9.5" d="M195.19535000000002 39L195.19535000000002 44L290.29535000000004 44L290.29535000000004 39Z"/><path stroke-width="0.3" fill="black" stroke="none" stroke-dasharray="none" font-family="Arial" font-size="10pt" font-weight="normal" font-style="normal" x="294.54535000000004" y="13" width="0.5" height="9.5" d="M195.19535000000002 46.5L195.19535000000002 51.5L290.29535000000004 51.5L290.29535000000004 46.5Z"/></svg>